<?xml version="1.0" encoding="utf-8"?>
<!-- Generator: Adobe Illustrator 18.1.0, SVG Export Plug-In . SVG Version: 6.00 Build 0)  -->
<!DOCTYPE svg PUBLIC "-//W3C//DTD SVG 1.1//EN" "http://www.w3.org/Graphics/SVG/1.1/DTD/svg11.dtd">
<svg version="1.1" id="Layer_1" xmlns="http://www.w3.org/2000/svg" xmlns:xlink="http://www.w3.org/1999/xlink" x="0px" y="0px"
	 width="14px" height="12px" viewBox="-392 295 14 12" enable-background="new -392 295 14 12" xml:space="preserve">
<g>
	<g>
		<path fill="#B8B7B5" d="M-389.6,295.1c2.4,0,4.2,4,4.6,3.9c0.9,0,3.8-4,5.7-4c0.4,0,1.3,0.2,1.3,1.6c0,0.3-0.1,0.7-0.2,1.2
			c-4.1,7.2-6.4,8.6-6.8,8.6c-0.5,0-5.2-5.2-6.5-8.1c-0.4-0.5-0.5-1-0.5-1.3c0-0.4,0.2-0.7,0.4-1
			C-390.9,295.3-390.2,295.1-389.6,295.1z"/>
	</g>
</g>
</svg>
