<?xml version="1.0" encoding="utf-8"?>
<!-- Generator: Adobe Illustrator 18.1.0, SVG Export Plug-In . SVG Version: 6.00 Build 0)  -->
<!DOCTYPE svg PUBLIC "-//W3C//DTD SVG 1.1//EN" "http://www.w3.org/Graphics/SVG/1.1/DTD/svg11.dtd">
<svg version="1.1" id="Layer_1" xmlns="http://www.w3.org/2000/svg" xmlns:xlink="http://www.w3.org/1999/xlink" x="0px" y="0px"
	 width="24px" height="10px" viewBox="0 0 24 10" enable-background="new 0 0 24 10" xml:space="preserve">
<g opacity="0.5">
	<g>
		<g>
			<path d="M8.9,4C8.4,4.3,7.8,4.8,7.1,4.9C6.4,5,5.7,4.5,5,4.6c-0.5,0-1.2,0.2-1.9,0.2c-0.7,0-1.3,0.1-1.8-0.1c-1-0.5-2,1.2-1,1.7
				c0.7,0.3,1.5,0.1,2.3,0.1c0.8,0,1.6,0.4,2.3,0.3c0.8-0.1,1.6-0.6,2.4-0.7C8.3,6,9.1,5.8,9.8,5.4c1-0.5,0.1-2.1-0.9-1.5
				C8.9,3.9,8.9,4,8.9,4z"/>
		</g>
		<g>
			<path d="M10.8,4.4c0.5-0.6,1-1,1.6-1.4c0.6-0.4,1.3-0.7,2-0.8c0.7-0.2,1.4-0.5,2.2-0.4c0.7,0.1,1.4,0.5,2,0.9
				c0.8,0.5,1.5,0.9,2.2,1.3c0.7,0.4,1.4,0.8,2.4,0.9c1.1,0.1,1.1-1.5,0-1.6c-0.7-0.1-1.4-0.2-2-0.5c-0.6-0.3-0.9-1-1.5-1.4
				c-0.6-0.4-1.3-0.4-1.9-0.7c-0.6-0.2-1.2-0.4-1.9-0.4c-0.6,0-1.3-0.2-1.9-0.1C13.4,0.2,13,0.7,12.4,1c-0.6,0.3-1.1,0.5-1.6,0.9
				C10.3,2.2,9.7,2.5,9.3,3C8.6,3.8,10,5.2,10.7,4.3C10.7,4.2,10.8,4.4,10.8,4.4z"/>
		</g>
		<g>
			<path d="M22.2,2.8c-0.6,0.7-1,1.4-1.5,2.2c-0.6,0.9-1.1,1.2-1.6,1.5c-0.5,0.3-1.1,0.5-2.1,0.6c-0.5,0.1-1.3,0.1-2.1-0.1
				c-0.6-0.1-1.3-0.4-2-0.6c-0.7-0.2-1.3-0.6-1.9-0.9c-0.7-0.4-1.6-0.5-2-0.9c-0.7-0.9-1.6,0.1-0.9,1C8.7,6.4,9.3,7,10.1,7.3
				c0.8,0.3,1.5,0.6,2.3,1c0.7,0.3,1.3,0.3,1.9,0.5c0.6,0.2,1.1,0,1.9,0c0.7-0.1,1.4-0.1,2.1-0.3c0.7-0.1,1.5-0.2,2-0.5
				c0.8-0.4,1.3-1,1.7-1.7c0.4-0.7,0.6-1.6,1.2-2.2c0.7-0.8-0.3-1.9-1-1.1C22.3,2.9,22.2,2.8,22.2,2.8z"/>
		</g>
		<g>
			<path d="M16.1,3.5c-0.7,0.1-1.4,0.3-2.1,0.5c-0.7,0.1-1.4,0.3-2.1,0.4c-0.7,0.1-1.4,0.2-2.2,0.3c-1.1,0.1-1.1,2,0,1.9
				c0.7-0.1,1.4-0.3,2.1-0.4c0.7-0.1,1.4-0.2,2.1-0.4C14.7,5.5,15.3,5,16,4.9C17.1,4.8,17.2,3.3,16.1,3.5C16,3.5,16.1,3.5,16.1,3.5z
				"/>
		</g>
	</g>
</g>
<g>
	<g>
		<g>
			<path fill="#FFFFFF" d="M8.9,5C8.4,5.3,7.8,5.8,7.1,5.9C6.4,6,5.7,5.5,5,5.6c-0.5,0-1.2,0.2-1.9,0.2c-0.7,0-1.3,0.1-1.8-0.1
				c-1-0.5-2,1.2-1,1.7c0.7,0.3,1.5,0.1,2.3,0.1c0.8,0,1.6,0.4,2.3,0.3c0.8-0.1,1.6-0.6,2.4-0.7C8.3,7,9.1,6.8,9.8,6.4
				c1-0.5,0.1-2.1-0.9-1.5C8.9,4.9,8.9,5,8.9,5z"/>
		</g>
		<g>
			<path fill="#FFFFFF" d="M10.8,5.4c0.5-0.6,1-1,1.6-1.4c0.6-0.4,1.3-0.7,2-0.8c0.7-0.2,1.4-0.5,2.2-0.4c0.7,0.1,1.4,0.5,2,0.9
				c0.8,0.5,1.5,0.9,2.2,1.3c0.7,0.4,1.4,0.8,2.4,0.9c1.1,0.1,1.1-1.5,0-1.6c-0.7-0.1-1.4-0.2-2-0.5c-0.6-0.3-0.9-1-1.5-1.4
				c-0.6-0.4-1.3-0.4-1.9-0.7c-0.6-0.2-1.2-0.4-1.9-0.4c-0.6,0-1.3-0.2-1.9-0.1C13.4,1.2,13,1.7,12.4,2c-0.6,0.3-1.1,0.5-1.6,0.9
				C10.3,3.2,9.7,3.5,9.3,4C8.6,4.8,10,6.2,10.7,5.3C10.7,5.2,10.8,5.4,10.8,5.4z"/>
		</g>
		<g>
			<path fill="#FFFFFF" d="M22.2,3.8c-0.6,0.7-1,1.4-1.5,2.2c-0.6,0.9-1.1,1.2-1.6,1.5c-0.5,0.3-1.1,0.5-2.1,0.6
				c-0.5,0.1-1.3,0.1-2.1-0.1c-0.6-0.1-1.3-0.4-2-0.6c-0.7-0.2-1.3-0.6-1.9-0.9c-0.7-0.4-1.6-0.5-2-0.9c-0.7-0.9-1.6,0.1-0.9,1
				C8.7,7.4,9.3,8,10.1,8.3c0.8,0.3,1.5,0.6,2.3,1c0.7,0.3,1.3,0.3,1.9,0.5c0.6,0.2,1.1,0,1.9,0c0.7-0.1,1.4-0.1,2.1-0.3
				c0.7-0.1,1.5-0.2,2-0.5c0.8-0.4,1.3-1,1.7-1.7c0.4-0.7,0.6-1.6,1.2-2.2c0.7-0.8-0.3-1.9-1-1.1C22.3,3.9,22.2,3.8,22.2,3.8z"/>
		</g>
		<g>
			<path fill="#FFFFFF" d="M16.1,4.5c-0.7,0.1-1.4,0.3-2.1,0.5c-0.7,0.1-1.4,0.3-2.1,0.4c-0.7,0.1-1.4,0.2-2.2,0.3
				c-1.1,0.1-1.1,2,0,1.9c0.7-0.1,1.4-0.3,2.1-0.4c0.7-0.1,1.4-0.2,2.1-0.4C14.7,6.5,15.3,6,16,5.9C17.1,5.8,17.2,4.3,16.1,4.5
				C16,4.5,16.1,4.5,16.1,4.5z"/>
		</g>
	</g>
</g>
</svg>
