<?xml version="1.0" encoding="utf-8"?>
<!-- Generator: Adobe Illustrator 18.1.0, SVG Export Plug-In . SVG Version: 6.00 Build 0)  -->
<!DOCTYPE svg PUBLIC "-//W3C//DTD SVG 1.1//EN" "http://www.w3.org/Graphics/SVG/1.1/DTD/svg11.dtd">
<svg version="1.1" id="Layer_1" xmlns="http://www.w3.org/2000/svg" xmlns:xlink="http://www.w3.org/1999/xlink" x="0px" y="0px"
	 width="11px" height="14px" viewBox="0 0 11 14" enable-background="new 0 0 11 14" xml:space="preserve">
<path fill="#C64E4E" d="M10.5,5.2c0,3.8-4.4,8.3-4.6,8.5C5.7,13.9,5.5,14,5.2,14s-0.4-0.1-0.6-0.3C4.4,13.6,0,9.1,0,5.2
	C0,2.4,2.4,0,5.2,0S10.5,2.4,10.5,5.2z M5.2,7.9c1.4,0,2.6-1.2,2.6-2.6c0-1.4-1.2-2.6-2.6-2.6S2.6,3.8,2.6,5.2
	C2.6,6.7,3.8,7.9,5.2,7.9z"/>
</svg>
