<?xml version="1.0" encoding="utf-8"?>
<!-- Generator: Adobe Illustrator 18.1.0, SVG Export Plug-In . SVG Version: 6.00 Build 0)  -->
<!DOCTYPE svg PUBLIC "-//W3C//DTD SVG 1.1//EN" "http://www.w3.org/Graphics/SVG/1.1/DTD/svg11.dtd">
<svg version="1.1" id="Layer_1" xmlns="http://www.w3.org/2000/svg" xmlns:xlink="http://www.w3.org/1999/xlink" x="0px" y="0px"
	 width="32px" height="39px" viewBox="0 0 32 39" enable-background="new 0 0 32 39" xml:space="preserve">
<g>
	<path fill="#887D6F" d="M6.9,12.9l1.3,0l1.2,0c0.5,0.2,1.3,0.6,2.7,0.6c0.9,0,1.4-0.1,1.9-0.2c0.2,0,0.3-0.1,0.5-0.1
		c0.5,0.3,1.4,0.7,2.8,0.7c0.5,0,0.8,0,1.1,0c0.4,0,0.8,0.1,1.6,0.1c1.2,0,2.1-0.4,2.7-0.8c0.6,0.3,1.4,0.6,2.5,0.6
		c0.9,0,1.4-0.1,1.9-0.2c0.3,0,0.4-0.1,0.7-0.1c0,0,0,0.1,0,0.1c0,0.6,0,0.9,0,1.2c0,0.3,0,0.7,0,1.4c0,1.4,0.5,2.3,0.8,2.9
		c-0.2,0.5-0.4,1.2-0.4,2.3c0,1,0.2,1.7,0.4,2.3c-0.4,0.6-0.8,1.5-0.8,2.8c0,1.5,0.5,2.4,0.9,2.9c0,0.3,0,0.6,0,0.8
		c0,0.3,0,0.7,0,1.4c0,0.1,0,0.1,0,0.1c0,0.1,0,0.1,0,0.1c-0.2,0.5-0.3,1.1-0.4,2.1c-0.1,0-0.3,0-0.4,0c-1.5,0-2.5,0.6-3.1,1
		c-0.5,0-0.8,0-1.1,0c-0.3,0-0.6,0-1.1,0c-0.8,0-1.3,0-1.6,0.1c-0.2,0-0.4,0-0.8,0c-0.5-0.3-1.4-0.7-2.8-0.7c-1.4,0-2.2,0.4-2.7,0.6
		c-0.4,0-0.6,0-0.9-0.1c-0.4,0-0.8-0.1-1.6-0.1c-0.5,0-0.6,0-0.9-0.1c-0.4,0-0.9-0.1-1.7-0.1c-1,0-1.6,0.1-2.1,0.3
		c-0.2,0.1-0.3,0.1-0.5,0.1l0,0c-0.5-0.2-1.3-0.6-2.7-0.6c-0.2,0-0.2,0-0.3,0c0-0.1,0-0.1,0-0.2c0-1-0.2-1.8-0.5-2.3
		c0.4-0.6,0.9-1.5,0.9-2.8c0-1.4-0.5-2.3-0.8-2.8c0,0,0-0.1,0-0.1c0.1-0.5,0.3-1.1,0.3-2.1c0-0.8,0-1.2-0.1-1.6c0-0.2,0-0.5,0-1
		c0-0.2,0-0.2,0.1-0.4c0.1-0.5,0.3-1.1,0.3-2.1c0-1.1-0.2-1.8-0.4-2.4l0-0.1c0,0,0-0.1,0-0.1c0-0.9-0.1-1.4-0.1-1.8
		c0-0.2-0.1-0.4-0.1-0.7l0,0c0.1-0.2,0.2-0.4,0.3-0.6C4,13.1,4.2,13,4.3,13c0.7,0,1.1,0,1.5-0.1C6.1,12.9,6.3,12.9,6.9,12.9
		 M6.9,9.6c-1.3,0-1.3,0.1-2.6,0.1C3,9.7,3,10.3,1.7,10.3c-0.6,0-0.9,0.4-0.9,0.9c0,1.3-0.6,1.3-0.6,2.6s0.2,1.3,0.2,2.6
		c0,1.3,0.5,1.3,0.5,2.6c0,1.3-0.3,1.3-0.3,2.6c0,1.3,0.1,1.3,0.1,2.6c0,1.3-0.4,1.3-0.4,2.6c0,1.3,0.8,1.3,0.8,2.6
		c0,1.3-1.1,1.3-1.1,2.6C0,33,0.7,33,0.7,34.3c0,1.3-0.4,1.3-0.4,2.6c0,0.6,0.8,0.6,1.4,0.6c1.3,0,1.3,0.4,2.6,0.4s1.3,0.6,2.6,0.6
		c1.3,0,1.3-0.3,2.6-0.3c1.3,0,1.3,0.2,2.6,0.2c1.3,0,1.3,0.1,2.6,0.1c1.3,0,1.3-0.6,2.6-0.6c1.3,0,1.3,0.7,2.6,0.7
		c1.3,0,1.3-0.1,2.6-0.1c1.3,0,1.3-0.1,2.6-0.1c1.3,0,1.3-1,2.6-1c1.3,0,1.3,1.1,2.6,1.1c0.6,0,0.9-1,0.9-1.5c0-1.3,0.2-1.3,0.2-2.6
		s0.4-1.3,0.4-2.6c0-1.3,0-1.3,0-2.6c0-1.3-0.9-1.3-0.9-2.6c0-1.3,0.9-1.3,0.9-2.6c0-1.3-0.5-1.3-0.5-2.6c0-1.3,0.5-1.3,0.5-2.6
		c0-1.3-0.9-1.3-0.9-2.6c0-1.3,0-1.3,0-2.6c0-1.3,0-1.3,0-2.6c0-0.6-0.1-1-0.6-1c-1.3,0-1.3,0.1-2.6,0.1s-1.3,0.2-2.6,0.2
		c-1.3,0-1.3-0.9-2.6-0.9c-1.3,0-1.3,1.1-2.6,1.1c-1.3,0-1.3-0.1-2.6-0.1C16,10.7,16,10,14.7,10c-1.3,0-1.3,0.3-2.6,0.3
		c-1.3,0-1.3-0.6-2.6-0.6C8.2,9.6,8.2,9.6,6.9,9.6L6.9,9.6z"/>
	<g>
		<path fill="#887D6F" d="M17.2,36.6c-0.5,0.5-0.8-0.2-1.5-0.2s-1.1,0.8-1.5,0.3c-0.5-0.5-0.1-0.9-0.1-1.6c0-0.7,0.5-0.7,0.5-1.5
			c0-0.7-0.4-0.7-0.4-1.5c0-0.7,0.5-0.7,0.5-1.5c0-0.7-0.6-0.7-0.6-1.5c0-0.7,0.3-0.7,0.3-1.5c0-0.7,0-0.7,0-1.5
			c0-0.7-0.3-0.7-0.3-1.5c0-0.7-0.1-0.7-0.1-1.5c0-0.7,0.1-0.7,0.1-1.5c0-0.7-0.1-0.7-0.1-1.5c0-0.7-0.1-0.7-0.1-1.5
			c0-0.8,0.6-0.8,0.6-1.5c0-0.7-0.7-0.7-0.7-1.5c0-0.8,0.4-0.8,0.4-1.5c0-0.8-0.2-0.8-0.2-1.5s-0.3-0.8,0.2-1.4
			c0.5-0.5,0.5,0.1,1.2,0.1s0.8-0.7,1.3-0.2c0.5,0.5,0.2,0.7,0.2,1.4c0,0.7,0.1,0.7,0.1,1.5c0,0.7-0.2,0.7-0.2,1.5
			c0,0.7-0.2,0.7-0.2,1.5c0,0.7,0.4,0.7,0.4,1.5c0,0.7,0,0.7,0,1.5c0,0.7-0.3,0.7-0.3,1.5c0,0.7,0.3,0.7,0.3,1.5
			c0,0.7-0.1,0.7-0.1,1.5c0,0.7-0.2,0.7-0.2,1.5c0,0.7,0.1,0.7,0.1,1.5c0,0.7,0,0.7,0,1.5c0,0.8,0.3,0.8,0.3,1.5
			c0,0.7-0.1,0.7-0.1,1.5c0,0.8-0.6,0.8-0.6,1.5c0,0.8,0.3,0.7,0.5,1.5C17.5,35.8,17.7,36,17.2,36.6z"/>
	</g>
	<g>
		<path fill="#887D6F" d="M2.1,25.2c-0.5-0.5,0.2-0.8,0.2-1.5c0-0.7-0.8-1.1-0.3-1.5c0.6-0.5,0.9-0.1,1.7-0.1c0.8,0,0.8,0.5,1.5,0.5
			c0.8,0,0.8-0.4,1.5-0.4c0.8,0,0.8,0.5,1.5,0.5c0.8,0,0.8-0.6,1.5-0.6c0.8,0,0.8,0.3,1.5,0.3c0.8,0,0.8,0,1.5,0
			c0.8,0,0.8-0.3,1.5-0.3c0.8,0,0.8-0.1,1.5-0.1c0.7,0,0.7,0.1,1.5,0.1c0.7,0,0.7-0.1,1.5-0.1c0.8,0,0.8-0.1,1.5-0.1
			c0.8,0,0.8,0.6,1.5,0.6c0.8,0,0.8-0.7,1.5-0.7c0.8,0,0.8,0.4,1.5,0.4c0.8,0,0.8-0.2,1.5-0.2c0.8,0,0.8,0.3,1.5,0.3
			c0.8,0,0.8,0,1.5,0c0.8,0,0.9-0.7,1.5-0.2c0.5,0.5,0.2,0.6,0.2,1.3c0,0.7,0.5,1.1,0,1.6c-0.6,0.5-0.9-0.1-1.7-0.1
			c-0.8,0-0.8-0.2-1.5-0.2c-0.8,0-0.8,0.4-1.5,0.4c-0.8,0-0.8,0-1.5,0C24,25.3,24,25,23.2,25c-0.8,0-0.8,0.3-1.5,0.3
			c-0.8,0-0.8-0.1-1.5-0.1c-0.8,0-0.8-0.2-1.5-0.2c-0.8,0-0.8,0.1-1.5,0.1c-0.7,0-0.7,0-1.5,0c-0.7,0-0.7,0.3-1.5,0.3
			c-0.8,0-0.8-0.1-1.5-0.1c-0.8,0-0.8-0.6-1.5-0.6c-0.8,0-0.8,0.5-1.5,0.5c-0.8,0-0.8,0-1.5,0c-0.8,0-0.8-0.5-1.5-0.5
			c-0.8,0-0.8,0.3-1.5,0.3c-0.8,0-0.8-0.2-1.5,0C2.8,25.3,2.6,25.7,2.1,25.2z"/>
	</g>
	<path fill="#887D6F" d="M16.9,9.2c0.1-1.8-0.3-3.6,0.5-5.3c0.2-1,0.9-1.6,2-1.9C20,2.3,20.6,2.6,21.2,3c0.1,0.1,0.1,1.8,0.1,2
		c-0.2,2.3-1.9,2.5-3.7,3C16.6,8.2,16,9.2,15,9.5c-1.8,0.5-2.7-2.3-3.3-3.4c-0.3-0.7-2-2-1.9-2.6c0.1-0.9,1.5-1,2.1-1
		c0.7,0,1.9,0.4,2.2,1.1c0.4,0.9-0.1,1.9-0.1,2.8c0,0.9,0.2,2,0.2,2.9c0,1.2,1.8,1.2,1.8,0c0-1.4,0-2.9,0-4.2c0-0.4,0-0.8,0-1.3
		c-0.1-1-0.6-2.4-1.5-2.9c-1-0.6-2.7-0.3-3.7-0.2c-0.9,0.1-1.7,0.2-2.4,1C6.9,4,9.5,6,10.4,7.8c0.8,1.7,2.8,4.1,4.9,3.5
		c0.5-0.1,0.9-0.5,1.3-0.8c0.9-0.7,1.3-0.8,2.4-1c1.1-0.3,2.7-0.7,3.5-1.6c1.1-1.4,0.9-4.9,0.2-6.4c-1.1-2.1-3.7-1.7-5.4-0.5
		c-2.7,1.9-2.1,5.5-2.3,8.3C15,10.4,16.8,10.4,16.9,9.2L16.9,9.2z"/>
	<path fill="#887D6F" d="M15.7,9c-1.6-0.6-3.1-0.7-4.7-0.8c-1.7-0.1-3.4-0.3-5-0.3c-1.2,0-1.2,1.8,0,1.8c1.4,0,3,0.1,4.4,0.2
		c1.7,0.1,3.3,0.2,4.8,0.8C16.3,11.2,16.8,9.4,15.7,9L15.7,9z"/>
	<path fill="#887D6F" d="M17.4,10.8c0.8-0.5,1.5-1,2.3-1.4c0.5-0.3,1.4-0.8,2.1-0.7c0.4,0,0.7,0.3,1.1,0.4c0.5,0.1,1,0.1,1.5,0
		c0.6-0.2,1.1-0.9,1.8-1c1.2-0.1,1.2-1.9,0-1.8C25.3,6.4,25,6.7,24.2,7c-1.2,0.5-1.6-0.2-2.7-0.2c-1.8,0-3.7,1.6-5.1,2.5
		C15.5,9.9,16.4,11.4,17.4,10.8L17.4,10.8z"/>
</g>
</svg>
