<?xml version="1.0" encoding="utf-8"?>
<!-- Generator: Adobe Illustrator 18.1.0, SVG Export Plug-In . SVG Version: 6.00 Build 0)  -->
<!DOCTYPE svg PUBLIC "-//W3C//DTD SVG 1.1//EN" "http://www.w3.org/Graphics/SVG/1.1/DTD/svg11.dtd">
<svg version="1.1" id="Layer_1" xmlns="http://www.w3.org/2000/svg" xmlns:xlink="http://www.w3.org/1999/xlink" x="0px" y="0px"
	 width="15px" height="10px" viewBox="0 0 15 10" enable-background="new 0 0 15 10" xml:space="preserve">
<g>
	<path fill="#8462A3" d="M14.6,5.8c-0.6,0.6-0.5,0.8-1.1,1.4c-0.6,0.6-0.8,0.4-1.4,1.1c-0.6,0.6-0.5,0.7-1.2,1.3
		C10.6,9.9,10.3,10,10,10c-0.3,0-0.6-0.1-0.9-0.4c-0.5-0.5-0.5-1.3,0-1.8c0.8-0.8,1.8-0.5,1.6-1.6c-0.2-0.9-0.9-0.1-1.9-0.1
		c-0.9,0-0.9,0.1-1.9,0.1C6,6.3,6,6.3,5,6.3c-0.9,0-0.9,0-1.9,0c-0.9,0-0.9-0.2-1.9-0.2C0.6,6.1-0.1,5.7-0.1,5s0.7-1.3,1.4-1.3
		c0.9,0,0.9,0.1,1.9,0.1c0.9,0,0.9,0,1.9,0C6,3.8,6,3.9,6.9,3.9c0.9,0,0.9-0.2,1.9-0.2s1.8,1,2,0.1C11,2.6,9.8,3,9,2.2
		C8.6,1.7,8.7,0.9,9.1,0.4c0.5-0.5,1.2-0.5,1.7,0c0.6,0.6,0.7,0.5,1.4,1.1c0.6,0.6,0.6,0.6,1.2,1.3c0.6,0.6,0.5,0.8,1.1,1.4
		C15.1,4.7,15,5.3,14.6,5.8z"/>
</g>
</svg>
