<?xml version="1.0" encoding="utf-8"?>
<!-- Generator: Adobe Illustrator 18.1.0, SVG Export Plug-In . SVG Version: 6.00 Build 0)  -->
<!DOCTYPE svg PUBLIC "-//W3C//DTD SVG 1.1//EN" "http://www.w3.org/Graphics/SVG/1.1/DTD/svg11.dtd">
<svg version="1.1" id="Layer_1" xmlns="http://www.w3.org/2000/svg" xmlns:xlink="http://www.w3.org/1999/xlink" x="0px" y="0px"
	 width="18px" height="18px" viewBox="0 0 18 18" enable-background="new 0 0 18 18" xml:space="preserve">
<g>
	<g>
		<path fill="#8462A3" d="M9,1.3c0.7,0,1.3,0.1,2,0.3c0.7,0.2,1.4,0.3,1.9,0.6c0.6,0.3,1,0.9,1.5,1.4c0.5,0.5,1,1,1.3,1.6
			c0.3,0.6,0.7,1.2,0.9,1.8C16.8,7.6,17,8.3,17,9c0,0.7-0.3,1.3-0.5,2c-0.2,0.7-0.2,1.4-0.5,2c-0.3,0.6-1,1-1.5,1.5
			c-0.5,0.5-1,1-1.5,1.4c-0.6,0.3-1.2,0.6-1.9,0.8c-0.7,0.2-1.4,0.2-2.1,0.2c-0.7,0-1.3-0.2-2-0.4c-0.7-0.2-1.3-0.4-1.9-0.7
			c-0.6-0.3-1.3-0.6-1.8-1c-0.5-0.5-0.8-1.2-1.1-1.8c-0.3-0.6-0.7-1.2-0.9-1.9C1.1,10.4,1.1,9.7,1.1,9c0-0.7,0.2-1.4,0.4-2
			c0.2-0.7,0.3-1.4,0.7-2c0.3-0.6,0.8-1.1,1.3-1.6c0.5-0.5,1-0.9,1.6-1.3c0.6-0.3,1.2-0.7,1.9-0.9C7.6,1.1,8.3,1.1,9,1.1 M9-0.2
			c-0.7,0-1.4,0.1-2,0.2C6.3,0.2,5.7,0.6,5.1,0.9C4.5,1.2,3.8,1.4,3.3,1.8c-0.5,0.4-1,1-1.4,1.5c-0.4,0.5-0.7,1.2-1,1.8
			C0.6,5.7,0.5,6.4,0.4,7C0.2,7.7-0.1,8.3-0.1,9c0,0.7,0.4,1.3,0.5,2c0.2,0.7,0.1,1.4,0.4,2c0.3,0.6,0.8,1.1,1.2,1.6
			c0.4,0.5,0.9,1,1.4,1.4c0.5,0.4,1,0.9,1.7,1.2c0.6,0.3,1.2,0.6,1.9,0.8c0.6,0.1,1.4,0.2,2,0.2c0.7,0,1.3-0.3,2-0.5
			c0.7-0.2,1.3-0.2,1.9-0.5c0.6-0.3,1.1-0.8,1.6-1.2c0.5-0.4,1-0.9,1.4-1.4c0.4-0.5,0.9-1,1.2-1.7c0.3-0.6,0.4-1.3,0.5-1.9
			c0.1-0.6,0.3-1.3,0.3-2c0-0.7-0.1-1.4-0.2-2c-0.2-0.7-0.5-1.3-0.8-1.9c-0.3-0.6-0.6-1.2-1-1.7c-0.4-0.5-0.9-1-1.4-1.4
			c-0.5-0.4-1-0.9-1.7-1.2c-0.6-0.3-1.3-0.6-1.9-0.7C10.4-0.1,9.7,0,9,0C8.9,0,9-0.2,9-0.2z M10.7,9c0-0.9,0.6-0.5,1.3-1.2
			s0.5-0.8,1.2-1.4c0.4-0.4,0.6-1.3,0.1-1.7c-0.4-0.4-1.3-0.4-1.8,0.1c-0.6,0.6-0.5,0.7-1.2,1.4S9.9,7.5,9,7.5
			C8.1,7.5,8.4,6.7,7.8,6C7.2,5.4,6.9,5.6,6.3,4.9C5.9,4.5,5.2,4.3,4.7,4.7C4.3,5.2,4.4,6,4.8,6.4C5.5,7.1,5.5,7,6.2,7.7
			S7.4,8.1,7.4,9S6.6,9.5,6,10.2c-0.6,0.6-0.6,0.7-1.2,1.3c-0.4,0.4-0.3,1.1,0.2,1.6c0.2,0.2,0.4,0.5,0.7,0.5s0.5-0.2,0.7-0.4
			C7,12.5,7,12.5,7.7,11.8c0.6-0.6,0.4-1.2,1.3-1.2c0.9,0,0.7,0.5,1.4,1.2s0.6,0.7,1.2,1.4c0.2,0.2,0.5,0.3,0.8,0.3s0.5-0.2,0.7-0.4
			c0.4-0.4,0.5-1,0.1-1.5c-0.6-0.6-0.5-0.8-1.3-1.3C11.1,9.8,10.7,9.9,10.7,9z"/>
	</g>
</g>
</svg>
