<?xml version="1.0" encoding="utf-8"?>
<!-- Generator: Adobe Illustrator 18.1.0, SVG Export Plug-In . SVG Version: 6.00 Build 0)  -->
<!DOCTYPE svg PUBLIC "-//W3C//DTD SVG 1.1//EN" "http://www.w3.org/Graphics/SVG/1.1/DTD/svg11.dtd">
<svg version="1.1" id="Layer_1" xmlns="http://www.w3.org/2000/svg" xmlns:xlink="http://www.w3.org/1999/xlink" x="0px" y="0px"
	 width="14px" height="12px" viewBox="0 0 14 12" enable-background="new 0 0 14 12" xml:space="preserve">
<g>
	<path fill="#5C516B" d="M2.4,0.1c2.4,0,4.2,4,4.6,3.9c0.9,0,3.8-4,5.7-4C13.1,0,14,0.2,14,1.6c0,0.3-0.1,0.7-0.2,1.2
		C9.7,10,7.4,11.4,7,11.4c-0.5,0-5.2-5.2-6.5-8.1C0.1,2.8,0,2.3,0,2C0,1.6,0.2,1.3,0.4,1C1.1,0.3,1.8,0.1,2.4,0.1z"/>
</g>
</svg>
