<?xml version="1.0" encoding="utf-8"?>
<!-- Generator: Adobe Illustrator 18.1.0, SVG Export Plug-In . SVG Version: 6.00 Build 0)  -->
<!DOCTYPE svg PUBLIC "-//W3C//DTD SVG 1.1//EN" "http://www.w3.org/Graphics/SVG/1.1/DTD/svg11.dtd">
<svg version="1.1" id="Layer_1" xmlns="http://www.w3.org/2000/svg" xmlns:xlink="http://www.w3.org/1999/xlink" x="0px" y="0px"
	 width="24px" height="24px" viewBox="0 0 24 24" enable-background="new 0 0 24 24" xml:space="preserve">
<g>
	<path fill="#684F3E" d="M21,7c-1.1,0-1.1,0-2.2,0c-1.1,0-1.1-0.1-2.2-0.1c-1.1,0-1.1,0.2-2.2,0.2c-1.1,0-1.1,0.1-2.2,0.1
		c-1.1,0-1.1,0.1-2.3,0.1C8.6,7.2,8.6,7,7.5,7C6.4,7,6.4,6.8,5.3,6.8S4.1,7.2,3,7.2C1.9,7.2,0.8,6.1,0.8,5C0.8,5,1,5,1,5
		c0-1.1,0.9-1.8,2-1.8c1.1,0,1.1-0.1,2.2-0.1c1.1,0,1.1-0.1,2.2-0.1c1.1,0,1.1,0,2.2,0c1.1,0,1.1,0.1,2.2,0.1c1.1,0,1.1,0.1,2.3,0.1
		c1.1,0,1.1-0.4,2.3-0.4c1.1,0,1.1,0,2.3,0C19.9,2.8,19.9,3,21,3c1.1,0,2,0.8,2,2c0,0,0,0,0,0C23,6.1,22.1,7,21,7z"/>
</g>
<g>
	<path fill="#684F3E" d="M17,13.9c-1.2,0-1.2,0.2-2.3,0.2c-1.2,0-1.2-0.2-2.3-0.2c-1.2,0-1.2,0.1-2.3,0.1c-1.2,0-1.2,0.1-2.3,0.1
		c-1.2,0-1.2-0.2-2.3-0.2S4.2,14.1,3,14.1c-1.1,0-1.9-1-1.9-2.1c0,0-0.2,0-0.2,0c0-1.1,1.1-2.1,2.2-2.1c1.2,0,1.2,0.1,2.3,0.1
		c1.2,0,1.2,0,2.3,0c1.2,0,1.2,0.1,2.3,0.1c1.2,0,1.2-0.1,2.3-0.1c1.2,0,1.2-0.1,2.3-0.1s1.2-0.1,2.3-0.1c1.1,0,2,1.1,2,2.2
		c0,0-0.2,0-0.2,0C18.8,13.1,18.1,13.9,17,13.9z"/>
</g>
<g>
	<path fill="#684F3E" d="M20,20.9c-1.2,0-1.2,0-2.4,0c-1.2,0-1.2,0.2-2.4,0.2c-1.2,0-1.2,0.1-2.4,0.1c-1.2,0-1.2-0.2-2.4-0.2
		c-1.2,0-1.2,0.1-2.4,0.1c-1.2,0-1.2,0.1-2.4,0.1S4.2,21.1,3,21.1c-1.1,0-2.1-1-2.1-2.1c0,0,0.1,0,0.1,0c0-1.1,0.9-1.8,2-1.8
		c1.2,0,1.2-0.3,2.4-0.3c1.2,0,1.2,0.2,2.4,0.2c1.2,0,1.2-0.1,2.4-0.1c1.2,0,1.2-0.1,2.4-0.1c1.2,0,1.2,0.3,2.4,0.3
		c1.2,0,1.2-0.2,2.4-0.2c1.2,0,1.2,0.2,2.4,0.2c1.1,0,2.2,0.8,2.2,1.9c0,0-0.1,0-0.1,0C22.1,20.1,21.1,20.9,20,20.9z"/>
</g>
</svg>
