<?xml version="1.0" encoding="utf-8"?>
<!-- Generator: Adobe Illustrator 18.1.0, SVG Export Plug-In . SVG Version: 6.00 Build 0)  -->
<!DOCTYPE svg PUBLIC "-//W3C//DTD SVG 1.1//EN" "http://www.w3.org/Graphics/SVG/1.1/DTD/svg11.dtd">
<svg version="1.1" id="Layer_1" xmlns="http://www.w3.org/2000/svg" xmlns:xlink="http://www.w3.org/1999/xlink" x="0px" y="0px"
	 width="48px" height="22px" viewBox="0 0 48 22" enable-background="new 0 0 48 22" xml:space="preserve">
<g opacity="0.5">
	<path d="M1.2,13.5c0,0.3,0,0.4,0.1,0.6s0.2,0.3,0.3,0.3c0.1,0.1,0.2,0.1,0.3,0.2c0.1,0,0.2,0,0.3,0c0.4-0.1,0.7-0.1,0.9-0.1
		c0.2,0,0.4,0,0.5,0c0.3,0,0.5,0,0.6,0.1c0.1,0.1,0.1,0.2,0.1,0.4c0,0.2-0.2,0.4-0.5,0.5c-0.3,0.2-0.9,0.2-1.6,0.2
		c-0.4,0-0.7-0.1-1-0.2c-0.3-0.1-0.5-0.3-0.6-0.4c-0.2-0.2-0.3-0.3-0.4-0.4c-0.1-0.1-0.1-0.2-0.1-0.2c0-0.1-0.1-0.3-0.1-0.5
		c0-0.2,0-0.4,0-0.6c0-0.4,0-0.8,0-1.4c0-0.6,0-1.3,0.1-2c0-0.7,0.1-1.4,0.1-2.2c0-0.7,0-1.4,0-2.1c0-0.2,0-0.4,0.1-0.7
		s0.1-0.5,0.2-0.7c0.1-0.2,0.2-0.4,0.3-0.6c0.1-0.2,0.2-0.3,0.3-0.4c0.2-0.1,0.4-0.2,0.7-0.2s0.6-0.1,0.9-0.1c0.2,0,0.4,0,0.6,0.1
		c0.2,0,0.4,0.1,0.5,0.2s0.3,0.1,0.4,0.2c0.1,0.1,0.1,0.2,0.1,0.3c0,0.1,0,0.2-0.1,0.4S4,4.4,3.8,4.4c-0.2,0-0.3-0.1-0.5-0.1
		c-0.1,0-0.3,0-0.4-0.1s-0.3,0-0.5,0c-0.3,0-0.5,0.1-0.7,0.3C1.5,4.7,1.4,5,1.4,5.4c0,0.4,0,0.9,0,1.4c0,0.5,0,1,0,1.6
		c0,0.5,0,1.1,0,1.6c0,0.5,0,1,0,1.5c0,0.5,0,0.9,0,1.2S1.2,13.3,1.2,13.5z"/>
</g>
<g opacity="0.5">
	<path d="M47.4,15.7c-0.2,0-0.4-0.1-0.5-0.3s-0.3-0.4-0.5-0.8c-0.2-0.3-0.3-0.7-0.5-1.1s-0.3-0.8-0.5-1.2c-0.2-0.4-0.3-0.8-0.5-1.2
		s-0.3-0.7-0.5-1v1.9c0,0.1,0,0.1,0,0.2c0,0.1,0,0.1,0,0.2c0,0.3,0,0.6,0.1,1c0,0.3,0.1,0.7,0.1,0.9c0,0.4,0,0.6-0.1,0.8
		c-0.1,0.2-0.3,0.3-0.5,0.3c-0.3,0-0.4-0.2-0.5-0.7c-0.1-0.5-0.1-1.1-0.2-1.9c0-0.8,0-1.7,0-2.7c0-1,0-2.1-0.1-3.2
		c0-0.3,0-0.7,0-1.2c0-0.4,0.1-0.9,0.1-1.3c0.1-0.4,0.1-0.7,0.2-1s0.2-0.4,0.3-0.4c0.2,0,0.4,0.1,0.5,0.2s0.1,0.3,0.1,0.5v0.4
		c0,0.1,0,0.1,0,0.2s0,0.2,0,0.4s0,0.4,0,0.8c0,0.3,0,0.7,0,1.3v0.6l0.3-0.4l0,0L45,6.6c0.3-0.3,0.5-0.7,0.7-1C45.9,5.3,46,5,46,4.5
		V4.3c0-0.2,0.1-0.3,0.2-0.4c0.1-0.1,0.2-0.1,0.4-0.1c0.2,0,0.4,0.1,0.5,0.2c0.1,0.1,0.2,0.3,0.2,0.5c0,0,0,0.1,0,0.3
		c0,0.2-0.1,0.4-0.2,0.6S46.8,6,46.7,6.3c-0.1,0.3-0.3,0.5-0.5,0.8c-0.1,0.1-0.2,0.2-0.3,0.3c-0.1,0.1-0.1,0.2-0.2,0.3
		c-0.2,0.3-0.4,0.5-0.6,0.7c-0.2,0.2-0.4,0.4-0.5,0.5l0.1,0.1c0.2,0.1,0.3,0.3,0.5,0.5s0.3,0.5,0.5,0.8l0,0c0.2,0.3,0.4,0.6,0.5,0.9
		c0.1,0.2,0.3,0.5,0.4,0.7s0.3,0.5,0.4,0.8c0.1,0.3,0.3,0.6,0.5,1.1v0c0.1,0.2,0.2,0.4,0.3,0.6c0.1,0.2,0.2,0.4,0.3,0.6h0
		c0,0,0,0.1,0.1,0.2c0,0.1,0.1,0.2,0.1,0.3C48,15.5,47.8,15.7,47.4,15.7z"/>
</g>
<path opacity="0.5" d="M32.6,7.8C33.5,6,33.5,3.5,31.9,2c-1.4-1.4-4.1-1.2-5.8-0.5c-1.1,0.4-1.9,1.2-2.4,2.2C23,2,21.7,0.6,20,0.2
	c-2.3-0.6-5.9,0.7-6.9,3C10.3,9.8,23,14.7,25.5,18.8c0.5,0.8,1.8,0.1,1.3-0.8c-0.1-0.2-0.2-0.3-0.3-0.5c0,0,0,0,0,0
	C27.3,13.4,30.8,11.4,32.6,7.8z M19.3,11.4c-2.3-1.6-6.9-5.5-3.4-8.9c3.4-3.4,6.8,1.2,7.3,4c0,0,0,0.1,0,0.1c0,0,0,0,0,0.1
	C23.4,6.9,23.6,7,23.9,7c0,0,0,0,0,0c0,0,0.1,0,0.1,0c0.3-0.1,0.6-0.3,0.6-0.7c0-3,3.2-4.6,5.6-3.2c3.3,2,0.2,5.3-1.3,7.1
	c-1.6,1.8-2.9,3.7-3.6,5.9C23.6,14.2,21.4,12.9,19.3,11.4z"/>
<g opacity="0.6">
	<path fill="#FFFFFF" d="M1.2,15.5c0,0.3,0,0.4,0.1,0.6c0.1,0.1,0.2,0.3,0.3,0.3c0.1,0.1,0.2,0.1,0.3,0.2c0.1,0,0.2,0,0.3,0
		c0.4-0.1,0.7-0.1,0.9-0.1c0.2,0,0.4,0,0.5,0c0.3,0,0.5,0,0.6,0.1c0.1,0.1,0.1,0.2,0.1,0.4c0,0.2-0.2,0.4-0.5,0.5
		c-0.3,0.2-0.9,0.2-1.6,0.2c-0.4,0-0.7-0.1-1-0.2c-0.3-0.1-0.5-0.3-0.6-0.4c-0.2-0.2-0.3-0.3-0.4-0.4c-0.1-0.1-0.1-0.2-0.1-0.2
		c0-0.1-0.1-0.3-0.1-0.5c0-0.2,0-0.4,0-0.6c0-0.4,0-0.8,0-1.4c0-0.6,0-1.3,0.1-2c0-0.7,0.1-1.4,0.1-2.2c0-0.7,0-1.4,0-2.1
		c0-0.2,0-0.4,0.1-0.7s0.1-0.5,0.2-0.7c0.1-0.2,0.2-0.4,0.3-0.6c0.1-0.2,0.2-0.3,0.3-0.4c0.2-0.1,0.4-0.2,0.7-0.2s0.6-0.1,0.9-0.1
		c0.2,0,0.4,0,0.6,0.1c0.2,0,0.4,0.1,0.5,0.2s0.3,0.1,0.4,0.2c0.1,0.1,0.1,0.2,0.1,0.3c0,0.1,0,0.2-0.1,0.4S4,6.4,3.8,6.4
		c-0.2,0-0.3-0.1-0.5-0.1c-0.1,0-0.3,0-0.4-0.1s-0.3,0-0.5,0c-0.3,0-0.5,0.1-0.7,0.3C1.5,6.7,1.4,7,1.4,7.4c0,0.4,0,0.9,0,1.4
		c0,0.5,0,1,0,1.6c0,0.5,0,1.1,0,1.6c0,0.5,0,1,0,1.5c0,0.5,0,0.9,0,1.2S1.2,15.3,1.2,15.5z"/>
</g>
<g opacity="0.6">
	<path fill="#FFFFFF" d="M47.4,17.7c-0.2,0-0.4-0.1-0.5-0.3s-0.3-0.4-0.5-0.8c-0.2-0.3-0.3-0.7-0.5-1.1c-0.2-0.4-0.3-0.8-0.5-1.2
		c-0.2-0.4-0.3-0.8-0.5-1.2s-0.3-0.7-0.5-1v1.9c0,0.1,0,0.1,0,0.2c0,0.1,0,0.1,0,0.2c0,0.3,0,0.6,0.1,1c0,0.3,0.1,0.7,0.1,0.9
		c0,0.4,0,0.6-0.1,0.8c-0.1,0.2-0.3,0.3-0.5,0.3c-0.3,0-0.4-0.2-0.5-0.7c-0.1-0.5-0.1-1.1-0.2-1.9c0-0.8,0-1.7,0-2.7
		c0-1,0-2.1-0.1-3.2c0-0.3,0-0.7,0-1.2c0-0.4,0.1-0.9,0.1-1.3c0.1-0.4,0.1-0.7,0.2-1s0.2-0.4,0.3-0.4c0.2,0,0.4,0.1,0.5,0.2
		s0.1,0.3,0.1,0.5v0.4c0,0.1,0,0.1,0,0.2s0,0.2,0,0.4s0,0.4,0,0.8c0,0.3,0,0.7,0,1.3v0.6l0.3-0.4l0,0L45,8.6c0.3-0.3,0.5-0.7,0.7-1
		C45.9,7.3,46,7,46,6.5V6.3c0-0.2,0.1-0.3,0.2-0.4c0.1-0.1,0.2-0.1,0.4-0.1c0.2,0,0.4,0.1,0.5,0.2c0.1,0.1,0.2,0.3,0.2,0.5
		c0,0,0,0.1,0,0.3c0,0.2-0.1,0.4-0.2,0.6S46.8,8,46.7,8.3c-0.1,0.3-0.3,0.5-0.5,0.8c-0.1,0.1-0.2,0.2-0.3,0.3
		c-0.1,0.1-0.1,0.2-0.2,0.3c-0.2,0.3-0.4,0.5-0.6,0.7c-0.2,0.2-0.4,0.4-0.5,0.5l0.1,0.1c0.2,0.1,0.3,0.3,0.5,0.5s0.3,0.5,0.5,0.8
		l0,0c0.2,0.3,0.4,0.6,0.5,0.9c0.1,0.2,0.3,0.5,0.4,0.7s0.3,0.5,0.4,0.8c0.1,0.3,0.3,0.6,0.5,1.1v0c0.1,0.2,0.2,0.4,0.3,0.6
		c0.1,0.2,0.2,0.4,0.3,0.6h0c0,0,0,0.1,0.1,0.2c0,0.1,0.1,0.2,0.1,0.3C48,17.5,47.8,17.7,47.4,17.7z"/>
</g>
<path opacity="0.6" fill="#FFFFFF" d="M32.6,9.8C33.5,8,33.5,5.5,31.9,4c-1.4-1.4-4.1-1.2-5.8-0.5c-1.1,0.4-1.9,1.2-2.4,2.2
	C23,4,21.7,2.6,20,2.2c-2.3-0.6-5.9,0.7-6.9,3c-2.8,6.6,9.9,11.5,12.4,15.6c0.5,0.8,1.8,0.1,1.3-0.8c-0.1-0.2-0.2-0.3-0.3-0.5
	c0,0,0,0,0,0C27.3,15.4,30.8,13.4,32.6,9.8z M19.3,13.4c-2.3-1.6-6.9-5.5-3.4-8.9c3.4-3.4,6.8,1.2,7.3,4c0,0,0,0.1,0,0.1
	c0,0,0,0,0,0.1C23.4,8.9,23.6,9,23.9,9c0,0,0,0,0,0c0,0,0.1,0,0.1,0c0.3-0.1,0.6-0.3,0.6-0.7c0-3,3.2-4.6,5.6-3.2
	c3.3,2,0.2,5.3-1.3,7.1c-1.6,1.8-2.9,3.7-3.6,5.9C23.6,16.2,21.4,14.9,19.3,13.4z"/>
<g>
	<path fill="#89817A" d="M1.2,14.5c0,0.3,0,0.4,0.1,0.6s0.2,0.3,0.3,0.3c0.1,0.1,0.2,0.1,0.3,0.2c0.1,0,0.2,0,0.3,0
		c0.4-0.1,0.7-0.1,0.9-0.1c0.2,0,0.4,0,0.5,0c0.3,0,0.5,0,0.6,0.1c0.1,0.1,0.1,0.2,0.1,0.4c0,0.2-0.2,0.4-0.5,0.5
		c-0.3,0.2-0.9,0.2-1.6,0.2c-0.4,0-0.7-0.1-1-0.2c-0.3-0.1-0.5-0.3-0.6-0.4c-0.2-0.2-0.3-0.3-0.4-0.4c-0.1-0.1-0.1-0.2-0.1-0.2
		c0-0.1-0.1-0.3-0.1-0.5c0-0.2,0-0.4,0-0.6c0-0.4,0-0.8,0-1.4c0-0.6,0-1.3,0.1-2c0-0.7,0.1-1.4,0.1-2.2c0-0.7,0-1.4,0-2.1
		c0-0.2,0-0.4,0.1-0.7s0.1-0.5,0.2-0.7c0.1-0.2,0.2-0.4,0.3-0.6c0.1-0.2,0.2-0.3,0.3-0.4c0.2-0.1,0.4-0.2,0.7-0.2s0.6-0.1,0.9-0.1
		c0.2,0,0.4,0,0.6,0.1c0.2,0,0.4,0.1,0.5,0.2s0.3,0.1,0.4,0.2c0.1,0.1,0.1,0.2,0.1,0.3c0,0.1,0,0.2-0.1,0.4S4,5.4,3.8,5.4
		c-0.2,0-0.3-0.1-0.5-0.1c-0.1,0-0.3,0-0.4-0.1s-0.3,0-0.5,0c-0.3,0-0.5,0.1-0.7,0.3C1.5,5.7,1.4,6,1.4,6.4c0,0.4,0,0.9,0,1.4
		c0,0.5,0,1,0,1.6c0,0.5,0,1.1,0,1.6c0,0.5,0,1,0,1.5c0,0.5,0,0.9,0,1.2S1.2,14.3,1.2,14.5z"/>
</g>
<g>
	<path fill="#89817A" d="M47.4,16.7c-0.2,0-0.4-0.1-0.5-0.3s-0.3-0.4-0.5-0.8c-0.2-0.3-0.3-0.7-0.5-1.1s-0.3-0.8-0.5-1.2
		c-0.2-0.4-0.3-0.8-0.5-1.2s-0.3-0.7-0.5-1v1.9c0,0.1,0,0.1,0,0.2c0,0.1,0,0.1,0,0.2c0,0.3,0,0.6,0.1,1c0,0.3,0.1,0.7,0.1,0.9
		c0,0.4,0,0.6-0.1,0.8c-0.1,0.2-0.3,0.3-0.5,0.3c-0.3,0-0.4-0.2-0.5-0.7c-0.1-0.5-0.1-1.1-0.2-1.9c0-0.8,0-1.7,0-2.7
		c0-1,0-2.1-0.1-3.2c0-0.3,0-0.7,0-1.2c0-0.4,0.1-0.9,0.1-1.3c0.1-0.4,0.1-0.7,0.2-1s0.2-0.4,0.3-0.4c0.2,0,0.4,0.1,0.5,0.2
		s0.1,0.3,0.1,0.5v0.4c0,0.1,0,0.1,0,0.2s0,0.2,0,0.4s0,0.4,0,0.8c0,0.3,0,0.7,0,1.3v0.6l0.3-0.4l0,0L45,7.6c0.3-0.3,0.5-0.7,0.7-1
		C45.9,6.3,46,6,46,5.5V5.3c0-0.2,0.1-0.3,0.2-0.4c0.1-0.1,0.2-0.1,0.4-0.1c0.2,0,0.4,0.1,0.5,0.2c0.1,0.1,0.2,0.3,0.2,0.5
		c0,0,0,0.1,0,0.3c0,0.2-0.1,0.4-0.2,0.6S46.8,7,46.7,7.3c-0.1,0.3-0.3,0.5-0.5,0.8c-0.1,0.1-0.2,0.2-0.3,0.3
		c-0.1,0.1-0.1,0.2-0.2,0.3c-0.2,0.3-0.4,0.5-0.6,0.7c-0.2,0.2-0.4,0.4-0.5,0.5l0.1,0.1c0.2,0.1,0.3,0.3,0.5,0.5s0.3,0.5,0.5,0.8
		l0,0c0.2,0.3,0.4,0.6,0.5,0.9c0.1,0.2,0.3,0.5,0.4,0.7s0.3,0.5,0.4,0.8c0.1,0.3,0.3,0.6,0.5,1.1v0c0.1,0.2,0.2,0.4,0.3,0.6
		c0.1,0.2,0.2,0.4,0.3,0.6h0c0,0,0,0.1,0.1,0.2c0,0.1,0.1,0.2,0.1,0.3C48,16.5,47.8,16.7,47.4,16.7z"/>
</g>
<path fill="#89817A" d="M32.6,8.8C33.5,7,33.5,4.5,31.9,3c-1.4-1.4-4.1-1.2-5.8-0.5c-1.1,0.4-1.9,1.2-2.4,2.2C23,3,21.7,1.6,20,1.2
	c-2.3-0.6-5.9,0.7-6.9,3c-2.8,6.6,9.9,11.5,12.4,15.6c0.5,0.8,1.8,0.1,1.3-0.8c-0.1-0.2-0.2-0.3-0.3-0.5c0,0,0,0,0,0
	C27.3,14.4,30.8,12.4,32.6,8.8z M19.3,12.4c-2.3-1.6-6.9-5.5-3.4-8.9c3.4-3.4,6.8,1.2,7.3,4c0,0,0,0.1,0,0.1c0,0,0,0,0,0.1
	C23.4,7.9,23.6,8,23.9,8c0,0,0,0,0,0c0,0,0.1,0,0.1,0c0.3-0.1,0.6-0.3,0.6-0.7c0-3,3.2-4.6,5.6-3.2c3.3,2,0.2,5.3-1.3,7.1
	c-1.6,1.8-2.9,3.7-3.6,5.9C23.6,15.2,21.4,13.9,19.3,12.4z"/>
</svg>
