<?xml version="1.0" encoding="utf-8"?>
<!-- Generator: Adobe Illustrator 18.1.0, SVG Export Plug-In . SVG Version: 6.00 Build 0)  -->
<!DOCTYPE svg PUBLIC "-//W3C//DTD SVG 1.1//EN" "http://www.w3.org/Graphics/SVG/1.1/DTD/svg11.dtd">
<svg version="1.1" id="Layer_1" xmlns="http://www.w3.org/2000/svg" xmlns:xlink="http://www.w3.org/1999/xlink" x="0px" y="0px"
	 width="81px" height="82px" viewBox="0 0 81 82" enable-background="new 0 0 81 82" xml:space="preserve">
<g opacity="0.5">
	<g>
		<path fill="#FFFFFF" d="M47.9,42.6l-0.5-2.7c-0.2-1-0.3-1.7-0.4-1.9c-0.1-0.2-0.2-0.5-0.2-0.6c-0.1-0.2-0.1-0.3-0.1-0.4
			c0-0.1,0-0.2,0.1-0.3c0.1-0.1,0.1-0.2,0.3-0.2c0.4-0.1,0.6,0.3,0.7,1.1c0,0,0.2,1,0.5,2.9c0-0.1,0.1-0.3,0.1-0.7
			c0.1-0.4,0.1-0.8,0.2-1.2c0.1-0.4,0.2-0.9,0.3-1.3c0.2-1,0.4-1.5,0.6-1.6c0.1,0,0.2,0,0.3,0.1c0.1,0.1,0.2,0.1,0.2,0.2
			s-0.1,0.7-0.4,1.9C49.1,39,49,39.7,49,40l0,0.3c0.2,0.3,0.8,1.4,1.8,3.3c1,1.8,1.5,2.8,1.5,2.9c0,0.1,0,0.2-0.1,0.3
			c-0.1,0.1-0.2,0.2-0.3,0.2l-0.3,0c-0.5-1.3-0.9-2.4-1.4-3.4c-0.4-1-0.9-1.8-1.5-2.7c-0.2,0.6-0.3,0.9-0.3,1c0,0.3,0,0.5,0.1,0.7
			l0.6,2.6c0.2,1.3,0.2,2-0.1,2c-0.3,0.1-0.5-0.2-0.6-0.6c-0.1-0.5-0.2-1.2-0.3-2C48.1,43.7,48,43,47.9,42.6z"/>
		<path fill="#FFFFFF" d="M56.6,43.3l0,0.3c0,0.1,0.1,0.4,0.3,0.8c0.2,0.4,0.3,0.7,0.3,0.9l0,0c0,0.2,0,0.4-0.1,0.4
			c-0.2,0-0.4,0-0.5,0c-0.1,0-0.2-0.2-0.3-0.5c0-0.3-0.2-0.8-0.5-1.6l-0.4,0l-0.5,0.1c-0.1,0-0.3,0-0.6,0c0,0,0,0.1,0,0.2
			c0,0.1,0,0.2,0,0.3c0,0.1,0,0.2,0,0.3c0,0.1,0,0.3,0,0.4c0,0.1,0,0.2,0,0.3c0,0.1,0,0.2,0,0.3c0,0.1,0,0.2-0.1,0.3
			c-0.1,0.2-0.1,0.3-0.3,0.3c-0.1,0-0.2,0-0.3,0c-0.1-0.1-0.2-0.1-0.2-0.2c0.1-1,0.1-2.1,0.1-3.1c0-1.1,0-1.7,0-1.9s0-0.6,0-1.2
			s0-1,0-1.2c0-0.2,0-0.4-0.1-0.8c-0.1-0.7-0.1-1.1,0-1.3l0.5-0.1c0.3-0.1,0.5,0,0.5,0.2c0.3,1.8,0.9,3.6,1.6,5.4
			c0,0.1,0.1,0.2,0.2,0.4C56.5,42.8,56.6,43.1,56.6,43.3z M55.6,43.2c-0.1-0.1-0.1-0.4-0.2-0.7c-0.1-0.3-0.1-0.7-0.3-1.1
			c-0.1-0.4-0.3-0.9-0.5-1.5c-0.2-0.6-0.3-1-0.4-1.2c0,0.3,0,0.7-0.1,1.4c-0.1,1.4-0.1,2.4,0.1,3.1C54.5,43.3,54.9,43.3,55.6,43.2z"
			/>
		<path fill="#FFFFFF" d="M59.8,43.7l-0.1-0.5c-0.1-0.1-0.3-1.2-0.8-3.2c-0.5-2-0.8-3.2-0.9-3.7c-0.5,0.1-0.9,0.1-1,0
			c-0.1-0.1-0.2-0.1-0.2-0.2c0-0.1,0-0.2,0.1-0.3c0.1-0.1,0.2-0.1,0.3-0.1l2-0.2l0.2,0c0.3-0.1,0.5,0,0.5,0.3c0,0.1,0,0.2-0.1,0.3
			c-0.1,0.1-0.2,0.1-0.3,0.2l-0.7,0l0,0.2c0.2,0.9,0.5,2.2,1,4c0.5,1.8,0.8,3.1,1,4c0,0.1,0,0.2-0.1,0.3c-0.1,0.1-0.2,0.2-0.3,0.2
			L60.1,45L59.8,43.7z"/>
		<path fill="#FFFFFF" d="M62.3,35.8l0.6,3.6c0.2,0,0.4,0,0.8-0.1l0.5-0.1l-0.1-0.3c-0.1-0.4-0.2-1.1-0.5-1.9
			c-0.2-0.9-0.4-1.5-0.5-1.9c0-0.1,0-0.2,0.1-0.3c0.1-0.1,0.1-0.1,0.2-0.1c0.1,0,0.1,0,0.2,0c0,0,0.1,0,0.1,0c0,0,0.1,0,0.1,0
			c0.1,0,0.1,0.1,0.2,0.3c0.2,1,0.5,2.5,1,4.5c0.5,2,0.8,3.5,1,4.5c0,0.1,0,0.2-0.1,0.2C65.8,44,65.7,44,65.6,44c-0.1,0-0.2,0-0.3,0
			c-0.1,0-0.2-0.1-0.2-0.2c-0.2-0.9-0.5-2.1-0.7-3.5l0-0.1l-0.1-0.4l0-0.1l0,0c-0.1,0-0.2,0.1-0.3,0.1l-0.9,0l0.3,1.6l0,0.1l0.6,2.3
			c0,0.1,0,0.3,0,0.4c0,0.1-0.1,0.2-0.3,0.2c-0.2,0-0.4-0.1-0.5-0.4c-0.1-0.3-0.3-0.8-0.4-1.4l-0.4-2.2l-0.1-0.8L62,38.7l-0.7-3.2
			c0-0.1,0-0.2,0.1-0.3c0.1-0.1,0.1-0.2,0.3-0.2C61.9,34.9,62.1,35.2,62.3,35.8z"/>
		<path fill="#FFFFFF" d="M67.7,39.3c0,0.3,0,0.5,0,0.8s0.2,0.7,0.4,1.4c0.2,0.7,0.3,1.2,0.4,1.4c0,0.2,0,0.4,0,0.5
			c-0.1,0.1-0.1,0.2-0.2,0.2c-0.1,0-0.2-0.1-0.3-0.2c-0.1-0.4-0.1-0.8-0.2-1.3s-0.3-1.6-0.8-3.4c-0.4-1.7-0.7-3-0.9-3.9
			c-0.1-0.4,0-0.7,0.3-0.8c0.5-0.1,0.9,0,1.3,0.2c0.4,0.2,0.6,0.5,0.7,1c0.1,0.6,0.2,1.2,0.1,1.5c0,0.4-0.1,0.9-0.3,1.5
			c0.1,0.2,0.3,0.7,0.5,1.3c0.5,1.4,1.1,2.4,1.5,3c0.1,0.2,0.2,0.3,0.2,0.4c0,0.1,0,0.2,0,0.3c0,0.1-0.1,0.1-0.2,0.2
			c-0.3,0.1-0.7-0.4-1.1-1.4c-0.2-0.4-0.4-0.9-0.6-1.3c-0.5-1.2-0.8-1.9-0.9-2C67.7,38.8,67.7,39,67.7,39.3z M66.8,34.5l0,0.2
			c0.1,0.4,0.2,0.9,0.3,1.7c0.2,0.7,0.3,1.3,0.3,1.6c0.2-0.2,0.3-0.5,0.4-1c0-0.5,0-0.9,0-1.2c0-0.3-0.1-0.4-0.1-0.6
			c0-0.1-0.1-0.3-0.2-0.4C67.3,34.6,67.1,34.5,66.8,34.5z"/>
		<path fill="#FFFFFF" d="M73.8,41.7c0.1,0.5,0.1,0.8,0,0.9c-0.1,0.1-0.2,0.1-0.3,0.1c-0.1,0-0.3-0.1-0.4-0.2c0.1-0.2,0-1-0.3-2.4
			c0-0.3-0.1-0.6-0.3-1.1s-0.2-0.8-0.2-1c-0.2-0.3-0.7-1-1.3-2c-0.6-1.1-0.9-1.8-1-2l0-0.1l0.3-0.3c0.3,0,0.8,0.6,1.5,2
			c0.3,0.6,0.4,0.9,0.4,0.9c0-0.1,0-0.5,0-1.1c0-1.6,0.1-2.4,0.5-2.5c0.1,0,0.2,0,0.3,0c0.1,0,0.1,0.1,0.1,0.2
			c0.1,0.6,0.1,1.3,0,2.1c-0.1,0.8-0.2,1.6,0,2.2L73.8,41.7z"/>
		<path fill="#FFFFFF" d="M76.1,36.2l0.8,3.7l0.3,1.6c0,0.1,0,0.2,0,0.3c0,0.1-0.1,0.2-0.2,0.2c-0.3,0.1-0.5-0.2-0.6-0.8l-1-5
			l-0.4-2.7c-0.1-0.6,0-1,0.3-1.1c0.2,0,0.4,0.1,0.5,0.4c0.2,0.6,0.6,1.4,1.2,2.5c0.5,1.1,0.9,1.9,1.2,2.5c0.1,0.3,0.3,0.7,0.6,1.2
			c0.2,0.5,0.4,1,0.6,1.2c-0.3-2.1-0.8-4.6-1.3-7.5l-0.1-0.4c0-0.1,0-0.2,0-0.3c0-0.1,0.1-0.1,0.2-0.2c0.1,0,0.2,0,0.3,0
			c0.2,0.1,0.3,0.2,0.3,0.4c0.2,1.3,0.5,3,0.8,5c0.3,2.1,0.4,3.4,0.4,3.9c0,0-0.1,0-0.1,0.1c-0.1,0-0.1,0.1-0.1,0.1
			c-0.3,0.1-0.4,0.1-0.5,0.1c-0.1-0.1-0.2-0.2-0.2-0.3c-0.1-0.1-0.1-0.3-0.2-0.4c-0.1-0.1-0.3-0.7-0.8-1.8c-1.2-2.9-2-4.5-2.2-5
			L76.1,36.2z"/>
	</g>
	<g>
		<path fill="#FFFFFF" d="M1.2,48.9l0.1,1c0.1,0.5,0.3,1.4,0.7,2.6c0.4,1.3,0.6,2,0.8,2.1C3,54.9,3.4,55,3.8,54.9s0.8-0.3,0.9-0.6
			c0.2,0,0.3-0.1,0.4-0.2l0,0.2c0.1,0.3,0,0.5-0.1,0.7c-0.2,0.4-0.6,0.6-1.2,0.7c-0.3,0.1-0.7,0-1-0.1S2.2,55.3,2,55
			c-0.2-0.3-0.5-1.2-0.9-2.6c-0.4-1.4-0.6-2.5-0.8-3.3s-0.2-1.3-0.2-1.7C0.1,47.3,0.1,47.2,0,47c-0.1-0.6,0-1.1,0.4-1.5
			c0.4-0.4,0.9-0.7,1.5-0.8c0.2,0,0.5,0,0.7,0.1C2.9,44.8,3,45,3.1,45.2c0,0.1,0,0.2-0.1,0.3c-0.1,0.1-0.2,0.1-0.3,0.1
			c-0.1,0-0.3,0-0.3-0.1l0,0l-0.2,0l0-0.1C1.4,45.6,1,46,0.9,46.7c0,0.3,0,0.7,0.1,1.2L1.2,48.9z"/>
		<path fill="#FFFFFF" d="M6.5,46.2l0.6,3.6c0.2,0,0.4,0,0.8-0.1l0.5-0.1l-0.1-0.3c-0.1-0.4-0.2-1.1-0.5-1.9
			c-0.2-0.9-0.4-1.5-0.5-1.9c0-0.1,0-0.2,0.1-0.3C7.5,45,7.6,45,7.7,45c0.1,0,0.1,0,0.2,0c0,0,0.1,0,0.1,0c0,0,0.1,0,0.1,0
			c0.1,0,0.1,0.1,0.2,0.3c0.2,1,0.5,2.5,1,4.5c0.5,2,0.8,3.5,1,4.5c0,0.1,0,0.2-0.1,0.2c-0.1,0.1-0.2,0.1-0.3,0.1
			c-0.1,0-0.2,0-0.3,0c-0.1,0-0.2-0.1-0.2-0.2c-0.2-0.9-0.5-2.1-0.7-3.5l0-0.1l-0.1-0.4l0-0.1l0,0c-0.1,0-0.2,0.1-0.3,0.1l-0.9,0
			l0.3,1.6l0,0.1L8,54.2c0,0.1,0,0.3,0,0.4c0,0.1-0.1,0.2-0.3,0.2c-0.2,0-0.4-0.1-0.5-0.4C7.1,54,7,53.6,6.9,53l-0.4-2.2L6.4,50
			l-0.1-0.8L5.5,46c0-0.1,0-0.2,0.1-0.3c0.1-0.1,0.1-0.2,0.3-0.2C6.2,45.4,6.4,45.7,6.5,46.2z"/>
		<path fill="#FFFFFF" d="M12.2,49.7c0,0.3,0,0.5,0,0.8c0,0.2,0.2,0.7,0.4,1.4c0.2,0.7,0.3,1.2,0.4,1.4c0,0.2,0,0.4,0,0.5
			c-0.1,0.1-0.1,0.2-0.2,0.2c-0.1,0-0.2-0.1-0.3-0.2c-0.1-0.4-0.1-0.8-0.2-1.3s-0.3-1.6-0.8-3.4s-0.7-3-0.9-3.9
			c-0.1-0.4,0-0.7,0.3-0.8c0.5-0.1,0.9,0,1.3,0.2s0.6,0.5,0.7,1c0.1,0.6,0.2,1.2,0.1,1.5c0,0.4-0.1,0.9-0.3,1.5
			c0.1,0.2,0.3,0.7,0.5,1.3c0.5,1.4,1.1,2.4,1.5,3c0.1,0.2,0.2,0.3,0.2,0.4c0,0.1,0,0.2,0,0.3c0,0.1-0.1,0.1-0.2,0.2
			c-0.3,0.1-0.7-0.4-1.1-1.4c-0.2-0.4-0.4-0.9-0.6-1.3c-0.5-1.2-0.8-1.9-0.9-2C12.3,49.2,12.3,49.4,12.2,49.7z M11.3,44.9l0,0.2
			c0.1,0.4,0.2,1,0.3,1.7s0.3,1.3,0.3,1.6c0.2-0.2,0.3-0.5,0.4-1c0-0.5,0-0.9,0-1.2c0-0.3-0.1-0.4-0.1-0.6c0-0.1-0.1-0.3-0.2-0.4
			C11.9,45,11.7,44.9,11.3,44.9z"/>
		<path fill="#FFFFFF" d="M18.7,52.6l-0.5,0.1l-0.6,0.1c-0.3,0-0.5,0-0.6-0.2c0-0.1,0-0.3,0-0.3c0-0.1,0.1-0.1,0.2-0.2l0.4-0.1
			l0-0.2l-0.7-3l-0.5-3.2c-0.1-0.5-0.2-1-0.4-1.5c-0.2,0-0.4,0.1-0.6,0.1c-0.2,0-0.3,0-0.4,0c-0.1,0-0.1-0.1-0.2-0.3
			c0-0.2,0.2-0.4,0.7-0.5l0,0c1.2-0.2,1.9-0.2,1.9,0.1c0,0.1,0,0.1,0,0.3l-0.7,0.1c0.1,0.3,0.2,0.7,0.3,1.2l0.4,2.7l0.7,3l0.1,0.4
			c0,0.1,0,0.2,0,0.4l0.6-0.1c0.4-0.1,0.6,0,0.7,0.2c0,0.1,0,0.2,0,0.3c-0.1,0.1-0.1,0.1-0.2,0.2L18.7,52.6z"/>
		<path fill="#FFFFFF" d="M21.2,51.7l0.8,0c0.2,0,0.3-0.1,0.4-0.3c0.1-0.2,0.2-0.4,0.2-0.6c0-0.5,0-0.9,0-1.2
			c-0.1-0.3-0.2-0.7-0.4-1c-0.2-0.3-0.4-0.6-0.6-0.9c-0.2-0.3-0.4-0.5-0.7-0.8c-0.5-0.6-0.9-1.3-1-2c-0.1-0.4-0.1-0.8,0-1.2
			c0.2-0.7,0.5-1,0.9-1.1c0.2,0,0.3,0,0.5,0.1c0.2,0.1,0.3,0.2,0.3,0.3c0,0.2-0.1,0.3-0.3,0.4c-0.1,0-0.2,0-0.3,0
			c-0.3,0.1-0.4,0.4-0.4,1.1c0,0.1,0,0.3,0.1,0.5s0.1,0.4,0.3,0.7s0.3,0.5,0.5,0.7c0.2,0.2,0.4,0.4,0.5,0.7c0.2,0.2,0.4,0.5,0.6,0.7
			c0.4,0.5,0.7,1.2,0.8,1.9c0.1,0.6,0.1,1.2,0,1.7c-0.1,0.3-0.2,0.5-0.4,0.7c-0.2,0.2-0.4,0.3-0.7,0.4l0,0c-0.2,0-0.4,0-0.5-0.1
			c-0.2-0.1-0.3-0.2-0.3-0.3L21.2,51.7z"/>
	</g>
	<path fill="#FFFFFF" d="M20.6,74.7c-0.2,0-0.4-0.1-0.5-0.2c-0.6-0.4-1.2-0.9-1.8-1.3c-0.2-0.1-0.4-0.3-0.5-0.4
		c-0.2-0.1-0.6-0.1-0.9-0.2c-1-0.2-1.4-0.2-1.8-0.5c-0.3-0.2-0.4-0.5-0.5-0.9c0-0.5,0.2-0.8,0.4-1.1c-0.2-0.2-0.4-0.3-0.6-0.5
		c-0.6-0.4-1.3-0.9-1.8-1.5c-0.6-0.6-1-1.3-1.4-2c-0.2-0.4-0.5-0.8-0.7-1.1C9.6,64,9,63,8.4,61.9c-0.3-0.5-0.1-1.1,0.4-1.4
		s1.1-0.1,1.4,0.4c0.6,1,1.2,1.9,1.9,3c0.3,0.4,0.6,0.8,0.8,1.2c0.4,0.6,0.8,1.2,1.2,1.7c0.4,0.4,0.9,0.8,1.5,1.2
		c0.4,0.3,0.9,0.6,1.3,1c0.3,0.3,0.6,0.8,0.2,1.6c0,0,0,0,0,0c0.9,0.1,1.4,0.2,1.7,0.5c0.2,0.2,0.4,0.3,0.6,0.5
		c0.6,0.4,1.1,0.8,1.6,1.2c0.5,0.3,0.6,0.9,0.3,1.4C21.3,74.6,21,74.7,20.6,74.7z"/>
	<path fill="#FFFFFF" d="M68.7,65.5c-0.2,0-0.4-0.1-0.6-0.2c-0.4-0.3-0.6-0.9-0.2-1.4c0.5-0.7,1-1.5,1.6-2.3
		c0.2-0.3,0.4-0.5,0.8-0.7c0,0,0,0,0-0.1c-0.1-0.3-0.1-0.6,0-0.9c0.6-1.2,1.2-2.3,1.7-3.5c0.1-0.4,0.3-0.7,0.4-1.1
		c0.4-0.9,0.7-1.7,0.9-2.5c0.3-1.3,0.6-2.6,0.7-3.8c0.1-0.5,0.6-0.9,1.1-0.8c0.5,0.1,0.9,0.6,0.8,1.1c-0.2,1.2-0.4,2.7-0.8,4
		c-0.3,1-0.7,1.9-1,2.8c-0.1,0.3-0.3,0.7-0.4,1c-0.4,1-0.8,1.9-1.3,2.8c0.2,0.1,0.4,0.3,0.5,0.5c0.1,0.3,0.1,0.7-0.1,0.9
		c-0.2,0.4-0.6,0.6-1.3,1c-0.2,0.1-0.4,0.3-0.6,0.3c-0.5,0.9-1.1,1.7-1.6,2.4C69.4,65.4,69,65.5,68.7,65.5z"/>
	<path fill="#FFFFFF" d="M70.2,26.5c-0.3,0-0.7-0.2-0.9-0.5c-0.9-1.5-1.8-2.8-2.8-4c-0.3-0.4-0.4-0.8-0.5-1.4c0-0.1-0.1-0.4-0.1-0.5
		c0,0,0,0,0,0c-0.3-0.1-0.7-0.1-1.1-0.6c-0.7-0.7-1.5-1.3-2.4-1.8c-0.5-0.3-1-0.7-1.5-1.1c-0.1,0-0.4,0-0.6,0c-0.6,0-1.2,0-1.6-0.4
		c-0.7-0.5-0.6-1.3-0.5-1.8c0,0,0,0,0,0c-0.3-0.2-0.7-0.3-1-0.4c-0.4-0.2-0.8-0.3-1.3-0.5c-0.6-0.3-1.3-0.6-2-0.9l-0.6-0.2
		c-0.8-0.3-1.6-0.6-2.7-1c-0.5-0.2-0.8-0.6-1.2-1.1c-0.2,0.1-0.6,0.2-0.8,0.1c-0.9-0.2-1.7-0.4-2.6-0.5c-0.4-0.1-0.9-0.1-1.3,0
		c-0.4,0-0.9,0-1.4,0c-0.6,0-1-0.5-0.9-1.1c0-0.6,0.5-0.9,1.1-0.9c0.3,0,0.7,0,1.1,0c0.6,0,1.1,0,1.7,0.1C46.7,8,47.3,8.1,48,8.2
		c0.1-0.2,0.2-0.4,0.4-0.6c0.2-0.2,0.6-0.2,0.9-0.1c0.6,0.2,1,0.7,1.4,1.3c0.1,0.2,0.3,0.5,0.4,0.6c1,0.3,1.9,0.6,2.7,1l0.6,0.2
		c0.7,0.3,1.5,0.6,2.2,1c0.3,0.2,0.7,0.3,1.1,0.5c0.6,0.2,1.1,0.4,1.7,0.8c0.7,0.4,0.6,1.2,0.6,1.7c0.1,0,0.2,0,0.2,0
		c0.6,0,1.2,0,1.7,0.4c0.5,0.4,1,0.7,1.5,1c0.9,0.6,1.9,1.3,2.8,2.1c0,0,0.1,0,0.1,0c0.3,0.1,0.7,0.2,1.2,0.6
		c0.3,0.4,0.4,0.9,0.5,1.4c0,0.2,0.1,0.5,0.1,0.6c1,1.3,2,2.6,2.9,4.2c0.3,0.5,0.1,1.1-0.3,1.4C70.6,26.5,70.4,26.5,70.2,26.5z"/>
	<path fill="#FFFFFF" d="M5.1,38.7c-0.1,0-0.1,0-0.2,0C4.4,38.6,4,38,4.1,37.5c0.1-0.4,0.1-0.8,0.2-1.1c0.1-0.8,0.2-1.5,0.4-2.3
		c0.2-0.7,0.5-1.4,0.9-2c0.2-0.4,0.4-0.7,0.5-1.1c0-0.2-0.1-0.5-0.2-0.8c-0.2-0.8-0.4-1.4-0.2-2c0.4-0.9,1.3-0.9,1.8-0.9
		c0,0,0,0,0.1,0c0.6-1.1,1.1-2,1.6-2.8c0.6-1,1.3-1.9,2-2.7l0.1-0.2c0.3-0.4,0.9-0.8,1.5-1.3c0.2-0.2,0.5-0.4,0.8-0.6
		c-0.2-0.7,0.1-1.2,0.3-1.4c0.2-0.2,0.5-0.5,0.7-0.8c0.5-0.5,0.9-1,1.5-1.5c0.6-0.5,1.2-0.9,1.7-1.3c0.3-0.2,0.5-0.4,0.8-0.6
		c0.5-0.4,1.1-0.7,1.7-1c0.4-0.2,0.7-0.3,1.1-0.5c0.3-0.2,0.7-0.4,1-0.7c0.5-0.4,1-0.8,1.6-1.1c0.5-0.2,1.1,0,1.3,0.5
		c0.2,0.5,0,1.1-0.5,1.3c-0.4,0.2-0.9,0.5-1.3,0.9c-0.4,0.3-0.7,0.5-1.1,0.8c-0.4,0.2-0.8,0.4-1.2,0.6c-0.5,0.2-1,0.5-1.4,0.8
		c-0.3,0.2-0.6,0.4-0.8,0.6c-0.6,0.4-1.1,0.7-1.6,1.1c-0.5,0.4-0.9,0.9-1.3,1.3c-0.2,0.2-0.3,0.4-0.5,0.5c0.2,0.5,0.1,1-0.3,1.4
		c-0.3,0.3-0.8,0.7-1.4,1.1c-0.4,0.3-1,0.7-1.1,0.8L12.7,23c-0.7,0.9-1.3,1.7-1.9,2.6c-0.5,0.9-1.1,1.8-1.6,2.9
		c-0.3,0.7-1,0.8-1.4,0.8c0,0.1,0.1,0.2,0.1,0.3C8.1,30.4,8.3,31,8,31.6c-0.2,0.5-0.4,1-0.7,1.4c-0.3,0.6-0.6,1.1-0.7,1.6
		c-0.2,0.6-0.3,1.3-0.4,2.1c-0.1,0.4-0.1,0.8-0.2,1.2C6,38.3,5.6,38.7,5.1,38.7z"/>
	<path fill="#FFFFFF" d="M47.8,51.7c-0.6,0-1-0.2-1.3-0.6c-0.3,0-0.6-0.1-1-0.5c-0.4-0.4-0.8-0.5-1.2-0.4c-0.3-0.2-0.5-0.4-0.5-0.5
		c-0.1-0.2-0.1-0.3-0.2-0.5c0-0.2,0-0.6,0.2-1.1c0.2-0.5,0.2-0.9,0.1-1.2c0.1-0.6,0.2-1.3,0.1-1.9c-0.1-0.7-0.4-1.2-0.9-1.6
		c0-0.3,0-0.6,0-0.9c0,0,0,0,0-0.1c-0.1-0.1-0.2-0.1-0.2-0.2c-0.2,0-0.4,0-0.6,0c0,0.1-0.1,0.1-0.1,0.1l-0.3,0.1c-0.1,0-0.1,0-0.2,0
		c-0.4,0.1-0.7,0.3-1,0.5c0,0-0.1,0.1-0.1,0.1c-0.2,0.1-0.3,0.3-0.5,0.5c0,0,0,0,0,0c0,0.1,0,0.2-0.1,0.3c0.3,0.3,0.4,0.7,0.5,1.2
		c0.2,1.2,0.3,1.9,0.4,2c-0.2,0.2-0.3,0.4-0.5,0.4c-0.2,0-0.4-0.2-0.7-0.6c-0.3-0.4-0.6-0.6-0.9-0.5c-0.6-1-1.2-1.6-1.6-2
		c-0.4-0.1-0.8-0.5-1.1-1.1c-0.3-0.6-0.6-1-1-1.1c0-0.1-0.1-0.2-0.3-0.6c-0.1-0.2-0.1-0.4,0-0.6c0.1-0.2,0.4-0.5,1-1.2
		c0.4-0.5,0.7-0.9,0.9-1.2c0.4-0.2,0.6-0.6,0.8-1.3c0.2-0.7,0.4-1.1,0.7-1.4c0.1-0.2,0.2-0.5,0-0.9c-0.1-0.4-0.1-0.7-0.1-0.8
		c0-0.2,0.1-0.3,0-0.5c-0.1-0.3-0.4-0.7-1-1.2c0-0.5-0.3-0.9-0.9-1.2c-0.6-0.3-1-0.6-1-1c-0.4-0.4-1-0.4-1.7-0.1
		c-0.3-0.2-0.7-0.3-1-0.3c-0.2,0-0.5,0.2-0.9,0.4c-0.4,0.2-0.8,0.4-1,0.4c-0.2,0-0.4,0-0.6,0c-0.6,0.2-0.9,0.7-1,1.5
		c-0.6,0.2-0.9,0.7-1,1.5c0.2,0.3,0.2,0.6,0,1c-0.2,0.5-0.2,0.8-0.2,1c0,0.1,0.1,0.2,0.2,0.4c0.1,0.2,0.2,0.3,0.2,0.4
		c0,0.1,0,0.3,0,0.7c0,0.3,0,0.5,0.1,0.7c0.3,0.2,0.6,0.5,0.8,1.1c0.2,0.6,0.5,1,0.8,1.2c0.1,0.2,0.3,0.4,0.4,0.6
		c0.2,0.3,0.2,0.5,0.2,0.7c-0.3,0.2-0.6,0.6-0.8,1.2c-0.2,0.6-0.5,1-0.9,1.2c0,0.3-0.1,0.7-0.4,1.2c-0.3,0.5-0.5,0.8-0.5,1.1
		c0.1,0.3-0.1,0.8-0.4,1.4c-0.3,0.6-0.4,1.1-0.3,1.4c0.1,0.1,0.1,0.3,0.2,0.4c0,0.2,0,0.5,0,0.9c0,0.4,0,0.8,0,1
		c0.2,0.2,0.4,0.6,0.6,1.2c0.2,0.6,0.4,1,0.5,1.2c0.4,0.1,0.7,0.5,1.1,1.1c0.4,0.6,0.7,1,1.1,1.1c0.4-0.1,0.8,0.1,1.2,0.5
		c0.5,0.4,0.9,0.5,1.3,0.3c0.3-0.2,0.8-0.3,1.4-0.2c0.7,0.1,1.2,0.1,1.3,0.1c0.3-0.1,0.6-0.2,0.8-0.5c0.5,0,1.1-0.2,1.7-0.6
		c0.9-0.5,1.4-0.7,1.5-0.8c0.5-0.1,1-0.5,1.3-1.3c0.4-0.8,0.8-1.2,1.3-1.3c1.1,0.6,1.9,1,2.5,1.2c0.5,0,1.1,0.2,1.6,0.6
		c0.3,0.2,0.5,0.4,0.8,0.6c0.2-0.1,0.3-0.2,0.5-0.2C48.4,54,48.1,52.6,47.8,51.7z M42.8,44.4c0.2,0,0.3,0,0.4,0.2
		c0.1,0.2,0.1,0.4,0.2,0.6c0,0.5-0.5,1-1.5,1.4c-0.1,0-0.3,0.2-0.4,0.1c0-0.3-0.1-0.7,0.2-0.9C42.1,45.2,42.6,44.8,42.8,44.4z
		 M41.1,44.8c0-0.4,0-0.6,0-0.6c0-0.1-0.1-0.2-0.1-0.3c0.2-0.5,0.7-0.8,1.5-0.7c-0.4,1.2-0.9,1.9-1.2,2.2
		C41.1,45.2,41.1,45,41.1,44.8z M41.1,48.3c0.1-0.4,0.4-0.6,0.8-0.8c0.4-0.1,0.8-0.3,1.2-0.4c0.1,0.1,0.1,0.2,0.1,0.3
		c0,0.2,0,0.4-0.2,0.6c0,0-0.2,0.2-0.5,0.4c-0.1,0-0.3,0.1-0.6,0.2c-0.3,0.1-0.5,0.1-0.6,0.1C41.2,48.7,41.1,48.5,41.1,48.3z
		 M40.1,48c0.3-0.1,0.7,1,0.2,1.5c-0.1,0.6-1,0.3-1,0.1C39.4,49.1,39.8,48,40.1,48z M38.8,47.1c0.1,0,0.5,0.1,0.6,0.5
		c0.1,0.3-0.3,1.3-0.6,1.7c-0.1,0-0.5-0.3-0.6-0.4c-0.1-0.2,0-0.6,0.1-0.9C38.5,47.6,38.7,47.2,38.8,47.1z M37.4,45.9
		c0.1-0.1,0.2,0,0.3,0.1c0.1,0.1,0.2,0.2,0.2,0.4c0.1,0.3,0.1,0.6,0,0.9c-0.1,0.3-0.2,0.6-0.3,0.9c-0.1,0.1-0.3,0-0.5-0.3
		c-0.1-0.3-0.1-0.6,0.1-0.9C37.3,46.3,37.4,46,37.4,45.9z M36.3,44.8c0.1,0,0.4-0.1,0.4,0c0,0.1,0.2,0.3,0.1,0.4
		c0.2,0.8-0.5,1.5-1,1.4c-0.5,0-0.6-0.6-0.3-1.1C35.8,45.3,35.9,44.9,36.3,44.8z M35.4,43.1c0,0.1,0.1,0.2,0.1,0.4
		c0,0.2,0,0.5,0,0.6c0,0-0.1,0.6-0.4,1c-0.1,0.3-0.4,0.2-0.6,0.3c-0.1-0.1-0.5-0.5-0.6-0.9c0.2-0.7,0.7-1.2,0.9-1.6
		C35.1,42.9,35.4,43,35.4,43.1z M32.5,40.2c0.2-0.1,0.4,0.1,0.5,0.5c0,0.3,0.2,1.4-0.5,1.8c-0.1,0.1-0.2,0.1-0.3,0
		c-0.1-0.1-0.4-0.5-0.4-0.6C31.5,41.3,32,40.9,32.5,40.2z M31.2,41c-0.3,0-0.6-0.4-0.6-0.7c0-0.3,0.2-0.4,0.3-0.7
		c0.1-0.2,0.4-0.5,0.7-0.9c0.2-0.1,0.5,0.1,0.5,0.6C32,39.9,31.5,41,31.2,41z M33,43.1c0.3-0.8,0.7-1.3,0.9-1.7
		c0.3,0.1,0.9,0.6,0.5,1.3c-0.1,0.3-0.4,0.7-0.8,1.2c-0.2,0-0.4,0.1-0.6-0.1C32.8,43.5,33,43.1,33,43.1z M34.2,40.5
		c-0.1,0-0.3,0-0.4,0c-0.3-0.2-0.3-0.4-0.1-0.5c0.4,0,0.7,0.2,0.9,0.4C34.5,40.4,34.4,40.5,34.2,40.5z M35.3,39.6
		c-0.3,0.1-0.6,0-1-0.1c-0.4-0.1-0.7-0.4-1-0.4c0-0.1,0-0.2,0.1-0.3c0.1-0.1,0.1-0.4,0.1-0.4c0.3-0.1,0.8-0.1,1.3,0
		c0.6,0.2,1.3,0.3,1.3,0.4C36.2,38.8,35.5,39.4,35.3,39.6z M36.5,38.2c-0.8,0-1.9-0.2-2.2-0.4c-0.1-0.2,0.3-0.6,0.8-0.8
		c0.6-0.1,1.4,0,1.8,0.2C37,37.5,37,37.9,36.5,38.2z M37.6,36.2c-0.2,0.4-0.8,0.4-1.8,0.4c-0.1,0.1-0.4,0.1-0.4,0
		c0-0.1-0.2-0.3-0.1-0.4c0-0.1,0.2-0.6,0.2-0.6c0.2,0,0.6,0.1,0.9-0.1c0.4-0.2,0.7,0,0.8-0.1C37.5,35.3,37.6,35.7,37.6,36.2z
		 M37.1,33.4c0.1,0.1,0.2,0.1,0.2,0.2c0.3,0.5,0.2,0.9-0.3,1.2c-0.7,0.2-1.1,0.3-1.2,0.2C35.4,34.2,36.2,34,37.1,33.4z M35.7,31.8
		c0.1,0,0.3,0.1,0.6,0.4c0,0.4-0.3,1.1-0.8,1.6c-0.2,0-0.5-0.1-0.5-0.2C34.8,33,35.3,32.4,35.7,31.8z M33.6,31.5
		c0-0.3,0.3-0.5,0.5-0.7c0.4-0.1,0.6,0.1,0.8,0.5c0.1,0.2,0,0.5-0.1,0.7c-0.1,0.3-0.2,0.5-0.3,0.7c-0.2,0.1-0.5,0-0.7-0.3L33.6,31.5
		z M32.2,30.9c0.3-0.1,0.5,0,0.7,0.2c0,0.1,0.2,0.2,0.2,0.4c0,0.2,0,0.6,0,0.7c-0.1,0.1-0.3,0.2-0.4,0.2c-0.4,0.1-0.7-0.4-1-1.2
		C31.9,31.1,32,30.9,32.2,30.9z M34.3,33.6c0.3,0.6,0.5,1,0.6,1.1c0,1.1-0.2,1.8-0.4,2.2c-0.3,0.1-0.6,0.4-1,0.9
		c-0.4,0.4-0.7,0.7-1,0.9c-0.3-0.2-0.6-0.6-0.8-1.1c-0.3-0.7-0.5-1.1-0.7-1.3c-0.4-0.6-0.5-1.2-0.2-1.8c0-0.2,0.1-0.5,0.5-0.9
		C32.6,32.9,33.6,33,34.3,33.6z M29.8,31.9c0.2-0.1,0.3-0.2,0.5-0.3c0.3-0.1,0.5,0,0.7,0.2c0.2,0.2,0.6,0.6,0.8,0.8
		c-0.1,0.1-0.4,0.1-0.6,0.2c-0.2,0-0.7-0.2-1.6-0.4C29.6,32.1,29.6,32,29.8,31.9z M28.7,33.5c0.1-0.2,0.2-0.3,0.2-0.3
		c0.7-0.2,1.4-0.1,1.7,0.1c0,0.6-1,0.5-1.9,0.6C28.6,33.8,28.6,33.7,28.7,33.5z M28.3,36c0,0,0-0.3,0-0.4c0-0.1,0-0.2,0-0.2
		c0-0.9,0.6-0.7,1.1-0.9c0.1,0,0.3,0,0.4,0c0.2,0,0.2,0.1,0.2,0.2c0.1,0.3,0.1,0.6-0.5,0.8c-0.5,0.3-0.8,0.4-0.8,0.4
		C28.5,36.2,28.3,36.1,28.3,36z M28.7,36.9c0.3-0.6,0.9-1,1.6-1.1l0.4,0.5c0.3,0.4-0.2,0.7-0.5,0.9c-0.3,0.3-0.8,0.5-1,0.7
		C28.9,38,28.7,37.3,28.7,36.9z M30,39.5c-0.1,0.1-0.3-0.2-0.3-0.3c-0.1-0.1-0.2-0.3-0.2-0.4c0-0.3,0.4-0.5,0.7-0.7
		c0.4-0.3,0.8-0.7,0.9-0.8C32.2,38,30.6,38.9,30,39.5z M30.8,42.3c0.1,0,0.6,0.5,0.7,0.9c-0.5,0-1.2-0.1-1.2-0.1
		C30.2,43,30.5,42.6,30.8,42.3z M29.8,43.8c0.4-0.1,1.1-0.1,1.9,0c0.1,0.2,0.1,0.3-0.1,0.4c-0.1,0.1-0.1,0.6-0.2,0.7
		c-1.1,0.2-2.1,0.2-2.2-0.2C29.1,44.6,29.5,44.2,29.8,43.8z M28.5,46.3c0.2-0.5,0.7-0.8,1.3-0.8c0.4,0.1,0.6-0.1,0.8-0.1
		c0.4,0.1,0.1,1.1-0.4,1.3c-0.1,0-0.8,0.2-1.3,0.3C28.6,47.1,27.6,47.1,28.5,46.3z M27.8,48.3c0.2-0.5,0.8-0.7,1.9-0.8l0.1,0.1
		c0,0.1,0.2,0.2,0.2,0.2c0,0.4-0.3,0.7-0.8,0.9c-0.7,0.2-1.4,0.7-1.4,0.7C27.6,49.2,27.7,48.6,27.8,48.3z M27.8,51.3
		c0-0.7,0.1-1.1,0.5-1.5c0.3-0.2,0.5-0.4,0.8-0.5c0.4-0.2,0.6-0.1,0.6,0.1c0,0.1,0.1,0.4,0,0.6c-0.6,0.7-1.2,1.4-1.5,1.7
		C27.9,51.8,27.8,51.4,27.8,51.3z M28.7,53.5c-0.1-0.1-0.2-0.2-0.2-0.3c-0.1-0.5,0.2-1.3,1.1-2.1c0.1-0.1,0.3-0.1,0.4,0.1
		c0.1,0.1,0.2,0.5,0.2,0.6c-0.4,0.8-0.6,1.5-0.9,1.9C29.1,53.7,28.8,53.6,28.7,53.5z M31,55.3c0,0.1-0.3,0.1-0.3,0.1
		c-0.4-0.1-0.7-0.4-0.8-0.6c-0.2-0.6-0.1-1.1,0.1-1.5c0.2-0.3,0.3-0.5,0.4-0.5c0.1,0,0.5,0.2,0.6,0.3C31.1,53.2,31,54,31,55.3z
		 M32.7,56.4c-0.2,0.1-0.6-0.1-0.9-0.5c-0.2-0.4-0.2-1,0-1.7c0.4,0,0.7,0.2,0.9,0.5c0.2,0.4,0.4,0.7,0.5,1.1
		C33.3,56,33.1,56.2,32.7,56.4z M30.7,52c0.1-0.3,0-0.6-0.1-0.9c-0.2-0.5-0.3-0.8-0.3-0.8c0-0.2,0-0.4,0.1-0.5
		c-0.1-0.1-0.1-0.2-0.2-0.4c0-0.2,0-0.6,0.2-1c0.2-0.5,0.3-0.8,0.2-1.1c0.4-0.2,0.7-0.7,0.9-1.4c0.2-0.7,0.5-1.2,1-1.4
		c0.4,0.1,0.8,0.4,1.1,1.1c0.3,0.7,0.7,1,1.1,1.1c0,0.4,0.3,0.8,1,1.1c0.6,0.3,1,0.7,1,1.1c0.4,0,0.7,0.3,1.1,0.8
		c0.3,0.5,0.7,0.8,1.1,0.8c0.3,0.2,0.4,0.3,0.5,0.5c0,0.2-0.1,0.5-0.4,0.8c-0.3,0.4-0.4,0.6-0.4,0.7c-0.2,0.1-0.5,0.3-0.9,0.7
		c-0.4,0.3-0.8,0.6-1.1,0.6c-0.2,0-0.4,0-0.6,0c-0.2,0.1-0.3,0.2-0.6,0.3c-0.2,0-0.6,0-1.1-0.1c-0.5-0.1-0.8-0.2-1.1-0.1
		c-0.2,0-0.3,0.1-0.4,0.2C32.2,53.4,31.5,52.8,30.7,52z M35.9,56.1c-0.3,0.3-1,0.3-1.4,0.1c-0.3-0.1-0.4-0.2-0.6-0.5
		c-0.1-0.3-0.2-0.5-0.4-0.8c0-0.1,0-0.2,0-0.3c0-0.1,0.1-0.2,0.2-0.2c0.3-0.2,1-0.1,1.7,0.6c0,0.1,0.2,0.3,0.3,0.4
		C35.9,55.6,35.9,56,35.9,56.1z M37.2,55.6c-0.2,0-0.5-0.2-0.7-0.4c-0.2-0.2-0.4-0.4-0.6-0.6c0-0.2,0.3-0.3,0.9-0.4
		c0.9,0.5,1.3,0.8,1.4,1C38,55.6,37.6,55.7,37.2,55.6z M40.3,54.1c-0.2,0.1-0.3,0.2-0.5,0.3c-0.3,0.1-0.6,0.1-0.9-0.1
		c-0.3-0.1-0.6-0.3-0.9-0.5c-0.2-0.3,0-0.5,0.4-0.7c0,0,0.4,0.1,1.1,0.2c0.4,0.1,0.8,0.2,1,0.3C40.6,53.9,40.5,54,40.3,54.1z
		 M40.1,52.5c-0.1,0-0.3-0.1-0.4-0.1c-0.1-0.1-0.2-0.2-0.2-0.3c0.1-0.2,0.3-0.6,0.6-0.6c0.2,0,0.6,0.1,1,0.1c0.4,0,0.7-0.1,0.9-0.1
		c0.1,0,0.1,0.2,0.2,0.5C41.8,52.4,41,52.7,40.1,52.5z M40.2,50.8c-0.1-0.2,0.4-0.7,0.8-1.1c0.7-0.2,1.3-0.4,1.8-0.5
		c0.3,0.5,0.2,0.9-0.4,1.2C41.8,50.7,40.9,50.9,40.2,50.8z M43.6,52c-0.2,0.1-0.3,0.2-0.4,0.2c-0.2-0.2-0.4-0.5-0.4-0.8
		c0.2-0.4,0.6-1.1,0.8-1.2c0.1,0.1,0.3,0.2,0.3,0.3c0,0.1-0.2,0.6-0.2,0.9C43.6,51.8,43.6,51.9,43.6,52z M44.1,52.4
		c-0.1-0.2,0.1-0.7,0.1-1c0-0.3,0.2-0.6,0.3-0.6c0.1,0,0.6,0.5,0.8,0.8c0,0.6-0.2,1.2-0.2,1.5C44.7,53,44.1,52.8,44.1,52.4z
		 M45.5,53.2c-0.1,0,0.1-1.1,0.1-1.3c0-0.2,0.1-0.5,0.1-0.5s0.3,0.2,0.4,0.3c0.1,0.1,0,0.3-0.1,0.4c-0.1,0.1-0.1,1.2-0.2,1.3
		C45.8,53.5,45.6,53.3,45.5,53.2z M47.5,53.3c-0.1,0.3-0.1,0.6-0.1,0.7c-0.2,0.1-0.7,0-1-0.3c-0.2-0.6,0.1-1.2,0.3-1.6
		c0.5,0.3,0.7,0.4,0.7,0.4C47.4,52.5,47.6,53,47.5,53.3z"/>
	<g>
		<path fill="#FFFFFF" d="M28.9,78.6c0.9-1.7,1.5-2.8,1.8-3.5l0,0c0-0.1,0.1-0.1,0.1-0.1s0.1,0,0.2,0c0,0,0.1,0,0.1,0.1
			c0,0.1,0.1,0.1,0,0.2c-0.2,0.5-0.4,1.4-0.8,2.5c-0.3,1.1-0.6,1.9-0.8,2.5c0,0.1-0.1,0.2-0.2,0.3c-0.1,0-0.1,0-0.1,0
			c-0.1,0-0.1,0-0.1-0.1c0,0,0-0.1,0-0.1l0-0.1c0.1-0.4,0.2-0.6,0.3-0.8c0.1-0.2,0.2-0.5,0.3-0.8c0.1-0.3,0.3-1,0.7-2
			c-0.1,0.1-0.2,0.4-0.4,0.8c-0.2,0.4-0.4,0.6-0.5,0.8c-0.1,0.2-0.2,0.3-0.2,0.4c-0.1,0.1-0.1,0.2-0.2,0.3c0,0.1-0.1,0.2-0.2,0.3
			c-0.1,0.2-0.2,0.3-0.3,0.2c-0.1,0-0.1-0.3,0-0.7c0-0.2,0.1-0.7,0.2-1.4c0.1-0.7,0.2-1.2,0.2-1.4c-0.1,0.4-0.3,0.7-0.3,1l-0.9,2.9
			c0,0.1-0.1,0.2-0.2,0.2c-0.1,0-0.2-0.1-0.2-0.2c0-0.1,0-0.2,0-0.3l0.4-1.1l0.9-2.7c0.1-0.3,0.2-0.6,0.3-0.9l0.2,0
			c0.1,0.1,0.1,0.5,0,1.4c-0.1,0.7-0.2,1.3-0.3,1.8C28.9,78.3,28.9,78.6,28.9,78.6z"/>
		<path fill="#FFFFFF" d="M33.7,75.9c-0.1,0.7-0.1,1.6-0.3,2.7c-0.1,1.1-0.3,1.9-0.4,2.5c0,0.2-0.1,0.2-0.3,0.2
			c-0.2,0-0.2-0.1-0.2-0.2l0.2-0.9c-0.1-0.1-0.2-0.1-0.3-0.2c-0.2-0.1-0.3-0.1-0.4-0.2c-0.1,0.1-0.2,0.3-0.3,0.6
			c-0.1,0.3-0.2,0.5-0.3,0.6c-0.2,0-0.3-0.1-0.3-0.2c0.1-0.1,0.6-1.1,1.3-2.8c0.3-0.7,0.5-1.1,0.5-1.2c0.3-0.6,0.5-0.9,0.6-0.8
			C33.6,75.8,33.7,75.8,33.7,75.9L33.7,75.9z M32.9,79.6c0-0.1,0-0.3,0.1-0.8c0.1-1.1,0.2-1.7,0.2-1.9s0-0.2,0-0.2
			c0,0-0.2,0.3-0.4,1c-0.2,0.6-0.4,0.9-0.4,1c0,0.1-0.1,0.1-0.1,0.2c-0.1,0.2-0.2,0.3-0.2,0.4c0.2,0.1,0.3,0.2,0.5,0.2
			C32.7,79.6,32.8,79.6,32.9,79.6z"/>
		<path fill="#FFFFFF" d="M35.6,81l0,0.4l0,0.2c0,0.1,0,0.1-0.1,0.1c0,0-0.1,0-0.1,0c-0.1,0-0.1,0-0.1-0.1c0,0,0-0.1,0-0.1l0.2-1.4
			c0-0.1,0-0.4,0-0.6c0-0.3,0-0.5,0-0.7c0-0.2,0-0.4,0-0.6c0-0.2-0.1-0.5-0.1-0.7c-0.1-0.5-0.2-1-0.1-1.3c0-0.1,0.1-0.1,0.2-0.1
			c0,0,0.1,0,0.1,0.1c0,0,0,0.1,0,0.1c0,0.6,0,1.2,0.1,1.8c0,0,0-0.1,0.1-0.3c0-0.2,0.1-0.3,0.1-0.5c0-0.2,0.1-0.3,0.1-0.5
			c0.1-0.4,0.2-0.6,0.4-0.5c0.1,0,0.2,0.1,0.2,0.1c0,0.3-0.1,0.7-0.3,1.2c-0.2,0.5-0.3,0.9-0.3,1.2l0,0.3l0,0.1L35.6,81z"/>
		<path fill="#FFFFFF" d="M40.3,81.5c0.1,0,0.2,0,0.3,0l0,0c0.2,0,0.3,0.1,0.3,0.2c0,0.1-0.3,0.2-0.8,0.2l-0.2,0c-0.1,0-0.2,0-0.2,0
			c-0.1,0-0.1-0.1-0.1-0.2l0-0.2c0.2,0,0.2,0,0.3,0c0.1,0,0.2,0,0.2-0.1c0-0.7-0.1-1.7-0.2-2.9c0-0.1,0-0.2,0-0.4
			c0-0.4-0.1-0.7-0.1-0.9l0-0.3c0-0.2-0.1-0.3-0.3-0.3l-0.2,0c-0.1,0-0.2-0.1-0.2-0.2c0-0.1,0.2-0.2,0.6-0.2c0.2,0,0.3,0,0.3,0.1
			c0,0,0,0.1,0,0.2c0,0.1,0,0.2,0,0.3c0,0.1,0,0.3,0.1,0.6c0,0.3,0.1,0.6,0.1,0.8c0,0.3,0,0.8,0.1,1.5
			C40.3,80.5,40.3,81.1,40.3,81.5L40.3,81.5z"/>
		<path fill="#FFFFFF" d="M43.5,81.5c0,0.1-0.1,0.1-0.2,0.1c-0.1,0-0.2,0.1-0.3,0.1c-0.1,0-0.2,0-0.3-0.1c-0.1,0-0.1-0.1-0.2-0.2
			c0-0.1-0.1-0.2-0.1-0.3c0-0.1-0.1-0.2-0.1-0.3c0-0.1,0-0.2,0-0.3c0-0.1,0-0.2,0-0.3c-0.1-0.6-0.2-1.2-0.3-1.7
			c-0.2-1.7,0-2.5,0.5-2.6c0,0,0.1,0,0.1,0c0,0,0.1,0.1,0.1,0.1c0,0.1,0,0.1-0.1,0.1c-0.1,0-0.1,0.1-0.2,0.1
			c-0.1,0.1-0.1,0.4-0.1,0.8c0,0.4,0,0.8,0,1.1c0,0,0.1,0,0.2,0c0.1,0,0.2,0,0.3,0.1c0.1,0.1,0.2,0.2,0.2,0.3
			c0.1,0.1,0.1,0.2,0.2,0.4c0.1,0.2,0.1,0.3,0.1,0.5c0,0.1,0.1,0.3,0.1,0.5c0,0.2,0.1,0.5,0.1,0.6c0,0.2,0,0.3,0,0.4
			c0,0.1,0,0.2,0,0.2C43.6,81.4,43.6,81.5,43.5,81.5z M43.1,79.8c-0.2-0.8-0.3-1.2-0.5-1.2c-0.1,0.1-0.1,0.1-0.1,0.2
			c0,0.1,0,0.1,0,0.2c0,0.5,0.2,1.1,0.4,2c0,0,0,0,0,0.1c0,0.1,0,0.1,0,0.1s0,0.1,0,0.1c0,0,0,0.1,0.1,0.1c0,0,0.1,0.1,0.2,0.1
			c0.1,0,0.2-0.2,0.1-0.5C43.2,80.6,43.2,80.3,43.1,79.8z"/>
		<path fill="#FFFFFF" d="M45.4,77.1l0.1,0.9c0.1,0.4,0.2,0.8,0.3,1.1l0,0c0,0.2,0,0.3,0,0.6l0.3,1.3c0,0.2,0,0.4-0.1,0.4
			c-0.1,0-0.1,0-0.2-0.1c0-0.1-0.1-0.1-0.1-0.2l-0.1-1.2c0-0.2-0.1-0.6-0.2-1.1c-0.1-0.5-0.2-0.9-0.2-1.1L45,77.1
			c-0.1-0.3-0.1-0.6-0.2-0.7l-0.4,0.1c-0.1,0-0.1,0-0.2,0c-0.1,0-0.1-0.1-0.1-0.1c0-0.1,0-0.1,0.1-0.2c0.1-0.1,0.2-0.1,0.4-0.2
			c0.3-0.1,0.5-0.1,0.7-0.2c0.1,0,0.1,0,0.2,0c0.1,0,0.1,0.1,0.1,0.1c0,0.1,0,0.1,0,0.1c0,0-0.1,0.1-0.1,0.1l-0.3,0c0,0-0.1,0-0.1,0
			C45.2,76.5,45.3,76.8,45.4,77.1z"/>
		<path fill="#FFFFFF" d="M48.3,77.8l-0.7-2.3c0,0,0-0.1,0-0.1c0-0.1,0.1-0.1,0.1-0.1c0,0,0.1,0,0.2,0.1c0.1,0.1,0.1,0.2,0.2,0.4
			c0.1,0.5,0.4,1.3,0.7,2.3c0.3,1,0.5,1.8,0.7,2.3c0,0.1,0,0.1,0,0.2c0,0.1-0.1,0.1-0.1,0.1c-0.1,0-0.2,0-0.2-0.2
			c-0.2-0.9-0.5-1.7-0.7-2.5c-0.1,0-0.3,0-0.4,0.1c-0.1,0-0.2,0.1-0.3,0.1c0.1,0.3,0.2,0.6,0.4,1.2c0.2,0.5,0.3,0.9,0.4,1.2
			c0,0,0,0.1,0,0.1c0,0,0,0.1-0.1,0.1c-0.1,0-0.1,0-0.2-0.1c-0.1-0.1-0.1-0.2-0.2-0.5c-0.1-0.3-0.2-0.6-0.2-0.9
			c-0.1-0.3-0.1-0.5-0.2-0.6c-0.4-1.2-0.7-2.2-0.9-3.1l0-0.1c0-0.1,0-0.1,0.1-0.1c0.1,0,0.2,0,0.3,0.1c0,0.2,0.1,0.3,0.1,0.5
			l0.4,1.4l0.1,0.3c0,0.1,0,0.1,0.1,0.2L48.3,77.8z"/>
		<path fill="#FFFFFF" d="M51.8,79.5L51.8,79.5c0,0.2,0.1,0.3,0,0.5c0,0.2,0,0.3-0.1,0.5c-0.1,0.1-0.1,0.2-0.2,0.3l-0.2,0.1
			l-0.1-0.2c0,0,0-0.1,0.1-0.2c0.1-0.2,0.2-0.3,0.1-0.4c-0.2-0.1-0.3-0.1-0.3-0.2c0-0.1,0-0.2,0-0.3c0.1-0.1,0.1-0.1,0.2-0.2
			c0.1,0,0.2,0,0.2,0C51.6,79.3,51.7,79.4,51.8,79.5L51.8,79.5z"/>
		<path fill="#FFFFFF" d="M56.2,77.9l-1,0.6c-0.1,0-0.1,0-0.2,0c-0.1,0-0.1,0-0.1-0.1l0,0c0-0.2,0-0.3,0-0.5c0-0.2,0-0.3,0-0.4
			c0-0.7-0.1-1.3-0.2-1.8c-0.1-0.5-0.3-1-0.6-1.6c-0.3-0.5-0.5-0.8-0.7-0.7c-0.1,0.1,0,0.2,0,0.4c0.1,0.2,0,0.3-0.1,0.3
			c-0.1,0.1-0.2,0-0.3-0.1c-0.1-0.2-0.1-0.4-0.1-0.6c0-0.1,0.1-0.2,0.2-0.2l0,0c0.2-0.1,0.4-0.1,0.6,0c0.1,0.1,0.2,0.1,0.3,0.2
			c0.1,0.1,0.1,0.1,0.1,0.2c0,0,0.1,0.1,0.1,0.2c0.1,0.1,0.1,0.2,0.2,0.3c0.2,0.4,0.3,0.8,0.5,1.3c0.1,0.5,0.2,1,0.2,1.4
			c0,0.1,0,0.3,0,0.6s0,0.6,0,0.7c0.2-0.2,0.5-0.3,0.7-0.4l0.3,0.1L56.2,77.9z"/>
		<path fill="#FFFFFF" d="M55.5,73.3c-0.2-0.3-0.3-0.6-0.4-0.8c0-0.2,0-0.3,0.1-0.4c0-0.1,0.1-0.1,0.2-0.1c0.1,0,0.2-0.1,0.3-0.1
			c0.1,0,0.2,0,0.2,0c0.1,0,0.1,0,0.2,0c0.1,0,0.1,0,0.1,0.1s0.1,0,0.1,0.1c0,0,0.1,0.1,0.1,0.1c0,0,0.1,0.1,0.1,0.1
			s0.1,0.1,0.1,0.1c0.1,0.1,0.2,0.2,0.2,0.3c0,0,0.1,0.1,0.2,0.3c0.1,0.1,0.2,0.3,0.3,0.3c0.1,0.1,0.1,0.2,0.2,0.3s0.2,0.2,0.3,0.3
			c0.2,0.2,0.3,0.4,0.4,0.7c0.6,1,0.7,1.7,0.3,2c-0.1,0.1-0.2,0.1-0.4,0c-0.1,0-0.3-0.1-0.4-0.3c-0.2-0.1-0.3-0.3-0.4-0.4
			c-0.1-0.2-0.3-0.3-0.4-0.5c-0.2-0.3-0.4-0.6-0.5-0.8L55.5,73.3z M56.2,73.8l0.4,0.6c0.2,0.3,0.4,0.7,0.7,1c0.5,0.7,0.9,0.9,1,0.8
			c0.1,0,0.1-0.1,0.1-0.3c0-0.2-0.1-0.3-0.2-0.5c-0.2-0.4-0.3-0.6-0.4-0.8c-0.3-0.4-0.8-1.1-1.5-1.9c-0.2-0.2-0.3-0.3-0.4-0.4
			c-0.1-0.1-0.2-0.1-0.3,0c-0.1,0-0.1,0.1-0.1,0.2c0,0.1,0,0.2,0.1,0.3L56.2,73.8z"/>
		<path fill="#FFFFFF" d="M61.1,74.4c0.1-0.1,0.1-0.1,0.2-0.2l0,0c0.2-0.1,0.3-0.1,0.4,0c0.1,0.1-0.1,0.3-0.5,0.7L61,74.9
			C60.9,75,60.8,75,60.8,75c-0.1,0-0.1,0-0.2-0.1l-0.1-0.1c0.1-0.1,0.2-0.1,0.2-0.1c0.1-0.1,0.1-0.1,0.1-0.2c-0.4-0.6-1-1.3-1.8-2.2
			c-0.1-0.1-0.2-0.2-0.3-0.3c-0.3-0.3-0.5-0.5-0.6-0.7L58,71c-0.1-0.2-0.3-0.2-0.4-0.1L57.4,71c-0.1,0.1-0.2,0.1-0.3,0
			c-0.1-0.1,0-0.3,0.4-0.5c0.1-0.1,0.2-0.1,0.3-0.1c0,0,0,0.1,0.1,0.1s0.1,0.1,0.2,0.2c0,0.1,0.2,0.2,0.4,0.4
			c0.2,0.2,0.4,0.4,0.5,0.6c0.2,0.2,0.5,0.6,1,1.2C60.5,73.6,60.9,74,61.1,74.4L61.1,74.4z"/>
		<path fill="#FFFFFF" d="M61.2,70.6l-0.1,0.2c-0.1,0.1-0.2,0.1-0.3,0c-0.1,0-0.1-0.1-0.2-0.2l-0.2-0.3c-0.2-0.2-0.6-0.6-1.1-1
			l0-0.2l0.4-0.4c0.1-0.1,0.2-0.1,0.2-0.1c0,0,0.1,0,0.1,0.1l0,0l0,0.2L59.9,69l0,0l-0.3,0.2c0.2,0.2,0.6,0.6,1.2,1.2
			c0,0,0,0,0.1-0.1c0.1,0,0.1-0.1,0.1-0.1c0.1-0.1,0.2-0.1,0.3-0.1c0.1,0,0.3,0.1,0.5,0.2c0.4,0.2,0.7,0.5,1,0.9
			c0.3,0.3,0.4,0.5,0.5,0.6c0,0.1,0.1,0.2,0.1,0.3c0,0.1,0.1,0.2,0.1,0.2c0,0.2,0,0.4,0,0.6L63.6,73c-0.2,0.2-0.3,0.2-0.4,0.1
			c0,0,0-0.1,0-0.1c0-0.1,0-0.1,0.1-0.1c0,0,0.1-0.1,0.2-0.1c0.1-0.1,0-0.3-0.1-0.5c-0.1-0.2-0.2-0.4-0.3-0.5
			c-0.2-0.2-0.4-0.4-0.7-0.7c-0.5-0.5-0.9-0.7-1-0.6L61.2,70.6L61.2,70.6z"/>
	</g>
	<g>
		<path fill="#FFFFFF" d="M25.9,9.3c-0.3,0.4-0.5,0.9-0.7,1.3c-0.2,0.4-0.5,0.9-0.6,1.4c-0.1,0.4,0.5,0.7,0.7,0.2
			c0.1-0.4,0.4-0.9,0.6-1.3c0.2-0.4,0.4-0.9,0.7-1.2C26.7,9.3,26.1,8.9,25.9,9.3L25.9,9.3z"/>
		<path fill="#FFFFFF" d="M25.8,9.6c-0.3-1.2-0.2-2.8,1-3.5c0.7-0.4,1.6-0.6,2.1-1.2c0.3-0.3-0.2-0.9-0.5-0.5c-0.8,0.9-2.3,0.9-3,2
			c-0.7,1-0.8,2.3-0.5,3.4C25.2,10.2,25.9,10.1,25.8,9.6L25.8,9.6z"/>
		<path fill="#FFFFFF" d="M28.4,4.7c0.1,0.4,0.2,0.8,0.3,1.2c0.3,0.9,0,1.6-0.3,2.4c-0.1,0.5-0.2,0.9-0.6,1.2
			c-0.6,0.5-1.5,0.4-2.2,0.4c-0.4,0-0.5,0.6-0.1,0.7c1.1,0.1,3,0,3.4-1.3c0.2-0.7,0.5-1.6,0.6-2.4c0.1-0.8-0.2-1.6-0.4-2.4
			C28.9,4.1,28.3,4.2,28.4,4.7L28.4,4.7z"/>
		<path fill="#FFFFFF" d="M27,7.1c-0.1,0.3-0.2,0.5-0.3,0.8c-0.1,0.2-0.3,0.4-0.5,0.6c-0.3,0.4-0.3,0.9-0.5,1.3
			c-0.2,0.4,0.5,0.6,0.7,0.2c0.1-0.2,0.1-0.5,0.2-0.7c0.1-0.3,0.3-0.4,0.4-0.7c0.4-0.4,0.5-0.9,0.7-1.4C27.9,6.9,27.2,6.7,27,7.1
			L27,7.1z"/>
	</g>
	<g>
		<path fill="#FFFFFF" d="M16.9,19.9c-0.3-0.1-0.7,0-1,0c-0.4,0-0.8,0-1.1,0.1c-0.4,0.1-0.3,0.7,0.1,0.6c0.3-0.1,0.6-0.1,1-0.1
			c0.3,0,0.6-0.1,0.9,0C17.2,20.6,17.4,20,16.9,19.9L16.9,19.9z"/>
		<path fill="#FFFFFF" d="M17.2,20.2c0.8-0.8,2.2-1.3,3.3-0.7c0.7,0.4,1.2,1.1,2,1.3c0.4,0.1,0.6-0.5,0.2-0.6
			c-1.2-0.3-1.8-1.5-3.1-1.6c-1.1,0-2.1,0.4-2.9,1.1C16.5,20,16.9,20.5,17.2,20.2L17.2,20.2z"/>
		<path fill="#FFFFFF" d="M22.4,20.3c-0.3,0.3-0.6,0.5-0.9,0.8c-0.7,0.6-1.3,0.7-2.1,0.8c-0.5,0.1-0.8,0.3-1.2,0
			c-0.7-0.4-1-1-1.2-1.7c-0.2-0.4-0.7-0.1-0.6,0.3c0.4,1,1.3,2.5,2.6,2.2c0.7-0.2,1.5-0.3,2.2-0.6c0.7-0.3,1.2-0.9,1.7-1.4
			C23.1,20.5,22.7,20,22.4,20.3L22.4,20.3z"/>
		<path fill="#FFFFFF" d="M19.9,20.2c-0.2,0-0.4,0-0.7,0.1c-0.3,0-0.6-0.1-0.9-0.1c-0.5-0.1-0.9,0.1-1.3,0.1c-0.4,0-0.3,0.7,0.1,0.6
			c0.2,0,0.4-0.1,0.6-0.1c0.3-0.1,0.6,0,0.9,0.1c0.4,0.1,0.8,0,1.3,0C20.2,20.8,20.3,20.2,19.9,20.2L19.9,20.2z"/>
	</g>
	<g>
		<path fill="#FFFFFF" d="M5,26.8c0.1,0.3,0.3,0.6,0.5,0.9c0.2,0.3,0.4,0.6,0.6,0.8c0.3,0.3,0.7-0.2,0.5-0.4
			c-0.2-0.2-0.4-0.5-0.5-0.7c-0.2-0.3-0.4-0.5-0.5-0.8C5.5,26.3,4.9,26.4,5,26.8L5,26.8z"/>
		<path fill="#FFFFFF" d="M5.2,26.4c-1-0.3-2-1.1-2.1-2.2c-0.1-0.9,0.3-1.7,0.1-2.6c-0.1-0.4-0.7-0.2-0.6,0.2
			C2.8,23,2,24.1,2.8,25.3C3.3,26.2,4.1,26.7,5,27C5.4,27.1,5.6,26.5,5.2,26.4L5.2,26.4z"/>
		<path fill="#FFFFFF" d="M2.7,22c1,0.3,1.9,0.7,2.6,1.5c0.3,0.4,0.8,0.8,0.8,1.3c0.1,0.7-0.4,1.3-0.8,1.8C5.1,27,5.6,27.3,5.9,27
			c0.7-0.9,1.4-2.4,0.5-3.3c-0.5-0.5-0.9-1.1-1.5-1.6c-0.5-0.4-1.3-0.5-1.9-0.7C2.5,21.3,2.3,21.9,2.7,22L2.7,22z"/>
		<path fill="#FFFFFF" d="M3.9,24.2c0.1,0.2,0.3,0.4,0.4,0.5c0.2,0.3,0.2,0.5,0.3,0.8c0.1,0.4,0.5,0.6,0.7,1c0.2,0.3,0.8,0,0.5-0.3
			c-0.1-0.2-0.2-0.3-0.4-0.4c-0.2-0.2-0.3-0.4-0.4-0.7c-0.1-0.5-0.4-0.8-0.7-1.2C4.2,23.5,3.6,23.8,3.9,24.2L3.9,24.2z"/>
	</g>
	<g>
		<path fill="#FFFFFF" d="M46.9,6.1c0.2,0.5,0.5,0.9,0.7,1.4c0.2,0.4,0.4,0.8,0.7,1.1c0.3,0.3,0.8-0.1,0.5-0.4
			c-0.3-0.3-0.5-0.8-0.7-1.1c-0.2-0.4-0.5-0.8-0.6-1.2C47.4,5.4,46.8,5.7,46.9,6.1L46.9,6.1z"/>
		<path fill="#FFFFFF" d="M47.1,6.3c-1-0.4-2-1.1-2.2-2.2c-0.2-0.9,0.3-1.9,0.1-2.8C45,0.8,44.3,1,44.4,1.4c0.3,1.3-0.5,2.5,0.2,3.7
			C45.2,6,46,6.6,46.9,6.9C47.3,7,47.5,6.4,47.1,6.3L47.1,6.3z"/>
		<path fill="#FFFFFF" d="M44.6,1.6c1.1,0.4,2,0.7,2.7,1.6C47.6,3.6,48,4,48.1,4.4c0.2,0.8-0.4,1.6-0.9,2.2C47,6.9,47.6,7.3,47.8,7
			c0.8-1,1.6-2.4,0.6-3.5c-0.5-0.5-0.9-1.2-1.5-1.7c-0.5-0.4-1.3-0.5-2-0.8C44.5,0.9,44.2,1.5,44.6,1.6L44.6,1.6z"/>
		<path fill="#FFFFFF" d="M45.8,3.9c0.1,0.2,0.3,0.4,0.5,0.7c0.1,0.2,0.2,0.5,0.3,0.7c0.1,0.5,0.5,0.7,0.7,1.1
			c0.2,0.3,0.8,0.1,0.6-0.3c-0.1-0.2-0.3-0.3-0.4-0.5c-0.2-0.2-0.3-0.4-0.3-0.7c-0.1-0.5-0.4-0.8-0.7-1.3
			C46.2,3.3,45.6,3.6,45.8,3.9L45.8,3.9z"/>
	</g>
	<g>
		<path fill="#FFFFFF" d="M56.2,16.3c0.8,0.1,1.7-0.1,2.4-0.4c0.4-0.2,0.1-0.8-0.3-0.6c-0.6,0.2-1.4,0.3-2,0.3
			C55.8,15.6,55.7,16.3,56.2,16.3L56.2,16.3z"/>
		<path fill="#FFFFFF" d="M55.8,15.9c-0.9,1-2.2,1.6-3.6,1.1c-0.8-0.3-1.4-1-2.3-1.2c-0.4-0.1-0.7,0.6-0.2,0.7
			c1.3,0.3,2.1,1.5,3.6,1.4c1.2-0.1,2.2-0.6,3-1.5C56.6,16.1,56.1,15.6,55.8,15.9L55.8,15.9z"/>
		<path fill="#FFFFFF" d="M50.1,16.5c0.3-0.3,0.6-0.6,0.9-0.9c0.7-0.7,1.2-0.8,2.1-1.1c1.5-0.5,2.4,0.1,3.1,1.5
			c0.2,0.4,0.8,0.1,0.6-0.3c-0.6-1.1-1.6-2.5-3-2.2c-0.7,0.2-1.5,0.5-2.1,0.7c-0.9,0.4-1.3,1.1-2,1.8C49.3,16.3,49.8,16.8,50.1,16.5
			L50.1,16.5z"/>
		<path fill="#FFFFFF" d="M53,16.3c0.3,0,0.5-0.1,0.8-0.2c0.3,0,0.6,0.1,1,0.1c0.5,0,0.9-0.2,1.3-0.3c0.4-0.1,0.3-0.8-0.2-0.7
			c-0.2,0-0.4,0.1-0.7,0.2c-0.3,0.1-0.6,0-0.9,0c-0.5-0.1-1,0.1-1.5,0.2C52.4,15.6,52.5,16.3,53,16.3L53,16.3z"/>
	</g>
	<g>
		<path fill="#FFFFFF" d="M66.3,16.6c-0.1,0.3-0.1,0.7-0.1,1c0,0.4,0,0.8,0.1,1.1c0.1,0.4,0.7,0.3,0.6-0.1c-0.1-0.3-0.1-0.6-0.1-1
			c0-0.3,0-0.6,0-0.9C67,16.4,66.4,16.2,66.3,16.6L66.3,16.6z"/>
		<path fill="#FFFFFF" d="M66.6,16.3c-0.7-0.9-1.3-2.2-0.6-3.3c0.4-0.7,1.1-1.2,1.3-2c0.1-0.4-0.5-0.6-0.6-0.2
			c-0.3,1.2-1.6,1.7-1.7,3c-0.1,1.1,0.3,2.1,1,2.9C66.4,17.1,66.9,16.7,66.6,16.3L66.6,16.3z"/>
		<path fill="#FFFFFF" d="M66.8,11.2c0.2,0.3,0.5,0.6,0.8,0.9c0.5,0.7,0.6,1.3,0.8,2.2c0.1,0.5,0.3,0.8,0,1.2
			c-0.4,0.7-1,0.9-1.7,1.2c-0.4,0.1-0.1,0.7,0.3,0.6c1-0.4,2.5-1.2,2.2-2.5c-0.1-0.7-0.2-1.5-0.5-2.3c-0.2-0.7-0.9-1.2-1.3-1.7
			C67,10.4,66.5,10.9,66.8,11.2L66.8,11.2z"/>
		<path fill="#FFFFFF" d="M66.6,13.7c0,0.2,0,0.4,0,0.7c0,0.3-0.1,0.6-0.1,0.9c-0.1,0.5,0.1,0.9,0.1,1.4c0,0.4,0.7,0.3,0.6-0.1
			c0-0.2-0.1-0.4-0.1-0.6c-0.1-0.3,0.1-0.6,0.1-0.9c0.1-0.4,0-0.8,0-1.3C67.3,13.3,66.6,13.3,66.6,13.7L66.6,13.7z"/>
	</g>
	<g>
		<path fill="#FFFFFF" d="M13.4,71.7c0.4,0.1,0.7,0.1,1.1,0.1c0.4,0,0.7,0,1.1-0.1c0.4-0.1,0.3-0.7-0.1-0.6
			c-0.3,0.1-0.6,0.1-0.9,0.1c-0.3,0-0.6,0-0.9,0C13.1,71,13,71.6,13.4,71.7L13.4,71.7z"/>
		<path fill="#FFFFFF" d="M13.1,71.4c-0.8,0.7-2,1.1-3,0.7c-0.8-0.4-1.3-1.1-2.2-1.4c-0.4-0.1-0.6,0.5-0.2,0.6
			c1.2,0.4,1.8,1.6,3.2,1.6c1,0,1.8-0.4,2.6-1C13.8,71.6,13.4,71.1,13.1,71.4L13.1,71.4z"/>
		<path fill="#FFFFFF" d="M8.1,71.2c0.8-0.7,1.6-1.3,2.7-1.5c0.5-0.1,1-0.2,1.5,0c0.7,0.3,0.9,1,1.1,1.7c0.1,0.4,0.7,0.1,0.6-0.3
			c-0.4-1.1-1.3-2.5-2.6-2.1c-0.7,0.2-1.4,0.2-2.1,0.5c-0.6,0.2-1.1,0.9-1.6,1.3C7.3,71,7.8,71.5,8.1,71.2L8.1,71.2z"/>
		<path fill="#FFFFFF" d="M10.5,71.3c0.2,0,0.4,0,0.7,0c0.3,0,0.6,0.1,0.9,0.1c0.4,0.1,0.8-0.1,1.2-0.1c0.4,0,0.4-0.6,0-0.6
			c-0.2,0-0.4,0-0.5,0.1c-0.3,0.1-0.5,0-0.8,0c-0.5-0.1-0.9-0.1-1.4,0C10.1,70.7,10.1,71.4,10.5,71.3L10.5,71.3z"/>
	</g>
	<g>
		<path fill="#FFFFFF" d="M74.3,59.1c-0.7,0.2-1.5,0.7-2.1,1.2c-0.3,0.3,0.2,0.8,0.5,0.5c0.5-0.4,1.2-0.8,1.8-1
			C74.9,59.6,74.7,59,74.3,59.1L74.3,59.1z"/>
		<path fill="#FFFFFF" d="M74.7,59.3c0.5-1.2,1.5-2.4,2.9-2.3c0.9,0,1.7,0.4,2.6,0.2c0.4-0.1,0.4-0.8,0-0.7c-1.3,0.3-2.5-0.6-3.8,0
			c-1.1,0.5-1.8,1.4-2.2,2.5C73.9,59.5,74.6,59.8,74.7,59.3L74.7,59.3z"/>
		<path fill="#FFFFFF" d="M79.8,56.7c-0.2,0.4-0.3,0.8-0.5,1.2c-0.4,0.9-0.8,1.2-1.5,1.8c-1.2,1-2.2,0.8-3.4-0.2
			c-0.3-0.3-0.8,0.2-0.5,0.5c0.9,0.8,2.4,1.7,3.6,0.9c0.6-0.4,1.2-1,1.7-1.5c0.7-0.7,0.8-1.5,1.2-2.4C80.6,56.6,80,56.3,79.8,56.7
			L79.8,56.7z"/>
		<path fill="#FFFFFF" d="M77.3,58c-0.2,0.1-0.5,0.3-0.7,0.5c-0.3,0.2-0.6,0.2-0.9,0.3c-0.5,0.2-0.7,0.5-1.1,0.8
			c-0.4,0.2,0,0.8,0.4,0.6c0.2-0.1,0.4-0.3,0.6-0.4c0.3-0.2,0.5-0.2,0.8-0.3c0.5-0.1,0.9-0.4,1.4-0.7C78.1,58.3,77.7,57.7,77.3,58
			L77.3,58z"/>
	</g>
	<g>
		<path fill="#FFFFFF" d="M13.1,63c-0.2,0.3-0.2,0.7-0.3,1.1c-0.1,0.4-0.2,0.7-0.2,1.1c0,0.3,0.5,0.4,0.5,0.1c0-0.3,0.1-0.7,0.2-1
			c0.1-0.3,0.2-0.7,0.3-1C13.7,62.9,13.2,62.7,13.1,63L13.1,63z"/>
		<path fill="#FFFFFF" d="M13.1,63.3c-0.4-0.8-0.6-2,0.2-2.7c0.5-0.4,1-0.7,1.4-1.2c0.2-0.3-0.3-0.6-0.4-0.3c-0.4,0.8-1.5,1-1.8,1.9
			c-0.3,0.9-0.2,1.8,0.2,2.6C12.8,63.8,13.2,63.6,13.1,63.3L13.1,63.3z"/>
		<path fill="#FFFFFF" d="M14.2,59.3c0.1,0.3,0.3,0.6,0.4,0.9c0.3,0.6,0.2,1.1,0.2,1.8c0,0.4,0,0.7-0.2,1c-0.4,0.5-1,0.6-1.6,0.6
			c-0.3,0-0.3,0.6,0.1,0.5c0.8-0.1,2.2-0.5,2.2-1.5c0-0.6,0.1-1.2,0-1.8c0-0.6-0.4-1.1-0.7-1.7C14.5,58.8,14,59,14.2,59.3L14.2,59.3
			z"/>
		<path fill="#FFFFFF" d="M13.6,61.3c0,0.2-0.1,0.4-0.1,0.6c-0.1,0.2-0.2,0.4-0.3,0.5c-0.2,0.3-0.1,0.7-0.2,1
			c-0.1,0.3,0.5,0.4,0.5,0.1c0-0.2,0-0.4,0-0.6c0-0.2,0.1-0.4,0.2-0.5c0.2-0.4,0.2-0.7,0.3-1.1C14.2,61,13.6,61,13.6,61.3L13.6,61.3
			z"/>
	</g>
	<g>
		<path fill="#FFFFFF" d="M71.9,52.6c0.1,0.3,0.4,0.7,0.6,1c0.2,0.3,0.4,0.7,0.6,0.9c0.2,0.2,0.6-0.1,0.4-0.3
			c-0.2-0.2-0.4-0.6-0.6-0.9c-0.2-0.3-0.4-0.6-0.5-0.9C72.3,52.1,71.8,52.3,71.9,52.6L71.9,52.6z"/>
		<path fill="#FFFFFF" d="M72.1,52.8c-0.9-0.3-1.9-1-1.9-2c0-0.6,0.2-1.2,0-1.8c-0.1-0.3-0.6-0.2-0.5,0.1c0.3,0.9-0.3,1.8,0.1,2.6
			c0.4,0.8,1.2,1.3,2,1.6C72.3,53.4,72.4,52.9,72.1,52.8L72.1,52.8z"/>
		<path fill="#FFFFFF" d="M69.9,49.3c0.3,0.1,0.6,0.2,0.9,0.3c0.7,0.2,1,0.6,1.5,1.1c0.3,0.3,0.5,0.4,0.5,0.8
			c0.1,0.6-0.3,1.1-0.6,1.6c-0.2,0.3,0.2,0.6,0.4,0.3c0.5-0.7,1.1-1.9,0.5-2.6c-0.4-0.4-0.8-0.9-1.3-1.3c-0.5-0.4-1.1-0.5-1.7-0.6
			C69.8,48.7,69.6,49.2,69.9,49.3L69.9,49.3z"/>
		<path fill="#FFFFFF" d="M71,51.1c0.1,0.2,0.3,0.3,0.4,0.5c0.1,0.2,0.1,0.4,0.2,0.6c0.1,0.4,0.4,0.5,0.6,0.8
			c0.2,0.3,0.6-0.1,0.4-0.3c-0.1-0.2-0.3-0.3-0.4-0.4c-0.1-0.2-0.2-0.3-0.2-0.5c-0.1-0.4-0.4-0.6-0.6-1C71.2,50.5,70.8,50.8,71,51.1
			L71,51.1z"/>
	</g>
</g>
<g>
	<g>
		<path fill="#35302E" d="M47.9,41.6l-0.5-2.7c-0.2-1-0.3-1.7-0.4-1.9c-0.1-0.2-0.2-0.5-0.2-0.6c-0.1-0.2-0.1-0.3-0.1-0.4
			c0-0.1,0-0.2,0.1-0.3c0.1-0.1,0.1-0.2,0.3-0.2c0.4-0.1,0.6,0.3,0.7,1.1c0,0,0.2,1,0.5,2.9c0-0.1,0.1-0.3,0.1-0.7
			c0.1-0.4,0.1-0.8,0.2-1.2c0.1-0.4,0.2-0.9,0.3-1.3c0.2-1,0.4-1.5,0.6-1.6c0.1,0,0.2,0,0.3,0.1c0.1,0.1,0.2,0.1,0.2,0.2
			s-0.1,0.7-0.4,1.9C49.1,38,49,38.7,49,39l0,0.3c0.2,0.3,0.8,1.4,1.8,3.3c1,1.8,1.5,2.8,1.5,2.9c0,0.1,0,0.2-0.1,0.3
			c-0.1,0.1-0.2,0.2-0.3,0.2l-0.3,0c-0.5-1.3-0.9-2.4-1.4-3.4c-0.4-1-0.9-1.8-1.5-2.7c-0.2,0.6-0.3,0.9-0.3,1c0,0.3,0,0.5,0.1,0.7
			l0.6,2.6c0.2,1.3,0.2,2-0.1,2c-0.3,0.1-0.5-0.2-0.6-0.6c-0.1-0.5-0.2-1.2-0.3-2C48.1,42.7,48,42,47.9,41.6z"/>
		<path fill="#35302E" d="M56.6,42.3l0,0.3c0,0.1,0.1,0.4,0.3,0.8c0.2,0.4,0.3,0.7,0.3,0.9l0,0c0,0.2,0,0.4-0.1,0.4
			c-0.2,0-0.4,0-0.5,0c-0.1,0-0.2-0.2-0.3-0.5c0-0.3-0.2-0.8-0.5-1.6l-0.4,0l-0.5,0.1c-0.1,0-0.3,0-0.6,0c0,0,0,0.1,0,0.2
			c0,0.1,0,0.2,0,0.3c0,0.1,0,0.2,0,0.3c0,0.1,0,0.3,0,0.4c0,0.1,0,0.2,0,0.3c0,0.1,0,0.2,0,0.3c0,0.1,0,0.2-0.1,0.3
			c-0.1,0.2-0.1,0.3-0.3,0.3c-0.1,0-0.2,0-0.3,0c-0.1-0.1-0.2-0.1-0.2-0.2c0.1-1,0.1-2.1,0.1-3.1c0-1.1,0-1.7,0-1.9s0-0.6,0-1.2
			s0-1,0-1.2c0-0.2,0-0.4-0.1-0.8c-0.1-0.7-0.1-1.1,0-1.3l0.5-0.1c0.3-0.1,0.5,0,0.5,0.2c0.3,1.8,0.9,3.6,1.6,5.4
			c0,0.1,0.1,0.2,0.2,0.4C56.5,41.8,56.6,42.1,56.6,42.3z M55.6,42.2c-0.1-0.1-0.1-0.4-0.2-0.7c-0.1-0.3-0.1-0.7-0.3-1.1
			c-0.1-0.4-0.3-0.9-0.5-1.5c-0.2-0.6-0.3-1-0.4-1.2c0,0.3,0,0.7-0.1,1.4c-0.1,1.4-0.1,2.4,0.1,3.1C54.5,42.3,54.9,42.3,55.6,42.2z"
			/>
		<path fill="#35302E" d="M59.8,42.7l-0.1-0.5c-0.1-0.1-0.3-1.2-0.8-3.2c-0.5-2-0.8-3.2-0.9-3.7c-0.5,0.1-0.9,0.1-1,0
			c-0.1-0.1-0.2-0.1-0.2-0.2c0-0.1,0-0.2,0.1-0.3c0.1-0.1,0.2-0.1,0.3-0.1l2-0.2l0.2,0c0.3-0.1,0.5,0,0.5,0.3c0,0.1,0,0.2-0.1,0.3
			c-0.1,0.1-0.2,0.1-0.3,0.2l-0.7,0l0,0.2c0.2,0.9,0.5,2.2,1,4c0.5,1.8,0.8,3.1,1,4c0,0.1,0,0.2-0.1,0.3c-0.1,0.1-0.2,0.2-0.3,0.2
			L60.1,44L59.8,42.7z"/>
		<path fill="#35302E" d="M62.3,34.8l0.6,3.6c0.2,0,0.4,0,0.8-0.1l0.5-0.1l-0.1-0.3c-0.1-0.4-0.2-1.1-0.5-1.9
			c-0.2-0.9-0.4-1.5-0.5-1.9c0-0.1,0-0.2,0.1-0.3c0.1-0.1,0.1-0.1,0.2-0.1c0.1,0,0.1,0,0.2,0c0,0,0.1,0,0.1,0c0,0,0.1,0,0.1,0
			c0.1,0,0.1,0.1,0.2,0.3c0.2,1,0.5,2.5,1,4.5c0.5,2,0.8,3.5,1,4.5c0,0.1,0,0.2-0.1,0.2C65.8,43,65.7,43,65.6,43c-0.1,0-0.2,0-0.3,0
			c-0.1,0-0.2-0.1-0.2-0.2c-0.2-0.9-0.5-2.1-0.7-3.5l0-0.1l-0.1-0.4l0-0.1l0,0c-0.1,0-0.2,0.1-0.3,0.1l-0.9,0l0.3,1.6l0,0.1l0.6,2.3
			c0,0.1,0,0.3,0,0.4c0,0.1-0.1,0.2-0.3,0.2c-0.2,0-0.4-0.1-0.5-0.4c-0.1-0.3-0.3-0.8-0.4-1.4l-0.4-2.2l-0.1-0.8L62,37.7l-0.7-3.2
			c0-0.1,0-0.2,0.1-0.3c0.1-0.1,0.1-0.2,0.3-0.2C61.9,33.9,62.1,34.2,62.3,34.8z"/>
		<path fill="#35302E" d="M67.7,38.3c0,0.3,0,0.5,0,0.8s0.2,0.7,0.4,1.4c0.2,0.7,0.3,1.2,0.4,1.4c0,0.2,0,0.4,0,0.5
			c-0.1,0.1-0.1,0.2-0.2,0.2c-0.1,0-0.2-0.1-0.3-0.2c-0.1-0.4-0.1-0.8-0.2-1.3s-0.3-1.6-0.8-3.4c-0.4-1.7-0.7-3-0.9-3.9
			c-0.1-0.4,0-0.7,0.3-0.8c0.5-0.1,0.9,0,1.3,0.2c0.4,0.2,0.6,0.5,0.7,1c0.1,0.6,0.2,1.2,0.1,1.5c0,0.4-0.1,0.9-0.3,1.5
			c0.1,0.2,0.3,0.7,0.5,1.3c0.5,1.4,1.1,2.4,1.5,3c0.1,0.2,0.2,0.3,0.2,0.4c0,0.1,0,0.2,0,0.3c0,0.1-0.1,0.1-0.2,0.2
			c-0.3,0.1-0.7-0.4-1.1-1.4c-0.2-0.4-0.4-0.9-0.6-1.3c-0.5-1.2-0.8-1.9-0.9-2C67.7,37.8,67.7,38,67.7,38.3z M66.8,33.5l0,0.2
			c0.1,0.4,0.2,0.9,0.3,1.7c0.2,0.7,0.3,1.3,0.3,1.6c0.2-0.2,0.3-0.5,0.4-1c0-0.5,0-0.9,0-1.2c0-0.3-0.1-0.4-0.1-0.6
			c0-0.1-0.1-0.3-0.2-0.4C67.3,33.6,67.1,33.5,66.8,33.5z"/>
		<path fill="#35302E" d="M73.8,40.7c0.1,0.5,0.1,0.8,0,0.9c-0.1,0.1-0.2,0.1-0.3,0.1c-0.1,0-0.3-0.1-0.4-0.2c0.1-0.2,0-1-0.3-2.4
			c0-0.3-0.1-0.6-0.3-1.1s-0.2-0.8-0.2-1c-0.2-0.3-0.7-1-1.3-2c-0.6-1.1-0.9-1.8-1-2l0-0.1l0.3-0.3c0.3,0,0.8,0.6,1.5,2
			c0.3,0.6,0.4,0.9,0.4,0.9c0-0.1,0-0.5,0-1.1c0-1.6,0.1-2.4,0.5-2.5c0.1,0,0.2,0,0.3,0c0.1,0,0.1,0.1,0.1,0.2
			c0.1,0.6,0.1,1.3,0,2.1c-0.1,0.8-0.2,1.6,0,2.2L73.8,40.7z"/>
		<path fill="#35302E" d="M76.1,35.2l0.8,3.7l0.3,1.6c0,0.1,0,0.2,0,0.3c0,0.1-0.1,0.2-0.2,0.2c-0.3,0.1-0.5-0.2-0.6-0.8l-1-5
			l-0.4-2.7c-0.1-0.6,0-1,0.3-1.1c0.2,0,0.4,0.1,0.5,0.4c0.2,0.6,0.6,1.4,1.2,2.5c0.5,1.1,0.9,1.9,1.2,2.5c0.1,0.3,0.3,0.7,0.6,1.2
			c0.2,0.5,0.4,1,0.6,1.2c-0.3-2.1-0.8-4.6-1.3-7.5l-0.1-0.4c0-0.1,0-0.2,0-0.3c0-0.1,0.1-0.1,0.2-0.2c0.1,0,0.2,0,0.3,0
			c0.2,0.1,0.3,0.2,0.3,0.4c0.2,1.3,0.5,3,0.8,5c0.3,2.1,0.4,3.4,0.4,3.9c0,0-0.1,0-0.1,0.1c-0.1,0-0.1,0.1-0.1,0.1
			c-0.3,0.1-0.4,0.1-0.5,0.1c-0.1-0.1-0.2-0.2-0.2-0.3c-0.1-0.1-0.1-0.3-0.2-0.4c-0.1-0.1-0.3-0.7-0.8-1.8c-1.2-2.9-2-4.5-2.2-5
			L76.1,35.2z"/>
	</g>
	<g>
		<path fill="#35302E" d="M1.2,47.9l0.1,1c0.1,0.5,0.3,1.4,0.7,2.6c0.4,1.3,0.6,2,0.8,2.1C3,53.9,3.4,54,3.8,53.9s0.8-0.3,0.9-0.6
			c0.2,0,0.3-0.1,0.4-0.2l0,0.2c0.1,0.3,0,0.5-0.1,0.7c-0.2,0.4-0.6,0.6-1.2,0.7c-0.3,0.1-0.7,0-1-0.1S2.2,54.3,2,54
			c-0.2-0.3-0.5-1.2-0.9-2.6c-0.4-1.4-0.6-2.5-0.8-3.3s-0.2-1.3-0.2-1.7C0.1,46.3,0.1,46.2,0,46c-0.1-0.6,0-1.1,0.4-1.5
			c0.4-0.4,0.9-0.7,1.5-0.8c0.2,0,0.5,0,0.7,0.1C2.9,43.8,3,44,3.1,44.2c0,0.1,0,0.2-0.1,0.3c-0.1,0.1-0.2,0.1-0.3,0.1
			c-0.1,0-0.3,0-0.3-0.1l0,0l-0.2,0l0-0.1C1.4,44.6,1,45,0.9,45.7c0,0.3,0,0.7,0.1,1.2L1.2,47.9z"/>
		<path fill="#35302E" d="M6.5,45.2l0.6,3.6c0.2,0,0.4,0,0.8-0.1l0.5-0.1l-0.1-0.3c-0.1-0.4-0.2-1.1-0.5-1.9
			c-0.2-0.9-0.4-1.5-0.5-1.9c0-0.1,0-0.2,0.1-0.3C7.5,44,7.6,44,7.7,44c0.1,0,0.1,0,0.2,0c0,0,0.1,0,0.1,0c0,0,0.1,0,0.1,0
			c0.1,0,0.1,0.1,0.2,0.3c0.2,1,0.5,2.5,1,4.5c0.5,2,0.8,3.5,1,4.5c0,0.1,0,0.2-0.1,0.2c-0.1,0.1-0.2,0.1-0.3,0.1
			c-0.1,0-0.2,0-0.3,0c-0.1,0-0.2-0.1-0.2-0.2c-0.2-0.9-0.5-2.1-0.7-3.5l0-0.1l-0.1-0.4l0-0.1l0,0c-0.1,0-0.2,0.1-0.3,0.1l-0.9,0
			l0.3,1.6l0,0.1L8,53.2c0,0.1,0,0.3,0,0.4c0,0.1-0.1,0.2-0.3,0.2c-0.2,0-0.4-0.1-0.5-0.4C7.1,53,7,52.6,6.9,52l-0.4-2.2L6.4,49
			l-0.1-0.8L5.5,45c0-0.1,0-0.2,0.1-0.3c0.1-0.1,0.1-0.2,0.3-0.2C6.2,44.4,6.4,44.7,6.5,45.2z"/>
		<path fill="#35302E" d="M12.2,48.7c0,0.3,0,0.5,0,0.8c0,0.2,0.2,0.7,0.4,1.4c0.2,0.7,0.3,1.2,0.4,1.4c0,0.2,0,0.4,0,0.5
			c-0.1,0.1-0.1,0.2-0.2,0.2c-0.1,0-0.2-0.1-0.3-0.2c-0.1-0.4-0.1-0.8-0.2-1.3s-0.3-1.6-0.8-3.4s-0.7-3-0.9-3.9
			c-0.1-0.4,0-0.7,0.3-0.8c0.5-0.1,0.9,0,1.3,0.2s0.6,0.5,0.7,1c0.1,0.6,0.2,1.2,0.1,1.5c0,0.4-0.1,0.9-0.3,1.5
			c0.1,0.2,0.3,0.7,0.5,1.3c0.5,1.4,1.1,2.4,1.5,3c0.1,0.2,0.2,0.3,0.2,0.4c0,0.1,0,0.2,0,0.3c0,0.1-0.1,0.1-0.2,0.2
			c-0.3,0.1-0.7-0.4-1.1-1.4c-0.2-0.4-0.4-0.9-0.6-1.3c-0.5-1.2-0.8-1.9-0.9-2C12.3,48.2,12.3,48.4,12.2,48.7z M11.3,43.9l0,0.2
			c0.1,0.4,0.2,1,0.3,1.7s0.3,1.3,0.3,1.6c0.2-0.2,0.3-0.5,0.4-1c0-0.5,0-0.9,0-1.2c0-0.3-0.1-0.4-0.1-0.6c0-0.1-0.1-0.3-0.2-0.4
			C11.9,44,11.7,43.9,11.3,43.9z"/>
		<path fill="#35302E" d="M18.7,51.6l-0.5,0.1l-0.6,0.1c-0.3,0-0.5,0-0.6-0.2c0-0.1,0-0.3,0-0.3c0-0.1,0.1-0.1,0.2-0.2l0.4-0.1
			l0-0.2l-0.7-3l-0.5-3.2c-0.1-0.5-0.2-1-0.4-1.5c-0.2,0-0.4,0.1-0.6,0.1c-0.2,0-0.3,0-0.4,0c-0.1,0-0.1-0.1-0.2-0.3
			c0-0.2,0.2-0.4,0.7-0.5l0,0c1.2-0.2,1.9-0.2,1.9,0.1c0,0.1,0,0.1,0,0.3l-0.7,0.1c0.1,0.3,0.2,0.7,0.3,1.2l0.4,2.7l0.7,3l0.1,0.4
			c0,0.1,0,0.2,0,0.4l0.6-0.1c0.4-0.1,0.6,0,0.7,0.2c0,0.1,0,0.2,0,0.3c-0.1,0.1-0.1,0.1-0.2,0.2L18.7,51.6z"/>
		<path fill="#35302E" d="M21.2,50.7l0.8,0c0.2,0,0.3-0.1,0.4-0.3c0.1-0.2,0.2-0.4,0.2-0.6c0-0.5,0-0.9,0-1.2
			c-0.1-0.3-0.2-0.7-0.4-1c-0.2-0.3-0.4-0.6-0.6-0.9c-0.2-0.3-0.4-0.5-0.7-0.8c-0.5-0.6-0.9-1.3-1-2c-0.1-0.4-0.1-0.8,0-1.2
			c0.2-0.7,0.5-1,0.9-1.1c0.2,0,0.3,0,0.5,0.1c0.2,0.1,0.3,0.2,0.3,0.3c0,0.2-0.1,0.3-0.3,0.4c-0.1,0-0.2,0-0.3,0
			c-0.3,0.1-0.4,0.4-0.4,1.1c0,0.1,0,0.3,0.1,0.5s0.1,0.4,0.3,0.7s0.3,0.5,0.5,0.7c0.2,0.2,0.4,0.4,0.5,0.7c0.2,0.2,0.4,0.5,0.6,0.7
			c0.4,0.5,0.7,1.2,0.8,1.9c0.1,0.6,0.1,1.2,0,1.7c-0.1,0.3-0.2,0.5-0.4,0.7c-0.2,0.2-0.4,0.3-0.7,0.4l0,0c-0.2,0-0.4,0-0.5-0.1
			c-0.2-0.1-0.3-0.2-0.3-0.3L21.2,50.7z"/>
	</g>
	<path fill="#35302E" d="M20.6,73.7c-0.2,0-0.4-0.1-0.5-0.2c-0.6-0.4-1.2-0.9-1.8-1.3c-0.2-0.1-0.4-0.3-0.5-0.4
		c-0.2-0.1-0.6-0.1-0.9-0.2c-1-0.2-1.4-0.2-1.8-0.5c-0.3-0.2-0.4-0.5-0.5-0.9c0-0.5,0.2-0.8,0.4-1.1c-0.2-0.2-0.4-0.3-0.6-0.5
		c-0.6-0.4-1.3-0.9-1.8-1.5c-0.6-0.6-1-1.3-1.4-2c-0.2-0.4-0.5-0.8-0.7-1.1C9.6,63,9,62,8.4,60.9c-0.3-0.5-0.1-1.1,0.4-1.4
		s1.1-0.1,1.4,0.4c0.6,1,1.2,1.9,1.9,3c0.3,0.4,0.6,0.8,0.8,1.2c0.4,0.6,0.8,1.2,1.2,1.7c0.4,0.4,0.9,0.8,1.5,1.2
		c0.4,0.3,0.9,0.6,1.3,1c0.3,0.3,0.6,0.8,0.2,1.6c0,0,0,0,0,0c0.9,0.1,1.4,0.2,1.7,0.5c0.2,0.2,0.4,0.3,0.6,0.5
		c0.6,0.4,1.1,0.8,1.6,1.2c0.5,0.3,0.6,0.9,0.3,1.4C21.3,73.6,21,73.7,20.6,73.7z"/>
	<path fill="#35302E" d="M68.7,64.5c-0.2,0-0.4-0.1-0.6-0.2c-0.4-0.3-0.6-0.9-0.2-1.4c0.5-0.7,1-1.5,1.6-2.3
		c0.2-0.3,0.4-0.5,0.8-0.7c0,0,0,0,0-0.1c-0.1-0.3-0.1-0.6,0-0.9c0.6-1.2,1.2-2.3,1.7-3.5c0.1-0.4,0.3-0.7,0.4-1.1
		c0.4-0.9,0.7-1.7,0.9-2.5c0.3-1.3,0.6-2.6,0.7-3.8c0.1-0.5,0.6-0.9,1.1-0.8c0.5,0.1,0.9,0.6,0.8,1.1c-0.2,1.2-0.4,2.7-0.8,4
		c-0.3,1-0.7,1.9-1,2.8c-0.1,0.3-0.3,0.7-0.4,1c-0.4,1-0.8,1.9-1.3,2.8c0.2,0.1,0.4,0.3,0.5,0.5c0.1,0.3,0.1,0.7-0.1,0.9
		c-0.2,0.4-0.6,0.6-1.3,1c-0.2,0.1-0.4,0.3-0.6,0.3c-0.5,0.9-1.1,1.7-1.6,2.4C69.4,64.4,69,64.5,68.7,64.5z"/>
	<path fill="#35302E" d="M70.2,25.5c-0.3,0-0.7-0.2-0.9-0.5c-0.9-1.5-1.8-2.8-2.8-4c-0.3-0.4-0.4-0.8-0.5-1.4c0-0.1-0.1-0.4-0.1-0.5
		c0,0,0,0,0,0c-0.3-0.1-0.7-0.1-1.1-0.6c-0.7-0.7-1.5-1.3-2.4-1.8c-0.5-0.3-1-0.7-1.5-1.1c-0.1,0-0.4,0-0.6,0c-0.6,0-1.2,0-1.6-0.4
		c-0.7-0.5-0.6-1.3-0.5-1.8c0,0,0,0,0,0c-0.3-0.2-0.7-0.3-1-0.4c-0.4-0.2-0.8-0.3-1.3-0.5c-0.6-0.3-1.3-0.6-2-0.9l-0.6-0.2
		c-0.8-0.3-1.6-0.6-2.7-1c-0.5-0.2-0.8-0.6-1.2-1.1c-0.2,0.1-0.6,0.2-0.8,0.1c-0.9-0.2-1.7-0.4-2.6-0.5c-0.4-0.1-0.9-0.1-1.3,0
		c-0.4,0-0.9,0-1.4,0c-0.6,0-1-0.5-0.9-1.1c0-0.6,0.5-0.9,1.1-0.9c0.3,0,0.7,0,1.1,0c0.6,0,1.1,0,1.7,0.1C46.7,7,47.3,7.1,48,7.2
		c0.1-0.2,0.2-0.4,0.4-0.6c0.2-0.2,0.6-0.2,0.9-0.1c0.6,0.2,1,0.7,1.4,1.3c0.1,0.2,0.3,0.5,0.4,0.6c1,0.3,1.9,0.6,2.7,1l0.6,0.2
		c0.7,0.3,1.5,0.6,2.2,1c0.3,0.2,0.7,0.3,1.1,0.5c0.6,0.2,1.1,0.4,1.7,0.8c0.7,0.4,0.6,1.2,0.6,1.7c0.1,0,0.2,0,0.2,0
		c0.6,0,1.2,0,1.7,0.4c0.5,0.4,1,0.7,1.5,1c0.9,0.6,1.9,1.3,2.8,2.1c0,0,0.1,0,0.1,0c0.3,0.1,0.7,0.2,1.2,0.6
		c0.3,0.4,0.4,0.9,0.5,1.4c0,0.2,0.1,0.5,0.1,0.6c1,1.3,2,2.6,2.9,4.2c0.3,0.5,0.1,1.1-0.3,1.4C70.6,25.5,70.4,25.5,70.2,25.5z"/>
	<path fill="#35302E" d="M5.1,37.7c-0.1,0-0.1,0-0.2,0C4.4,37.6,4,37,4.1,36.5c0.1-0.4,0.1-0.8,0.2-1.1c0.1-0.8,0.2-1.5,0.4-2.3
		c0.2-0.7,0.5-1.4,0.9-2c0.2-0.4,0.4-0.7,0.5-1.1c0-0.2-0.1-0.5-0.2-0.8c-0.2-0.8-0.4-1.4-0.2-2c0.4-0.9,1.3-0.9,1.8-0.9
		c0,0,0,0,0.1,0c0.6-1.1,1.1-2,1.6-2.8c0.6-1,1.3-1.9,2-2.7l0.1-0.2c0.3-0.4,0.9-0.8,1.5-1.3c0.2-0.2,0.5-0.4,0.8-0.6
		c-0.2-0.7,0.1-1.2,0.3-1.4c0.2-0.2,0.5-0.5,0.7-0.8c0.5-0.5,0.9-1,1.5-1.5c0.6-0.5,1.2-0.9,1.7-1.3c0.3-0.2,0.5-0.4,0.8-0.6
		c0.5-0.4,1.1-0.7,1.7-1c0.4-0.2,0.7-0.3,1.1-0.5c0.3-0.2,0.7-0.4,1-0.7c0.5-0.4,1-0.8,1.6-1.1c0.5-0.2,1.1,0,1.3,0.5
		c0.2,0.5,0,1.1-0.5,1.3c-0.4,0.2-0.9,0.5-1.3,0.9c-0.4,0.3-0.7,0.5-1.1,0.8c-0.4,0.2-0.8,0.4-1.2,0.6c-0.5,0.2-1,0.5-1.4,0.8
		c-0.3,0.2-0.6,0.4-0.8,0.6c-0.6,0.4-1.1,0.7-1.6,1.1c-0.5,0.4-0.9,0.9-1.3,1.3c-0.2,0.2-0.3,0.4-0.5,0.5c0.2,0.5,0.1,1-0.3,1.4
		c-0.3,0.3-0.8,0.7-1.4,1.1c-0.4,0.3-1,0.7-1.1,0.8L12.7,22c-0.7,0.9-1.3,1.7-1.9,2.6c-0.5,0.9-1.1,1.8-1.6,2.9
		c-0.3,0.7-1,0.8-1.4,0.8c0,0.1,0.1,0.2,0.1,0.3C8.1,29.4,8.3,30,8,30.6c-0.2,0.5-0.4,1-0.7,1.4c-0.3,0.6-0.6,1.1-0.7,1.6
		c-0.2,0.6-0.3,1.3-0.4,2.1c-0.1,0.4-0.1,0.8-0.2,1.2C6,37.3,5.6,37.7,5.1,37.7z"/>
	<path fill="#35302E" d="M47.8,50.7c-0.6,0-1-0.2-1.3-0.6c-0.3,0-0.6-0.1-1-0.5c-0.4-0.4-0.8-0.5-1.2-0.4c-0.3-0.2-0.5-0.4-0.5-0.5
		c-0.1-0.2-0.1-0.3-0.2-0.5c0-0.2,0-0.6,0.2-1.1c0.2-0.5,0.2-0.9,0.1-1.2c0.1-0.6,0.2-1.3,0.1-1.9c-0.1-0.7-0.4-1.2-0.9-1.6
		c0-0.3,0-0.6,0-0.9c0,0,0,0,0-0.1c-0.1-0.1-0.2-0.1-0.2-0.2c-0.2,0-0.4,0-0.6,0c0,0.1-0.1,0.1-0.1,0.1l-0.3,0.1c-0.1,0-0.1,0-0.2,0
		c-0.4,0.1-0.7,0.3-1,0.5c0,0-0.1,0.1-0.1,0.1c-0.2,0.1-0.3,0.3-0.5,0.5c0,0,0,0,0,0c0,0.1,0,0.2-0.1,0.3c0.3,0.3,0.4,0.7,0.5,1.2
		c0.2,1.2,0.3,1.9,0.4,2c-0.2,0.2-0.3,0.4-0.5,0.4c-0.2,0-0.4-0.2-0.7-0.6c-0.3-0.4-0.6-0.6-0.9-0.5c-0.6-1-1.2-1.6-1.6-2
		c-0.4-0.1-0.8-0.5-1.1-1.1c-0.3-0.6-0.6-1-1-1.1c0-0.1-0.1-0.2-0.3-0.6c-0.1-0.2-0.1-0.4,0-0.6c0.1-0.2,0.4-0.5,1-1.2
		c0.4-0.5,0.7-0.9,0.9-1.2c0.4-0.2,0.6-0.6,0.8-1.3c0.2-0.7,0.4-1.1,0.7-1.4c0.1-0.2,0.2-0.5,0-0.9c-0.1-0.4-0.1-0.7-0.1-0.8
		c0-0.2,0.1-0.3,0-0.5c-0.1-0.3-0.4-0.7-1-1.2c0-0.5-0.3-0.9-0.9-1.2c-0.6-0.3-1-0.6-1-1c-0.4-0.4-1-0.4-1.7-0.1
		c-0.3-0.2-0.7-0.3-1-0.3c-0.2,0-0.5,0.2-0.9,0.4c-0.4,0.2-0.8,0.4-1,0.4c-0.2,0-0.4,0-0.6,0c-0.6,0.2-0.9,0.7-1,1.5
		c-0.6,0.2-0.9,0.7-1,1.5c0.2,0.3,0.2,0.6,0,1c-0.2,0.5-0.2,0.8-0.2,1c0,0.1,0.1,0.2,0.2,0.4c0.1,0.2,0.2,0.3,0.2,0.4
		c0,0.1,0,0.3,0,0.7c0,0.3,0,0.5,0.1,0.7c0.3,0.2,0.6,0.5,0.8,1.1c0.2,0.6,0.5,1,0.8,1.2c0.1,0.2,0.3,0.4,0.4,0.6
		c0.2,0.3,0.2,0.5,0.2,0.7c-0.3,0.2-0.6,0.6-0.8,1.2c-0.2,0.6-0.5,1-0.9,1.2c0,0.3-0.1,0.7-0.4,1.2c-0.3,0.5-0.5,0.8-0.5,1.1
		c0.1,0.3-0.1,0.8-0.4,1.4c-0.3,0.6-0.4,1.1-0.3,1.4c0.1,0.1,0.1,0.3,0.2,0.4c0,0.2,0,0.5,0,0.9c0,0.4,0,0.8,0,1
		c0.2,0.2,0.4,0.6,0.6,1.2c0.2,0.6,0.4,1,0.5,1.2c0.4,0.1,0.7,0.5,1.1,1.1c0.4,0.6,0.7,1,1.1,1.1c0.4-0.1,0.8,0.1,1.2,0.5
		c0.5,0.4,0.9,0.5,1.3,0.3c0.3-0.2,0.8-0.3,1.4-0.2c0.7,0.1,1.2,0.1,1.3,0.1c0.3-0.1,0.6-0.2,0.8-0.5c0.5,0,1.1-0.2,1.7-0.6
		c0.9-0.5,1.4-0.7,1.5-0.8c0.5-0.1,1-0.5,1.3-1.3c0.4-0.8,0.8-1.2,1.3-1.3c1.1,0.6,1.9,1,2.5,1.2c0.5,0,1.1,0.2,1.6,0.6
		c0.3,0.2,0.5,0.4,0.8,0.6c0.2-0.1,0.3-0.2,0.5-0.2C48.4,53,48.1,51.6,47.8,50.7z M42.8,43.4c0.2,0,0.3,0,0.4,0.2
		c0.1,0.2,0.1,0.4,0.2,0.6c0,0.5-0.5,1-1.5,1.4c-0.1,0-0.3,0.2-0.4,0.1c0-0.3-0.1-0.7,0.2-0.9C42.1,44.2,42.6,43.8,42.8,43.4z
		 M41.1,43.8c0-0.4,0-0.6,0-0.6c0-0.1-0.1-0.2-0.1-0.3c0.2-0.5,0.7-0.8,1.5-0.7c-0.4,1.2-0.9,1.9-1.2,2.2
		C41.1,44.2,41.1,44,41.1,43.8z M41.1,47.3c0.1-0.4,0.4-0.6,0.8-0.8c0.4-0.1,0.8-0.3,1.2-0.4c0.1,0.1,0.1,0.2,0.1,0.3
		c0,0.2,0,0.4-0.2,0.6c0,0-0.2,0.2-0.5,0.4c-0.1,0-0.3,0.1-0.6,0.2c-0.3,0.1-0.5,0.1-0.6,0.1C41.2,47.7,41.1,47.5,41.1,47.3z
		 M40.1,47c0.3-0.1,0.7,1,0.2,1.5c-0.1,0.6-1,0.3-1,0.1C39.4,48.1,39.8,47,40.1,47z M38.8,46.1c0.1,0,0.5,0.1,0.6,0.5
		c0.1,0.3-0.3,1.3-0.6,1.7c-0.1,0-0.5-0.3-0.6-0.4c-0.1-0.2,0-0.6,0.1-0.9C38.5,46.6,38.7,46.2,38.8,46.1z M37.4,44.9
		c0.1-0.1,0.2,0,0.3,0.1c0.1,0.1,0.2,0.2,0.2,0.4c0.1,0.3,0.1,0.6,0,0.9c-0.1,0.3-0.2,0.6-0.3,0.9c-0.1,0.1-0.3,0-0.5-0.3
		c-0.1-0.3-0.1-0.6,0.1-0.9C37.3,45.3,37.4,45,37.4,44.9z M36.3,43.8c0.1,0,0.4-0.1,0.4,0c0,0.1,0.2,0.3,0.1,0.4
		c0.2,0.8-0.5,1.5-1,1.4c-0.5,0-0.6-0.6-0.3-1.1C35.8,44.3,35.9,43.9,36.3,43.8z M35.4,42.1c0,0.1,0.1,0.2,0.1,0.4
		c0,0.2,0,0.5,0,0.6c0,0-0.1,0.6-0.4,1c-0.1,0.3-0.4,0.2-0.6,0.3c-0.1-0.1-0.5-0.5-0.6-0.9c0.2-0.7,0.7-1.2,0.9-1.6
		C35.1,41.9,35.4,42,35.4,42.1z M32.5,39.2c0.2-0.1,0.4,0.1,0.5,0.5c0,0.3,0.2,1.4-0.5,1.8c-0.1,0.1-0.2,0.1-0.3,0
		c-0.1-0.1-0.4-0.5-0.4-0.6C31.5,40.3,32,39.9,32.5,39.2z M31.2,40c-0.3,0-0.6-0.4-0.6-0.7c0-0.3,0.2-0.4,0.3-0.7
		c0.1-0.2,0.4-0.5,0.7-0.9c0.2-0.1,0.5,0.1,0.5,0.6C32,38.9,31.5,40,31.2,40z M33,42.1c0.3-0.8,0.7-1.3,0.9-1.7
		c0.3,0.1,0.9,0.6,0.5,1.3c-0.1,0.3-0.4,0.7-0.8,1.2c-0.2,0-0.4,0.1-0.6-0.1C32.8,42.5,33,42.1,33,42.1z M34.2,39.5
		c-0.1,0-0.3,0-0.4,0c-0.3-0.2-0.3-0.4-0.1-0.5c0.4,0,0.7,0.2,0.9,0.4C34.5,39.4,34.4,39.5,34.2,39.5z M35.3,38.6
		c-0.3,0.1-0.6,0-1-0.1c-0.4-0.1-0.7-0.4-1-0.4c0-0.1,0-0.2,0.1-0.3c0.1-0.1,0.1-0.4,0.1-0.4c0.3-0.1,0.8-0.1,1.3,0
		c0.6,0.2,1.3,0.3,1.3,0.4C36.2,37.8,35.5,38.4,35.3,38.6z M36.5,37.2c-0.8,0-1.9-0.2-2.2-0.4c-0.1-0.2,0.3-0.6,0.8-0.8
		c0.6-0.1,1.4,0,1.8,0.2C37,36.5,37,36.9,36.5,37.2z M37.6,35.2c-0.2,0.4-0.8,0.4-1.8,0.4c-0.1,0.1-0.4,0.1-0.4,0
		c0-0.1-0.2-0.3-0.1-0.4c0-0.1,0.2-0.6,0.2-0.6c0.2,0,0.6,0.1,0.9-0.1c0.4-0.2,0.7,0,0.8-0.1C37.5,34.3,37.6,34.7,37.6,35.2z
		 M37.1,32.4c0.1,0.1,0.2,0.1,0.2,0.2c0.3,0.5,0.2,0.9-0.3,1.2c-0.7,0.2-1.1,0.3-1.2,0.2C35.4,33.2,36.2,33,37.1,32.4z M35.7,30.8
		c0.1,0,0.3,0.1,0.6,0.4c0,0.4-0.3,1.1-0.8,1.6c-0.2,0-0.5-0.1-0.5-0.2C34.8,32,35.3,31.4,35.7,30.8z M33.6,30.5
		c0-0.3,0.3-0.5,0.5-0.7c0.4-0.1,0.6,0.1,0.8,0.5c0.1,0.2,0,0.5-0.1,0.7c-0.1,0.3-0.2,0.5-0.3,0.7c-0.2,0.1-0.5,0-0.7-0.3L33.6,30.5
		z M32.2,29.9c0.3-0.1,0.5,0,0.7,0.2c0,0.1,0.2,0.2,0.2,0.4c0,0.2,0,0.6,0,0.7c-0.1,0.1-0.3,0.2-0.4,0.2c-0.4,0.1-0.7-0.4-1-1.2
		C31.9,30.1,32,29.9,32.2,29.9z M34.3,32.6c0.3,0.6,0.5,1,0.6,1.1c0,1.1-0.2,1.8-0.4,2.2c-0.3,0.1-0.6,0.4-1,0.9
		c-0.4,0.4-0.7,0.7-1,0.9c-0.3-0.2-0.6-0.6-0.8-1.1c-0.3-0.7-0.5-1.1-0.7-1.3c-0.4-0.6-0.5-1.2-0.2-1.8c0-0.2,0.1-0.5,0.5-0.9
		C32.6,31.9,33.6,32,34.3,32.6z M29.8,30.9c0.2-0.1,0.3-0.2,0.5-0.3c0.3-0.1,0.5,0,0.7,0.2c0.2,0.2,0.6,0.6,0.8,0.8
		c-0.1,0.1-0.4,0.1-0.6,0.2c-0.2,0-0.7-0.2-1.6-0.4C29.6,31.1,29.6,31,29.8,30.9z M28.7,32.5c0.1-0.2,0.2-0.3,0.2-0.3
		c0.7-0.2,1.4-0.1,1.7,0.1c0,0.6-1,0.5-1.9,0.6C28.6,32.8,28.6,32.7,28.7,32.5z M28.3,35c0,0,0-0.3,0-0.4c0-0.1,0-0.2,0-0.2
		c0-0.9,0.6-0.7,1.1-0.9c0.1,0,0.3,0,0.4,0c0.2,0,0.2,0.1,0.2,0.2c0.1,0.3,0.1,0.6-0.5,0.8c-0.5,0.3-0.8,0.4-0.8,0.4
		C28.5,35.2,28.3,35.1,28.3,35z M28.7,35.9c0.3-0.6,0.9-1,1.6-1.1l0.4,0.5c0.3,0.4-0.2,0.7-0.5,0.9c-0.3,0.3-0.8,0.5-1,0.7
		C28.9,37,28.7,36.3,28.7,35.9z M30,38.5c-0.1,0.1-0.3-0.2-0.3-0.3c-0.1-0.1-0.2-0.3-0.2-0.4c0-0.3,0.4-0.5,0.7-0.7
		c0.4-0.3,0.8-0.7,0.9-0.8C32.2,37,30.6,37.9,30,38.5z M30.8,41.3c0.1,0,0.6,0.5,0.7,0.9c-0.5,0-1.2-0.1-1.2-0.1
		C30.2,42,30.5,41.6,30.8,41.3z M29.8,42.8c0.4-0.1,1.1-0.1,1.9,0c0.1,0.2,0.1,0.3-0.1,0.4c-0.1,0.1-0.1,0.6-0.2,0.7
		c-1.1,0.2-2.1,0.2-2.2-0.2C29.1,43.6,29.5,43.2,29.8,42.8z M28.5,45.3c0.2-0.5,0.7-0.8,1.3-0.8c0.4,0.1,0.6-0.1,0.8-0.1
		c0.4,0.1,0.1,1.1-0.4,1.3c-0.1,0-0.8,0.2-1.3,0.3C28.6,46.1,27.6,46.1,28.5,45.3z M27.8,47.3c0.2-0.5,0.8-0.7,1.9-0.8l0.1,0.1
		c0,0.1,0.2,0.2,0.2,0.2c0,0.4-0.3,0.7-0.8,0.9c-0.7,0.2-1.4,0.7-1.4,0.7C27.6,48.2,27.7,47.6,27.8,47.3z M27.8,50.3
		c0-0.7,0.1-1.1,0.5-1.5c0.3-0.2,0.5-0.4,0.8-0.5c0.4-0.2,0.6-0.1,0.6,0.1c0,0.1,0.1,0.4,0,0.6c-0.6,0.7-1.2,1.4-1.5,1.7
		C27.9,50.8,27.8,50.4,27.8,50.3z M28.7,52.5c-0.1-0.1-0.2-0.2-0.2-0.3c-0.1-0.5,0.2-1.3,1.1-2.1c0.1-0.1,0.3-0.1,0.4,0.1
		c0.1,0.1,0.2,0.5,0.2,0.6c-0.4,0.8-0.6,1.5-0.9,1.9C29.1,52.7,28.8,52.6,28.7,52.5z M31,54.3c0,0.1-0.3,0.1-0.3,0.1
		c-0.4-0.1-0.7-0.4-0.8-0.6c-0.2-0.6-0.1-1.1,0.1-1.5c0.2-0.3,0.3-0.5,0.4-0.5c0.1,0,0.5,0.2,0.6,0.3C31.1,52.2,31,53,31,54.3z
		 M32.7,55.4c-0.2,0.1-0.6-0.1-0.9-0.5c-0.2-0.4-0.2-1,0-1.7c0.4,0,0.7,0.2,0.9,0.5c0.2,0.4,0.4,0.7,0.5,1.1
		C33.3,55,33.1,55.2,32.7,55.4z M30.7,51c0.1-0.3,0-0.6-0.1-0.9c-0.2-0.5-0.3-0.8-0.3-0.8c0-0.2,0-0.4,0.1-0.5
		c-0.1-0.1-0.1-0.2-0.2-0.4c0-0.2,0-0.6,0.2-1c0.2-0.5,0.3-0.8,0.2-1.1c0.4-0.2,0.7-0.7,0.9-1.4c0.2-0.7,0.5-1.2,1-1.4
		c0.4,0.1,0.8,0.4,1.1,1.1c0.3,0.7,0.7,1,1.1,1.1c0,0.4,0.3,0.8,1,1.1c0.6,0.3,1,0.7,1,1.1c0.4,0,0.7,0.3,1.1,0.8
		c0.3,0.5,0.7,0.8,1.1,0.8c0.3,0.2,0.4,0.3,0.5,0.5c0,0.2-0.1,0.5-0.4,0.8c-0.3,0.4-0.4,0.6-0.4,0.7c-0.2,0.1-0.5,0.3-0.9,0.7
		c-0.4,0.3-0.8,0.6-1.1,0.6c-0.2,0-0.4,0-0.6,0c-0.2,0.1-0.3,0.2-0.6,0.3c-0.2,0-0.6,0-1.1-0.1c-0.5-0.1-0.8-0.2-1.1-0.1
		c-0.2,0-0.3,0.1-0.4,0.2C32.2,52.4,31.5,51.8,30.7,51z M35.9,55.1c-0.3,0.3-1,0.3-1.4,0.1c-0.3-0.1-0.4-0.2-0.6-0.5
		c-0.1-0.3-0.2-0.5-0.4-0.8c0-0.1,0-0.2,0-0.3c0-0.1,0.1-0.2,0.2-0.2c0.3-0.2,1-0.1,1.7,0.6c0,0.1,0.2,0.3,0.3,0.4
		C35.9,54.6,35.9,55,35.9,55.1z M37.2,54.6c-0.2,0-0.5-0.2-0.7-0.4c-0.2-0.2-0.4-0.4-0.6-0.6c0-0.2,0.3-0.3,0.9-0.4
		c0.9,0.5,1.3,0.8,1.4,1C38,54.6,37.6,54.7,37.2,54.6z M40.3,53.1c-0.2,0.1-0.3,0.2-0.5,0.3c-0.3,0.1-0.6,0.1-0.9-0.1
		c-0.3-0.1-0.6-0.3-0.9-0.5c-0.2-0.3,0-0.5,0.4-0.7c0,0,0.4,0.1,1.1,0.2c0.4,0.1,0.8,0.2,1,0.3C40.6,52.9,40.5,53,40.3,53.1z
		 M40.1,51.5c-0.1,0-0.3-0.1-0.4-0.1c-0.1-0.1-0.2-0.2-0.2-0.3c0.1-0.2,0.3-0.6,0.6-0.6c0.2,0,0.6,0.1,1,0.1c0.4,0,0.7-0.1,0.9-0.1
		c0.1,0,0.1,0.2,0.2,0.5C41.8,51.4,41,51.7,40.1,51.5z M40.2,49.8c-0.1-0.2,0.4-0.7,0.8-1.1c0.7-0.2,1.3-0.4,1.8-0.5
		c0.3,0.5,0.2,0.9-0.4,1.2C41.8,49.7,40.9,49.9,40.2,49.8z M43.6,51c-0.2,0.1-0.3,0.2-0.4,0.2c-0.2-0.2-0.4-0.5-0.4-0.8
		c0.2-0.4,0.6-1.1,0.8-1.2c0.1,0.1,0.3,0.2,0.3,0.3c0,0.1-0.2,0.6-0.2,0.9C43.6,50.8,43.6,50.9,43.6,51z M44.1,51.4
		c-0.1-0.2,0.1-0.7,0.1-1c0-0.3,0.2-0.6,0.3-0.6c0.1,0,0.6,0.5,0.8,0.8c0,0.6-0.2,1.2-0.2,1.5C44.7,52,44.1,51.8,44.1,51.4z
		 M45.5,52.2c-0.1,0,0.1-1.1,0.1-1.3c0-0.2,0.1-0.5,0.1-0.5s0.3,0.2,0.4,0.3c0.1,0.1,0,0.3-0.1,0.4c-0.1,0.1-0.1,1.2-0.2,1.3
		C45.8,52.5,45.6,52.3,45.5,52.2z M47.5,52.3c-0.1,0.3-0.1,0.6-0.1,0.7c-0.2,0.1-0.7,0-1-0.3c-0.2-0.6,0.1-1.2,0.3-1.6
		c0.5,0.3,0.7,0.4,0.7,0.4C47.4,51.5,47.6,52,47.5,52.3z"/>
	<g>
		<path fill="#35302E" d="M28.9,77.6c0.9-1.7,1.5-2.8,1.8-3.5l0,0c0-0.1,0.1-0.1,0.1-0.1s0.1,0,0.2,0c0,0,0.1,0,0.1,0.1
			c0,0.1,0.1,0.1,0,0.2c-0.2,0.5-0.4,1.4-0.8,2.5c-0.3,1.1-0.6,1.9-0.8,2.5c0,0.1-0.1,0.2-0.2,0.3c-0.1,0-0.1,0-0.1,0
			c-0.1,0-0.1,0-0.1-0.1c0,0,0-0.1,0-0.1l0-0.1c0.1-0.4,0.2-0.6,0.3-0.8c0.1-0.2,0.2-0.5,0.3-0.8c0.1-0.3,0.3-1,0.7-2
			c-0.1,0.1-0.2,0.4-0.4,0.8c-0.2,0.4-0.4,0.6-0.5,0.8c-0.1,0.2-0.2,0.3-0.2,0.4c-0.1,0.1-0.1,0.2-0.2,0.3c0,0.1-0.1,0.2-0.2,0.3
			c-0.1,0.2-0.2,0.3-0.3,0.2c-0.1,0-0.1-0.3,0-0.7c0-0.2,0.1-0.7,0.2-1.4c0.1-0.7,0.2-1.2,0.2-1.4c-0.1,0.4-0.3,0.7-0.3,1l-0.9,2.9
			c0,0.1-0.1,0.2-0.2,0.2c-0.1,0-0.2-0.1-0.2-0.2c0-0.1,0-0.2,0-0.3l0.4-1.1l0.9-2.7c0.1-0.3,0.2-0.6,0.3-0.9l0.2,0
			c0.1,0.1,0.1,0.5,0,1.4c-0.1,0.7-0.2,1.3-0.3,1.8C28.9,77.3,28.9,77.6,28.9,77.6z"/>
		<path fill="#35302E" d="M33.7,74.9c-0.1,0.7-0.1,1.6-0.3,2.7c-0.1,1.1-0.3,1.9-0.4,2.5c0,0.2-0.1,0.2-0.3,0.2
			c-0.2,0-0.2-0.1-0.2-0.2l0.2-0.9c-0.1-0.1-0.2-0.1-0.3-0.2c-0.2-0.1-0.3-0.1-0.4-0.2c-0.1,0.1-0.2,0.3-0.3,0.6
			c-0.1,0.3-0.2,0.5-0.3,0.6c-0.2,0-0.3-0.1-0.3-0.2c0.1-0.1,0.6-1.1,1.3-2.8c0.3-0.7,0.5-1.1,0.5-1.2c0.3-0.6,0.5-0.9,0.6-0.8
			C33.6,74.8,33.7,74.8,33.7,74.9L33.7,74.9z M32.9,78.6c0-0.1,0-0.3,0.1-0.8c0.1-1.1,0.2-1.7,0.2-1.9s0-0.2,0-0.2
			c0,0-0.2,0.3-0.4,1c-0.2,0.6-0.4,0.9-0.4,1c0,0.1-0.1,0.1-0.1,0.2c-0.1,0.2-0.2,0.3-0.2,0.4c0.2,0.1,0.3,0.2,0.5,0.2
			C32.7,78.6,32.8,78.6,32.9,78.6z"/>
		<path fill="#35302E" d="M35.6,80l0,0.4l0,0.2c0,0.1,0,0.1-0.1,0.1c0,0-0.1,0-0.1,0c-0.1,0-0.1,0-0.1-0.1c0,0,0-0.1,0-0.1l0.2-1.4
			c0-0.1,0-0.4,0-0.6c0-0.3,0-0.5,0-0.7c0-0.2,0-0.4,0-0.6c0-0.2-0.1-0.5-0.1-0.7c-0.1-0.5-0.2-1-0.1-1.3c0-0.1,0.1-0.1,0.2-0.1
			c0,0,0.1,0,0.1,0.1c0,0,0,0.1,0,0.1c0,0.6,0,1.2,0.1,1.8c0,0,0-0.1,0.1-0.3c0-0.2,0.1-0.3,0.1-0.5c0-0.2,0.1-0.3,0.1-0.5
			c0.1-0.4,0.2-0.6,0.4-0.5c0.1,0,0.2,0.1,0.2,0.1c0,0.3-0.1,0.7-0.3,1.2c-0.2,0.5-0.3,0.9-0.3,1.2l0,0.3l0,0.1L35.6,80z"/>
		<path fill="#35302E" d="M40.3,80.5c0.1,0,0.2,0,0.3,0l0,0c0.2,0,0.3,0.1,0.3,0.2c0,0.1-0.3,0.2-0.8,0.2l-0.2,0c-0.1,0-0.2,0-0.2,0
			c-0.1,0-0.1-0.1-0.1-0.2l0-0.2c0.2,0,0.2,0,0.3,0c0.1,0,0.2,0,0.2-0.1c0-0.7-0.1-1.7-0.2-2.9c0-0.1,0-0.2,0-0.4
			c0-0.4-0.1-0.7-0.1-0.9l0-0.3c0-0.2-0.1-0.3-0.3-0.3l-0.2,0c-0.1,0-0.2-0.1-0.2-0.2c0-0.1,0.2-0.2,0.6-0.2c0.2,0,0.3,0,0.3,0.1
			c0,0,0,0.1,0,0.2c0,0.1,0,0.2,0,0.3c0,0.1,0,0.3,0.1,0.6c0,0.3,0.1,0.6,0.1,0.8c0,0.3,0,0.8,0.1,1.5
			C40.3,79.5,40.3,80.1,40.3,80.5L40.3,80.5z"/>
		<path fill="#35302E" d="M43.5,80.5c0,0.1-0.1,0.1-0.2,0.1c-0.1,0-0.2,0.1-0.3,0.1c-0.1,0-0.2,0-0.3-0.1c-0.1,0-0.1-0.1-0.2-0.2
			c0-0.1-0.1-0.2-0.1-0.3c0-0.1-0.1-0.2-0.1-0.3c0-0.1,0-0.2,0-0.3c0-0.1,0-0.2,0-0.3c-0.1-0.6-0.2-1.2-0.3-1.7
			c-0.2-1.7,0-2.5,0.5-2.6c0,0,0.1,0,0.1,0c0,0,0.1,0.1,0.1,0.1c0,0.1,0,0.1-0.1,0.1c-0.1,0-0.1,0.1-0.2,0.1
			c-0.1,0.1-0.1,0.4-0.1,0.8c0,0.4,0,0.8,0,1.1c0,0,0.1,0,0.2,0c0.1,0,0.2,0,0.3,0.1c0.1,0.1,0.2,0.2,0.2,0.3
			c0.1,0.1,0.1,0.2,0.2,0.4c0.1,0.2,0.1,0.3,0.1,0.5c0,0.1,0.1,0.3,0.1,0.5c0,0.2,0.1,0.5,0.1,0.6c0,0.2,0,0.3,0,0.4
			c0,0.1,0,0.2,0,0.2C43.6,80.4,43.6,80.5,43.5,80.5z M43.1,78.8c-0.2-0.8-0.3-1.2-0.5-1.2c-0.1,0.1-0.1,0.1-0.1,0.2
			c0,0.1,0,0.1,0,0.2c0,0.5,0.2,1.1,0.4,2c0,0,0,0,0,0.1c0,0.1,0,0.1,0,0.1s0,0.1,0,0.1c0,0,0,0.1,0.1,0.1c0,0,0.1,0.1,0.2,0.1
			c0.1,0,0.2-0.2,0.1-0.5C43.2,79.6,43.2,79.3,43.1,78.8z"/>
		<path fill="#35302E" d="M45.4,76.1l0.1,0.9c0.1,0.4,0.2,0.8,0.3,1.1l0,0c0,0.2,0,0.3,0,0.6l0.3,1.3c0,0.2,0,0.4-0.1,0.4
			c-0.1,0-0.1,0-0.2-0.1c0-0.1-0.1-0.1-0.1-0.2l-0.1-1.2c0-0.2-0.1-0.6-0.2-1.1c-0.1-0.5-0.2-0.9-0.2-1.1L45,76.1
			c-0.1-0.3-0.1-0.6-0.2-0.7l-0.4,0.1c-0.1,0-0.1,0-0.2,0c-0.1,0-0.1-0.1-0.1-0.1c0-0.1,0-0.1,0.1-0.2c0.1-0.1,0.2-0.1,0.4-0.2
			c0.3-0.1,0.5-0.1,0.7-0.2c0.1,0,0.1,0,0.2,0c0.1,0,0.1,0.1,0.1,0.1c0,0.1,0,0.1,0,0.1c0,0-0.1,0.1-0.1,0.1l-0.3,0c0,0-0.1,0-0.1,0
			C45.2,75.5,45.3,75.8,45.4,76.1z"/>
		<path fill="#35302E" d="M48.3,76.8l-0.7-2.3c0,0,0-0.1,0-0.1c0-0.1,0.1-0.1,0.1-0.1c0,0,0.1,0,0.2,0.1c0.1,0.1,0.1,0.2,0.2,0.4
			c0.1,0.5,0.4,1.3,0.7,2.3c0.3,1,0.5,1.8,0.7,2.3c0,0.1,0,0.1,0,0.2c0,0.1-0.1,0.1-0.1,0.1c-0.1,0-0.2,0-0.2-0.2
			c-0.2-0.9-0.5-1.7-0.7-2.5c-0.1,0-0.3,0-0.4,0.1c-0.1,0-0.2,0.1-0.3,0.1c0.1,0.3,0.2,0.6,0.4,1.2c0.2,0.5,0.3,0.9,0.4,1.2
			c0,0,0,0.1,0,0.1c0,0,0,0.1-0.1,0.1c-0.1,0-0.1,0-0.2-0.1c-0.1-0.1-0.1-0.2-0.2-0.5c-0.1-0.3-0.2-0.6-0.2-0.9
			c-0.1-0.3-0.1-0.5-0.2-0.6c-0.4-1.2-0.7-2.2-0.9-3.1l0-0.1c0-0.1,0-0.1,0.1-0.1c0.1,0,0.2,0,0.3,0.1c0,0.2,0.1,0.3,0.1,0.5
			l0.4,1.4l0.1,0.3c0,0.1,0,0.1,0.1,0.2L48.3,76.8z"/>
		<path fill="#35302E" d="M51.8,78.5L51.8,78.5c0,0.2,0.1,0.3,0,0.5c0,0.2,0,0.3-0.1,0.5c-0.1,0.1-0.1,0.2-0.2,0.3l-0.2,0.1
			l-0.1-0.2c0,0,0-0.1,0.1-0.2c0.1-0.2,0.2-0.3,0.1-0.4c-0.2-0.1-0.3-0.1-0.3-0.2c0-0.1,0-0.2,0-0.3c0.1-0.1,0.1-0.1,0.2-0.2
			c0.1,0,0.2,0,0.2,0C51.6,78.3,51.7,78.4,51.8,78.5L51.8,78.5z"/>
		<path fill="#35302E" d="M56.2,76.9l-1,0.6c-0.1,0-0.1,0-0.2,0c-0.1,0-0.1,0-0.1-0.1l0,0c0-0.2,0-0.3,0-0.5c0-0.2,0-0.3,0-0.4
			c0-0.7-0.1-1.3-0.2-1.8c-0.1-0.5-0.3-1-0.6-1.6c-0.3-0.5-0.5-0.8-0.7-0.7c-0.1,0.1,0,0.2,0,0.4c0.1,0.2,0,0.3-0.1,0.3
			c-0.1,0.1-0.2,0-0.3-0.1c-0.1-0.2-0.1-0.4-0.1-0.6c0-0.1,0.1-0.2,0.2-0.2l0,0c0.2-0.1,0.4-0.1,0.6,0c0.1,0.1,0.2,0.1,0.3,0.2
			c0.1,0.1,0.1,0.1,0.1,0.2c0,0,0.1,0.1,0.1,0.2c0.1,0.1,0.1,0.2,0.2,0.3c0.2,0.4,0.3,0.8,0.5,1.3c0.1,0.5,0.2,1,0.2,1.4
			c0,0.1,0,0.3,0,0.6s0,0.6,0,0.7c0.2-0.2,0.5-0.3,0.7-0.4l0.3,0.1L56.2,76.9z"/>
		<path fill="#35302E" d="M55.5,72.3c-0.2-0.3-0.3-0.6-0.4-0.8c0-0.2,0-0.3,0.1-0.4c0-0.1,0.1-0.1,0.2-0.1c0.1,0,0.2-0.1,0.3-0.1
			c0.1,0,0.2,0,0.2,0c0.1,0,0.1,0,0.2,0c0.1,0,0.1,0,0.1,0.1s0.1,0,0.1,0.1c0,0,0.1,0.1,0.1,0.1c0,0,0.1,0.1,0.1,0.1
			s0.1,0.1,0.1,0.1c0.1,0.1,0.2,0.2,0.2,0.3c0,0,0.1,0.1,0.2,0.3c0.1,0.1,0.2,0.3,0.3,0.3c0.1,0.1,0.1,0.2,0.2,0.3s0.2,0.2,0.3,0.3
			c0.2,0.2,0.3,0.4,0.4,0.7c0.6,1,0.7,1.7,0.3,2c-0.1,0.1-0.2,0.1-0.4,0c-0.1,0-0.3-0.1-0.4-0.3c-0.2-0.1-0.3-0.3-0.4-0.4
			c-0.1-0.2-0.3-0.3-0.4-0.5c-0.2-0.3-0.4-0.6-0.5-0.8L55.5,72.3z M56.2,72.8l0.4,0.6c0.2,0.3,0.4,0.7,0.7,1c0.5,0.7,0.9,0.9,1,0.8
			c0.1,0,0.1-0.1,0.1-0.3c0-0.2-0.1-0.3-0.2-0.5c-0.2-0.4-0.3-0.6-0.4-0.8c-0.3-0.4-0.8-1.1-1.5-1.9c-0.2-0.2-0.3-0.3-0.4-0.4
			c-0.1-0.1-0.2-0.1-0.3,0c-0.1,0-0.1,0.1-0.1,0.2c0,0.1,0,0.2,0.1,0.3L56.2,72.8z"/>
		<path fill="#35302E" d="M61.1,73.4c0.1-0.1,0.1-0.1,0.2-0.2l0,0c0.2-0.1,0.3-0.1,0.4,0c0.1,0.1-0.1,0.3-0.5,0.7L61,73.9
			C60.9,74,60.8,74,60.8,74c-0.1,0-0.1,0-0.2-0.1l-0.1-0.1c0.1-0.1,0.2-0.1,0.2-0.1c0.1-0.1,0.1-0.1,0.1-0.2c-0.4-0.6-1-1.3-1.8-2.2
			c-0.1-0.1-0.2-0.2-0.3-0.3c-0.3-0.3-0.5-0.5-0.6-0.7L58,70c-0.1-0.2-0.3-0.2-0.4-0.1L57.4,70c-0.1,0.1-0.2,0.1-0.3,0
			c-0.1-0.1,0-0.3,0.4-0.5c0.1-0.1,0.2-0.1,0.3-0.1c0,0,0,0.1,0.1,0.1s0.1,0.1,0.2,0.2c0,0.1,0.2,0.2,0.4,0.4
			c0.2,0.2,0.4,0.4,0.5,0.6c0.2,0.2,0.5,0.6,1,1.2C60.5,72.6,60.9,73,61.1,73.4L61.1,73.4z"/>
		<path fill="#35302E" d="M61.2,69.6l-0.1,0.2c-0.1,0.1-0.2,0.1-0.3,0c-0.1,0-0.1-0.1-0.2-0.2l-0.2-0.3c-0.2-0.2-0.6-0.6-1.1-1
			l0-0.2l0.4-0.4c0.1-0.1,0.2-0.1,0.2-0.1c0,0,0.1,0,0.1,0.1l0,0l0,0.2L59.9,68l0,0l-0.3,0.2c0.2,0.2,0.6,0.6,1.2,1.2
			c0,0,0,0,0.1-0.1c0.1,0,0.1-0.1,0.1-0.1c0.1-0.1,0.2-0.1,0.3-0.1c0.1,0,0.3,0.1,0.5,0.2c0.4,0.2,0.7,0.5,1,0.9
			c0.3,0.3,0.4,0.5,0.5,0.6c0,0.1,0.1,0.2,0.1,0.3c0,0.1,0.1,0.2,0.1,0.2c0,0.2,0,0.4,0,0.6L63.6,72c-0.2,0.2-0.3,0.2-0.4,0.1
			c0,0,0-0.1,0-0.1c0-0.1,0-0.1,0.1-0.1c0,0,0.1-0.1,0.2-0.1c0.1-0.1,0-0.3-0.1-0.5c-0.1-0.2-0.2-0.4-0.3-0.5
			c-0.2-0.2-0.4-0.4-0.7-0.7c-0.5-0.5-0.9-0.7-1-0.6L61.2,69.6L61.2,69.6z"/>
	</g>
	<g>
		<path fill="#35302E" d="M25.9,8.3c-0.3,0.4-0.5,0.9-0.7,1.3c-0.2,0.4-0.5,0.9-0.6,1.4c-0.1,0.4,0.5,0.7,0.7,0.2
			c0.1-0.4,0.4-0.9,0.6-1.3c0.2-0.4,0.4-0.9,0.7-1.2C26.7,8.3,26.1,7.9,25.9,8.3L25.9,8.3z"/>
		<path fill="#35302E" d="M25.8,8.6c-0.3-1.2-0.2-2.8,1-3.5c0.7-0.4,1.6-0.6,2.1-1.2c0.3-0.3-0.2-0.9-0.5-0.5c-0.8,0.9-2.3,0.9-3,2
			c-0.7,1-0.8,2.3-0.5,3.4C25.2,9.2,25.9,9.1,25.8,8.6L25.8,8.6z"/>
		<path fill="#35302E" d="M28.4,3.7c0.1,0.4,0.2,0.8,0.3,1.2c0.3,0.9,0,1.6-0.3,2.4c-0.1,0.5-0.2,0.9-0.6,1.2
			C27.2,9,26.3,9,25.6,8.9c-0.4,0-0.5,0.6-0.1,0.7c1.1,0.1,3,0,3.4-1.3c0.2-0.7,0.5-1.6,0.6-2.4c0.1-0.8-0.2-1.6-0.4-2.4
			C28.9,3.1,28.3,3.2,28.4,3.7L28.4,3.7z"/>
		<path fill="#35302E" d="M27,6.1c-0.1,0.3-0.2,0.5-0.3,0.8c-0.1,0.2-0.3,0.4-0.5,0.6c-0.3,0.4-0.3,0.9-0.5,1.3
			c-0.2,0.4,0.5,0.6,0.7,0.2c0.1-0.2,0.1-0.5,0.2-0.7c0.1-0.3,0.3-0.4,0.4-0.7c0.4-0.4,0.5-0.9,0.7-1.4C27.9,5.9,27.2,5.7,27,6.1
			L27,6.1z"/>
	</g>
	<g>
		<path fill="#35302E" d="M16.9,18.9c-0.3-0.1-0.7,0-1,0c-0.4,0-0.8,0-1.1,0.1c-0.4,0.1-0.3,0.7,0.1,0.6c0.3-0.1,0.6-0.1,1-0.1
			c0.3,0,0.6-0.1,0.9,0C17.2,19.6,17.4,19,16.9,18.9L16.9,18.9z"/>
		<path fill="#35302E" d="M17.2,19.2c0.8-0.8,2.2-1.3,3.3-0.7c0.7,0.4,1.2,1.1,2,1.3c0.4,0.1,0.6-0.5,0.2-0.6
			c-1.2-0.3-1.8-1.5-3.1-1.6c-1.1,0-2.1,0.4-2.9,1.1C16.5,19,16.9,19.5,17.2,19.2L17.2,19.2z"/>
		<path fill="#35302E" d="M22.4,19.3c-0.3,0.3-0.6,0.5-0.9,0.8c-0.7,0.6-1.3,0.7-2.1,0.8c-0.5,0.1-0.8,0.3-1.2,0
			c-0.7-0.4-1-1-1.2-1.7c-0.2-0.4-0.7-0.1-0.6,0.3c0.4,1,1.3,2.5,2.6,2.2c0.7-0.2,1.5-0.3,2.2-0.6c0.7-0.3,1.2-0.9,1.7-1.4
			C23.1,19.5,22.7,19,22.4,19.3L22.4,19.3z"/>
		<path fill="#35302E" d="M19.9,19.2c-0.2,0-0.4,0-0.7,0.1c-0.3,0-0.6-0.1-0.9-0.1c-0.5-0.1-0.9,0.1-1.3,0.1c-0.4,0-0.3,0.7,0.1,0.6
			c0.2,0,0.4-0.1,0.6-0.1c0.3-0.1,0.6,0,0.9,0.1c0.4,0.1,0.8,0,1.3,0C20.2,19.8,20.3,19.2,19.9,19.2L19.9,19.2z"/>
	</g>
	<g>
		<path fill="#35302E" d="M5,25.8c0.1,0.3,0.3,0.6,0.5,0.9c0.2,0.3,0.4,0.6,0.6,0.8c0.3,0.3,0.7-0.2,0.5-0.4
			c-0.2-0.2-0.4-0.5-0.5-0.7c-0.2-0.3-0.4-0.5-0.5-0.8C5.5,25.3,4.9,25.4,5,25.8L5,25.8z"/>
		<path fill="#35302E" d="M5.2,25.4c-1-0.3-2-1.1-2.1-2.2c-0.1-0.9,0.3-1.7,0.1-2.6c-0.1-0.4-0.7-0.2-0.6,0.2
			C2.8,22,2,23.1,2.8,24.3C3.3,25.2,4.1,25.7,5,26C5.4,26.1,5.6,25.5,5.2,25.4L5.2,25.4z"/>
		<path fill="#35302E" d="M2.7,21c1,0.3,1.9,0.7,2.6,1.5c0.3,0.4,0.8,0.8,0.8,1.3c0.1,0.7-0.4,1.3-0.8,1.8C5.1,26,5.6,26.3,5.9,26
			c0.7-0.9,1.4-2.4,0.5-3.3c-0.5-0.5-0.9-1.1-1.5-1.6c-0.5-0.4-1.3-0.5-1.9-0.7C2.5,20.3,2.3,20.9,2.7,21L2.7,21z"/>
		<path fill="#35302E" d="M3.9,23.2c0.1,0.2,0.3,0.4,0.4,0.5c0.2,0.3,0.2,0.5,0.3,0.8c0.1,0.4,0.5,0.6,0.7,1c0.2,0.3,0.8,0,0.5-0.3
			c-0.1-0.2-0.2-0.3-0.4-0.4c-0.2-0.2-0.3-0.4-0.4-0.7c-0.1-0.5-0.4-0.8-0.7-1.2C4.2,22.5,3.6,22.8,3.9,23.2L3.9,23.2z"/>
	</g>
	<g>
		<path fill="#35302E" d="M46.9,5.1c0.2,0.5,0.5,0.9,0.7,1.4c0.2,0.4,0.4,0.8,0.7,1.1c0.3,0.3,0.8-0.1,0.5-0.4
			c-0.3-0.3-0.5-0.8-0.7-1.1c-0.2-0.4-0.5-0.8-0.6-1.2C47.4,4.4,46.8,4.7,46.9,5.1L46.9,5.1z"/>
		<path fill="#35302E" d="M47.1,5.3c-1-0.4-2-1.1-2.2-2.2c-0.2-0.9,0.3-1.9,0.1-2.8C45-0.2,44.3,0,44.4,0.4c0.3,1.3-0.5,2.5,0.2,3.7
			C45.2,5,46,5.6,46.9,5.9C47.3,6,47.5,5.4,47.1,5.3L47.1,5.3z"/>
		<path fill="#35302E" d="M44.6,0.6c1.1,0.4,2,0.7,2.7,1.6C47.6,2.6,48,3,48.1,3.4c0.2,0.8-0.4,1.6-0.9,2.2C47,5.9,47.6,6.3,47.8,6
			c0.8-1,1.6-2.4,0.6-3.5c-0.5-0.5-0.9-1.2-1.5-1.7c-0.5-0.4-1.3-0.5-2-0.8C44.5-0.1,44.2,0.5,44.6,0.6L44.6,0.6z"/>
		<path fill="#35302E" d="M45.8,2.9c0.1,0.2,0.3,0.4,0.5,0.7c0.1,0.2,0.2,0.5,0.3,0.7c0.1,0.5,0.5,0.7,0.7,1.1
			c0.2,0.3,0.8,0.1,0.6-0.3c-0.1-0.2-0.3-0.3-0.4-0.5c-0.2-0.2-0.3-0.4-0.3-0.7c-0.1-0.5-0.4-0.8-0.7-1.3
			C46.2,2.3,45.6,2.6,45.8,2.9L45.8,2.9z"/>
	</g>
	<g>
		<path fill="#35302E" d="M56.2,15.3c0.8,0.1,1.7-0.1,2.4-0.4c0.4-0.2,0.1-0.8-0.3-0.6c-0.6,0.2-1.4,0.3-2,0.3
			C55.8,14.6,55.7,15.3,56.2,15.3L56.2,15.3z"/>
		<path fill="#35302E" d="M55.8,14.9c-0.9,1-2.2,1.6-3.6,1.1c-0.8-0.3-1.4-1-2.3-1.2c-0.4-0.1-0.7,0.6-0.2,0.7
			c1.3,0.3,2.1,1.5,3.6,1.4c1.2-0.1,2.2-0.6,3-1.5C56.6,15.1,56.1,14.6,55.8,14.9L55.8,14.9z"/>
		<path fill="#35302E" d="M50.1,15.5c0.3-0.3,0.6-0.6,0.9-0.9c0.7-0.7,1.2-0.8,2.1-1.1c1.5-0.5,2.4,0.1,3.1,1.5
			c0.2,0.4,0.8,0.1,0.6-0.3c-0.6-1.1-1.6-2.5-3-2.2c-0.7,0.2-1.5,0.5-2.1,0.7c-0.9,0.4-1.3,1.1-2,1.8C49.3,15.3,49.8,15.8,50.1,15.5
			L50.1,15.5z"/>
		<path fill="#35302E" d="M53,15.3c0.3,0,0.5-0.1,0.8-0.2c0.3,0,0.6,0.1,1,0.1c0.5,0,0.9-0.2,1.3-0.3c0.4-0.1,0.3-0.8-0.2-0.7
			c-0.2,0-0.4,0.1-0.7,0.2c-0.3,0.1-0.6,0-0.9,0c-0.5-0.1-1,0.1-1.5,0.2C52.4,14.6,52.5,15.3,53,15.3L53,15.3z"/>
	</g>
	<g>
		<path fill="#35302E" d="M66.3,15.6c-0.1,0.3-0.1,0.7-0.1,1c0,0.4,0,0.8,0.1,1.1c0.1,0.4,0.7,0.3,0.6-0.1c-0.1-0.3-0.1-0.6-0.1-1
			c0-0.3,0-0.6,0-0.9C67,15.4,66.4,15.2,66.3,15.6L66.3,15.6z"/>
		<path fill="#35302E" d="M66.6,15.3c-0.7-0.9-1.3-2.2-0.6-3.3c0.4-0.7,1.1-1.2,1.3-2c0.1-0.4-0.5-0.6-0.6-0.2
			c-0.3,1.2-1.6,1.7-1.7,3c-0.1,1.1,0.3,2.1,1,2.9C66.4,16.1,66.9,15.7,66.6,15.3L66.6,15.3z"/>
		<path fill="#35302E" d="M66.8,10.2c0.2,0.3,0.5,0.6,0.8,0.9c0.5,0.7,0.6,1.3,0.8,2.2c0.1,0.5,0.3,0.8,0,1.2
			c-0.4,0.7-1,0.9-1.7,1.2c-0.4,0.1-0.1,0.7,0.3,0.6c1-0.4,2.5-1.2,2.2-2.5c-0.1-0.7-0.2-1.5-0.5-2.3c-0.2-0.7-0.9-1.2-1.3-1.7
			C67,9.4,66.5,9.9,66.8,10.2L66.8,10.2z"/>
		<path fill="#35302E" d="M66.6,12.7c0,0.2,0,0.4,0,0.7c0,0.3-0.1,0.6-0.1,0.9c-0.1,0.5,0.1,0.9,0.1,1.4c0,0.4,0.7,0.3,0.6-0.1
			c0-0.2-0.1-0.4-0.1-0.6c-0.1-0.3,0.1-0.6,0.1-0.9c0.1-0.4,0-0.8,0-1.3C67.3,12.3,66.6,12.3,66.6,12.7L66.6,12.7z"/>
	</g>
	<g>
		<path fill="#35302E" d="M13.4,70.7c0.4,0.1,0.7,0.1,1.1,0.1c0.4,0,0.7,0,1.1-0.1c0.4-0.1,0.3-0.7-0.1-0.6
			c-0.3,0.1-0.6,0.1-0.9,0.1c-0.3,0-0.6,0-0.9,0C13.1,70,13,70.6,13.4,70.7L13.4,70.7z"/>
		<path fill="#35302E" d="M13.1,70.4c-0.8,0.7-2,1.1-3,0.7c-0.8-0.4-1.3-1.1-2.2-1.4c-0.4-0.1-0.6,0.5-0.2,0.6
			c1.2,0.4,1.8,1.6,3.2,1.6c1,0,1.8-0.4,2.6-1C13.8,70.6,13.4,70.1,13.1,70.4L13.1,70.4z"/>
		<path fill="#35302E" d="M8.1,70.2c0.8-0.7,1.6-1.3,2.7-1.5c0.5-0.1,1-0.2,1.5,0c0.7,0.3,0.9,1,1.1,1.7c0.1,0.4,0.7,0.1,0.6-0.3
			c-0.4-1.1-1.3-2.5-2.6-2.1c-0.7,0.2-1.4,0.2-2.1,0.5c-0.6,0.2-1.1,0.9-1.6,1.3C7.3,70,7.8,70.5,8.1,70.2L8.1,70.2z"/>
		<path fill="#35302E" d="M10.5,70.3c0.2,0,0.4,0,0.7,0c0.3,0,0.6,0.1,0.9,0.1c0.4,0.1,0.8-0.1,1.2-0.1c0.4,0,0.4-0.6,0-0.6
			c-0.2,0-0.4,0-0.5,0.1c-0.3,0.1-0.5,0-0.8,0c-0.5-0.1-0.9-0.1-1.4,0C10.1,69.7,10.1,70.4,10.5,70.3L10.5,70.3z"/>
	</g>
	<g>
		<path fill="#35302E" d="M74.3,58.1c-0.7,0.2-1.5,0.7-2.1,1.2c-0.3,0.3,0.2,0.8,0.5,0.5c0.5-0.4,1.2-0.8,1.8-1
			C74.9,58.6,74.7,58,74.3,58.1L74.3,58.1z"/>
		<path fill="#35302E" d="M74.7,58.3c0.5-1.2,1.5-2.4,2.9-2.3c0.9,0,1.7,0.4,2.6,0.2c0.4-0.1,0.4-0.8,0-0.7c-1.3,0.3-2.5-0.6-3.8,0
			c-1.1,0.5-1.8,1.4-2.2,2.5C73.9,58.5,74.6,58.8,74.7,58.3L74.7,58.3z"/>
		<path fill="#35302E" d="M79.8,55.7c-0.2,0.4-0.3,0.8-0.5,1.2c-0.4,0.9-0.8,1.2-1.5,1.8c-1.2,1-2.2,0.8-3.4-0.2
			c-0.3-0.3-0.8,0.2-0.5,0.5c0.9,0.8,2.4,1.7,3.6,0.9c0.6-0.4,1.2-1,1.7-1.5c0.7-0.7,0.8-1.5,1.2-2.4C80.6,55.6,80,55.3,79.8,55.7
			L79.8,55.7z"/>
		<path fill="#35302E" d="M77.3,57c-0.2,0.1-0.5,0.3-0.7,0.5c-0.3,0.2-0.6,0.2-0.9,0.3c-0.5,0.2-0.7,0.5-1.1,0.8
			c-0.4,0.2,0,0.8,0.4,0.6c0.2-0.1,0.4-0.3,0.6-0.4c0.3-0.2,0.5-0.2,0.8-0.3c0.5-0.1,0.9-0.4,1.4-0.7C78.1,57.3,77.7,56.7,77.3,57
			L77.3,57z"/>
	</g>
	<g>
		<path fill="#35302E" d="M13.1,62c-0.2,0.3-0.2,0.7-0.3,1.1c-0.1,0.4-0.2,0.7-0.2,1.1c0,0.3,0.5,0.4,0.5,0.1c0-0.3,0.1-0.7,0.2-1
			c0.1-0.3,0.2-0.7,0.3-1C13.7,61.9,13.2,61.7,13.1,62L13.1,62z"/>
		<path fill="#35302E" d="M13.1,62.3c-0.4-0.8-0.6-2,0.2-2.7c0.5-0.4,1-0.7,1.4-1.2c0.2-0.3-0.3-0.6-0.4-0.3c-0.4,0.8-1.5,1-1.8,1.9
			c-0.3,0.9-0.2,1.8,0.2,2.6C12.8,62.8,13.2,62.6,13.1,62.3L13.1,62.3z"/>
		<path fill="#35302E" d="M14.2,58.3c0.1,0.3,0.3,0.6,0.4,0.9c0.3,0.6,0.2,1.1,0.2,1.8c0,0.4,0,0.7-0.2,1c-0.4,0.5-1,0.6-1.6,0.6
			c-0.3,0-0.3,0.6,0.1,0.5c0.8-0.1,2.2-0.5,2.2-1.5c0-0.6,0.1-1.2,0-1.8c0-0.6-0.4-1.1-0.7-1.7C14.5,57.8,14,58,14.2,58.3L14.2,58.3
			z"/>
		<path fill="#35302E" d="M13.6,60.3c0,0.2-0.1,0.4-0.1,0.6c-0.1,0.2-0.2,0.4-0.3,0.5c-0.2,0.3-0.1,0.7-0.2,1
			c-0.1,0.3,0.5,0.4,0.5,0.1c0-0.2,0-0.4,0-0.6c0-0.2,0.1-0.4,0.2-0.5c0.2-0.4,0.2-0.7,0.3-1.1C14.2,60,13.6,60,13.6,60.3L13.6,60.3
			z"/>
	</g>
	<g>
		<path fill="#35302E" d="M71.9,51.6c0.1,0.3,0.4,0.7,0.6,1c0.2,0.3,0.4,0.7,0.6,0.9c0.2,0.2,0.6-0.1,0.4-0.3
			c-0.2-0.2-0.4-0.6-0.6-0.9c-0.2-0.3-0.4-0.6-0.5-0.9C72.3,51.1,71.8,51.3,71.9,51.6L71.9,51.6z"/>
		<path fill="#35302E" d="M72.1,51.8c-0.9-0.3-1.9-1-1.9-2c0-0.6,0.2-1.2,0-1.8c-0.1-0.3-0.6-0.2-0.5,0.1c0.3,0.9-0.3,1.8,0.1,2.6
			c0.4,0.8,1.2,1.3,2,1.6C72.3,52.4,72.4,51.9,72.1,51.8L72.1,51.8z"/>
		<path fill="#35302E" d="M69.9,48.3c0.3,0.1,0.6,0.2,0.9,0.3c0.7,0.2,1,0.6,1.5,1.1c0.3,0.3,0.5,0.4,0.5,0.8
			c0.1,0.6-0.3,1.1-0.6,1.6c-0.2,0.3,0.2,0.6,0.4,0.3c0.5-0.7,1.1-1.9,0.5-2.6c-0.4-0.4-0.8-0.9-1.3-1.3c-0.5-0.4-1.1-0.5-1.7-0.6
			C69.8,47.7,69.6,48.2,69.9,48.3L69.9,48.3z"/>
		<path fill="#35302E" d="M71,50.1c0.1,0.2,0.3,0.3,0.4,0.5c0.1,0.2,0.1,0.4,0.2,0.6c0.1,0.4,0.4,0.5,0.6,0.8
			c0.2,0.3,0.6-0.1,0.4-0.3c-0.1-0.2-0.3-0.3-0.4-0.4c-0.1-0.2-0.2-0.3-0.2-0.5c-0.1-0.4-0.4-0.6-0.6-1C71.2,49.5,70.8,49.8,71,50.1
			L71,50.1z"/>
	</g>
</g>
</svg>
