<?xml version="1.0" encoding="utf-8"?>
<!-- Generator: Adobe Illustrator 18.1.0, SVG Export Plug-In . SVG Version: 6.00 Build 0)  -->
<!DOCTYPE svg PUBLIC "-//W3C//DTD SVG 1.1//EN" "http://www.w3.org/Graphics/SVG/1.1/DTD/svg11.dtd">
<svg version="1.1" id="Layer_1" xmlns="http://www.w3.org/2000/svg" xmlns:xlink="http://www.w3.org/1999/xlink" x="0px" y="0px"
	 width="37px" height="21px" viewBox="0 0 37 21" enable-background="new 0 0 37 21" xml:space="preserve">
<g>
	<g opacity="0.25">
		<path d="M0.4,4.6c1.4,2,2.1,2.6,4.2,3.6c2.6,1.3-0.5-0.6,0.7,0.3c0.4,0.3,0.8,0.8,1.2,1.2c0.6,0.6,1.2,1.2,1.8,1.9
			c1.3,1.4,3,2.2,4.3,3.5c1.3,1.3,2.1,3.2,3.2,4.6c0.9,1.2,2.6,0.7,3.5,0c1.7-1.3,3.3-2,4-4.3c0.4-1.4,0.4-0.4-0.3,0.1
			c0.5-0.3,1-0.6,1.5-0.9c0.8-0.4,1.6-0.8,2.4-1.3c1.6-0.9,3.2-2.2,4.4-3.5c0.6-0.7,1.1-1.6,1.8-2.3c0.4-0.4,0.8-0.8,0-0.3
			C33.6,7,34.4,6.8,35,6.6c3-1,1.7-5.8-1.3-4.8c-4.3,1.4-5.7,5.1-9.5,7.4c-1.6,1-3.8,1.5-5,3.1c-0.2,0.3-0.7,1.6-0.8,1.8
			c-0.5,1.8,0.6-0.3,0,0.1c-0.9,0.7-1.8,1.3-2.7,2c1.2,0,2.4,0,3.5,0c-1.1-1.4-1.7-3-2.9-4.3c-1.3-1.5-3-2.2-4.4-3.6
			c-1.2-1.1-2.2-2.6-3.5-3.6c-0.7-0.5-1.5-1-2.5-1.2C4.2,3.2,6.1,4.2,5.7,3.5c-0.3-0.5-0.6-0.9-1-1.4C3-0.5-1.4,2,0.4,4.6L0.4,4.6z"
			/>
	</g>
	<g>
		<path fill="#FFFFFF" d="M0.4,3.6c1.4,2,2.1,2.6,4.2,3.6c2.6,1.3-0.5-0.6,0.7,0.3c0.4,0.3,0.8,0.8,1.2,1.2c0.6,0.6,1.2,1.2,1.8,1.9
			c1.3,1.4,3,2.2,4.3,3.5c1.3,1.3,2.1,3.2,3.2,4.6c0.9,1.2,2.6,0.7,3.5,0c1.7-1.3,3.3-2,4-4.3c0.4-1.4,0.4-0.4-0.3,0.1
			c0.5-0.3,1-0.6,1.5-0.9c0.8-0.4,1.6-0.8,2.4-1.3c1.6-0.9,3.2-2.2,4.4-3.5c0.6-0.7,1.1-1.6,1.8-2.3c0.4-0.4,0.8-0.8,0-0.3
			C33.6,6,34.4,5.8,35,5.6c3-1,1.7-5.8-1.3-4.8c-4.3,1.4-5.7,5.1-9.5,7.4c-1.6,1-3.8,1.5-5,3.1c-0.2,0.3-0.7,1.6-0.8,1.8
			c-0.5,1.8,0.6-0.3,0,0.1c-0.9,0.7-1.8,1.3-2.7,2c1.2,0,2.4,0,3.5,0c-1.1-1.4-1.7-3-2.9-4.3c-1.3-1.5-3-2.2-4.4-3.6
			c-1.2-1.1-2.2-2.6-3.5-3.6c-0.7-0.5-1.5-1-2.5-1.2C4.2,2.2,6.1,3.2,5.7,2.5c-0.3-0.5-0.6-0.9-1-1.4C3-1.5-1.4,1,0.4,3.6L0.4,3.6z"
			/>
	</g>
</g>
</svg>
