<?xml version="1.0" encoding="utf-8"?>
<!-- Generator: Adobe Illustrator 18.1.0, SVG Export Plug-In . SVG Version: 6.00 Build 0)  -->
<!DOCTYPE svg PUBLIC "-//W3C//DTD SVG 1.1//EN" "http://www.w3.org/Graphics/SVG/1.1/DTD/svg11.dtd">
<svg version="1.1" id="Layer_1" xmlns="http://www.w3.org/2000/svg" xmlns:xlink="http://www.w3.org/1999/xlink" x="0px" y="0px"
	 width="83px" height="53px" viewBox="0 0 83 53" enable-background="new 0 0 83 53" xml:space="preserve">
<g>
	<g opacity="0.5">
		<path fill="#FFFFFF" d="M65.8,12.8l-2.5-4.3l-3.3-3.8l-4.3-1.6l-4.5-0.3l-4.5,0.9L43,6.6l-2.9,3.5L36,6l-5.1-1.9l-5.3-1l-4.4,0.6
			l-3.3,3l-2.1,4.1l0.9,4.6l2.6,4.3l3.7,3.3l4.8,3.1l3.9,2.7l4.9,4l2.9,5.6l2.1,6l0.4,6.4l2.5,0l0.6-0.7l1.4-1.6l0.1-6.8l2.7-6.1
			l4.7-3.5l3.8-3.5L62,24l3.8-4.9L65.8,12.8z M59.6,22.1l-5.8,5.8l-6.6,4.6l-2.1,4.1L44,40.9l-2.6-6.7l-6-6.6l-7.2-4.6l-4-2.8
			l-3.6-3.1l-1.7-6l3.3-4.8l5.6-0.8l5,2.8l3.7,2.3l2.5,2.7l0.1,1.7l2.4,0l0.3-1l0.2-1.1l5.6-5.8l4.6-1.8l4.9,1.1l4,2.8l1.5,4.7
			l-0.2,4.3L59.6,22.1z"/>
	</g>
</g>
<g>
	<path fill="#28221F" d="M66,10l-2.6-4.3l-3.6-3.3l-4-1.8l-4.5-0.2l-4.3,1L43,3.9l-2.9,3.5l-4-4.4l-5.3-1.5l-5.2-1l-4.3,0.7
		l-3.7,2.4l-1.2,4.3l0.4,4.6l2.7,4.2l3,4.1l5.3,2.4l4,2.4l4.8,4.4l3.2,5.5l1.5,6.2l0.6,6.3l3,0l0-1l1.9-1.3l-0.1-6.8l2.2-6.5
		l4.9-3.4l3.8-3.5l4.6-4.1l3.2-5.2L66,10z M59.5,19.2l-5.6,5.9l-6.2,4.9l-2.2,3.8l-1.6,4.5l-2.7-6.7l-5.6-6.8l-7.2-4.5l-3.8-3
		l-4-2.8l-1.7-6.1l3.4-5.1l5.7,0l5.4,1.8L36.7,8l2.7,2.7l-0.9,1.8l2.9,0l0-1.2l0.5-1l5.5-6.1l4.9-1.2L57.2,4L60.8,7l2.2,4.3
		l-0.8,4.3L59.5,19.2z"/>
</g>
<g opacity="0.5">
	<g>
		<path fill="#FFFFFF" d="M1.9,24.6l-0.2,1.7c0,0.8,0.1,2.3,0.3,4.5s0.4,3.4,0.6,3.7C3,35,3.6,35.2,4.3,35.2S5.6,35,6,34.5
			c0.3,0,0.5,0,0.8-0.1v0.3c0,0.5-0.1,0.9-0.4,1.2c-0.5,0.5-1.2,0.8-2.2,0.8c-0.5,0-1.1-0.2-1.6-0.5s-0.9-0.8-1.2-1.4
			s-0.5-2.1-0.6-4.5S0.5,26,0.5,24.8s0.1-2.2,0.2-2.8c0-0.3-0.1-0.5-0.1-0.8c0-1,0.4-1.8,1.1-2.3S3.3,18,4.4,18
			c0.4,0,0.8,0.1,1.1,0.3s0.6,0.5,0.6,0.8c0,0.2-0.1,0.3-0.2,0.4s-0.3,0.1-0.6,0.1s-0.4-0.1-0.5-0.3v0H4.4v-0.1
			c-1.2,0-2,0.5-2.3,1.6c-0.2,0.5-0.2,1.2-0.2,2L1.9,24.6z"/>
		<path fill="#FFFFFF" d="M4.2,37.2c-0.6,0-1.3-0.2-1.9-0.6c-0.6-0.4-1.1-1-1.4-1.6c-0.2-0.4-0.5-1.3-0.7-4.6
			C0.1,27.9,0,26.1,0,24.8c0-1.3,0.1-2.2,0.2-2.8c0-0.3-0.1-0.5-0.1-0.7c0-1.1,0.4-2.1,1.3-2.7c0.8-0.7,1.8-1,3-1
			c0.5,0,0.9,0.1,1.4,0.4c0.7,0.4,0.8,0.9,0.8,1.3c0,0.3-0.1,0.6-0.4,0.8c-0.4,0.3-1.1,0.3-1.6,0H3.9v-0.1c-0.7,0.1-1.1,0.5-1.3,1.2
			c-0.1,0.5-0.2,1.1-0.2,1.9l0.1,1.6l-0.2,1.8c0,0.7,0.1,2.2,0.3,4.4c0.3,2.8,0.5,3.4,0.5,3.5c0.3,0.4,0.7,0.6,1.2,0.6
			c0.6,0,1-0.2,1.3-0.5L5.8,34H6c0.2,0,0.4,0,0.6-0.1l0.7-0.2v1c0,0.6-0.2,1.1-0.6,1.5C6.2,36.9,5.3,37.2,4.2,37.2z M4.3,18.5
			c-0.9,0-1.7,0.3-2.3,0.8c-0.6,0.5-0.9,1.1-0.9,2c0,0.2,0,0.4,0.1,0.7l0,0.1l0,0.1C1.1,22.6,1,23.5,1,24.8c0,1.3,0.1,3.1,0.2,5.5
			c0.2,2.9,0.4,3.9,0.6,4.3c0.2,0.5,0.6,0.9,1,1.2c0.4,0.3,0.9,0.5,1.3,0.5C5,36.2,5.6,36,6,35.6c0.1-0.2,0.2-0.3,0.3-0.6
			c0,0,0,0,0,0c-0.5,0.5-1.1,0.7-1.9,0.7c-0.9,0-1.6-0.3-2.1-1c-0.2-0.3-0.4-1-0.7-3.9c-0.2-2.2-0.3-3.7-0.3-4.5l0.2-1.7L1.4,23
			c0-0.9,0.1-1.6,0.3-2.2c0.3-0.9,0.9-1.9,2.7-1.9V18.5z M4.9,18.6l0.4,0.6c0.1,0.1,0.3,0,0.4,0c0-0.1,0-0.3-0.3-0.4
			C5.1,18.7,5,18.6,4.9,18.6z"/>
	</g>
</g>
<g>
	<path fill="#49403A" d="M65.5,11.8l-2-4.5L60,3.6l-4.2-1.9l-4.6,0.1l-4.6,0.7l-3.8,2.9l-2.8,4l-4.4-3.9l-5-2.1l-5.2-1.5l-4.4,0.8
		l-3.3,2.8l-1.9,4.1l1.1,4.5l2.3,4.3l3.2,3.9l5,2.8l3.8,2.9l5.4,3.4l3.2,5.6l2,6.2l0.1,6.4l2.9,0l0-1l1.2-1.4l0.8-6.7l2.6-6.1
		l4.4-3.7l3.9-3.4l4.4-4.3l3.8-4.9L65.5,11.8z M59.9,21.1l-6.1,5.5l-6.5,4.7L45,35.3l-1,4.6L41.5,33l-6-6.7l-7.5-4.1L24,19.7
		l-3.6-3.5L19,10.1l3.2-4.9l5.7-0.6L33,7.1l3.9,2.2l2.4,2.9l-0.7,1.8l3.3,0l0.4-0.8l-0.7-1.3l5.7-6.3l5-1.7l5,1.4l3.6,3.2l2.1,4.3
		l-0.1,4.6L59.9,21.1z"/>
</g>
<g>
	<g>
		<path fill="#49403A" d="M1.9,23.6l-0.2,1.7c0,0.8,0.1,2.3,0.3,4.5s0.4,3.4,0.6,3.7C3,34,3.6,34.2,4.3,34.2S5.6,34,6,33.5
			c0.3,0,0.5,0,0.8-0.1v0.3c0,0.5-0.1,0.9-0.4,1.2c-0.5,0.5-1.2,0.8-2.2,0.8c-0.5,0-1.1-0.2-1.6-0.5s-0.9-0.8-1.2-1.4
			s-0.5-2.1-0.6-4.5S0.5,25,0.5,23.8s0.1-2.2,0.2-2.8c0-0.3-0.1-0.5-0.1-0.8c0-1,0.4-1.8,1.1-2.3S3.3,17,4.4,17
			c0.4,0,0.8,0.1,1.1,0.3s0.6,0.5,0.6,0.8c0,0.2-0.1,0.3-0.2,0.4s-0.3,0.1-0.6,0.1s-0.4-0.1-0.5-0.3v0H4.4v-0.1
			c-1.2,0-2,0.5-2.3,1.6c-0.2,0.5-0.2,1.2-0.2,2L1.9,23.6z"/>
		<path fill="#49403A" d="M4.2,36.2c-0.6,0-1.3-0.2-1.9-0.6c-0.6-0.4-1.1-1-1.4-1.6c-0.2-0.4-0.5-1.3-0.7-4.6
			C0.1,26.9,0,25.1,0,23.8c0-1.3,0.1-2.2,0.2-2.8c0-0.3-0.1-0.5-0.1-0.7c0-1.1,0.4-2.1,1.3-2.7c0.8-0.7,1.8-1,3-1
			c0.5,0,0.9,0.1,1.4,0.4c0.7,0.4,0.8,0.9,0.8,1.3c0,0.3-0.1,0.6-0.4,0.8c-0.4,0.3-1.1,0.3-1.6,0H3.9v-0.1c-0.7,0.1-1.1,0.5-1.3,1.2
			c-0.1,0.5-0.2,1.1-0.2,1.9l0.1,1.6l-0.2,1.8c0,0.7,0.1,2.2,0.3,4.4c0.3,2.8,0.5,3.4,0.5,3.5c0.3,0.4,0.7,0.6,1.2,0.6
			c0.6,0,1-0.2,1.3-0.5L5.8,33H6c0.2,0,0.4,0,0.6-0.1l0.7-0.2v1c0,0.6-0.2,1.1-0.6,1.5C6.2,35.9,5.3,36.2,4.2,36.2z M4.3,17.5
			c-0.9,0-1.7,0.3-2.3,0.8c-0.6,0.5-0.9,1.1-0.9,2c0,0.2,0,0.4,0.1,0.7l0,0.1l0,0.1C1.1,21.6,1,22.5,1,23.8c0,1.3,0.1,3.1,0.2,5.5
			c0.2,2.9,0.4,3.9,0.6,4.3c0.2,0.5,0.6,0.9,1,1.2c0.4,0.3,0.9,0.5,1.3,0.5C5,35.2,5.6,35,6,34.6c0.1-0.2,0.2-0.3,0.3-0.6
			c0,0,0,0,0,0c-0.5,0.5-1.1,0.7-1.9,0.7c-0.9,0-1.6-0.3-2.1-1c-0.2-0.3-0.4-1-0.7-3.9c-0.2-2.2-0.3-3.7-0.3-4.5l0.2-1.7L1.4,22
			c0-0.9,0.1-1.6,0.3-2.2c0.3-0.9,0.9-1.9,2.7-1.9V17.5z M4.9,17.6l0.4,0.6c0.1,0.1,0.3,0,0.4,0c0-0.1,0-0.3-0.3-0.4
			C5.1,17.7,5,17.6,4.9,17.6z"/>
	</g>
</g>
<g opacity="0.5">
	<g>
		<path fill="#FFFFFF" d="M75.9,28.6l0-4.6c0-1.7,0-2.8-0.1-3.2s-0.1-0.8-0.2-1.1s-0.1-0.5-0.1-0.7s0.1-0.3,0.2-0.5s0.3-0.2,0.5-0.2
			c0.6,0,0.9,0.6,0.9,1.9c0,0,0,1.7-0.1,4.9c0.1-0.1,0.2-0.5,0.4-1.2s0.5-1.3,0.8-2s0.5-1.3,0.8-2c0.7-1.6,1.2-2.4,1.4-2.4
			c0.2,0,0.3,0.1,0.5,0.2s0.2,0.3,0.2,0.4s-0.4,1.2-1.3,3s-1.4,3-1.5,3.5v0.4c0.2,0.6,0.9,2.6,1.9,5.8s1.6,5,1.6,5.2
			s-0.1,0.4-0.2,0.5s-0.3,0.2-0.5,0.2l-0.6-0.1c-0.4-2.3-0.8-4.3-1.2-6s-0.9-3.3-1.6-4.8c-0.4,0.9-0.7,1.4-0.7,1.5
			C77,28,77,28.4,77,28.7l0.2,4.5c0,2.2-0.3,3.2-0.8,3.2c-0.5,0-0.7-0.4-0.7-1.2s0.1-1.9,0.2-3.4S75.9,29.3,75.9,28.6z"/>
		<path fill="#FFFFFF" d="M81.2,37.4L81.2,37.4l-1-0.2l-0.1-0.4c-0.4-2.3-0.8-4.3-1.2-5.9c-0.3-1.3-0.7-2.5-1.2-3.7
			c-0.1,0.3-0.2,0.4-0.2,0.4c0,0.4-0.1,0.7-0.1,1.1l0.2,4.4c0,1.9-0.2,3.8-1.3,3.8c-0.4,0-1.2-0.2-1.2-1.7c0-0.8,0.1-2,0.2-3.4
			c0.1-1.4,0.2-2.5,0.2-3.2l0-4.6c0-1.7,0-2.8-0.1-3.2c0-0.4-0.1-0.7-0.2-1c-0.1-0.3-0.1-0.6-0.1-0.8c0-0.3,0.1-0.6,0.3-0.8
			c0.2-0.3,0.5-0.4,0.9-0.4c0.9,0,1.4,0.8,1.4,2.4c0,0,0,0.7,0,2.1c0.1-0.1,0.1-0.3,0.2-0.4c0.3-0.7,0.5-1.3,0.8-2
			c1-2.2,1.4-2.7,1.9-2.7c0.3,0,0.6,0.1,0.8,0.3c0.2,0.2,0.4,0.5,0.4,0.8c0,0.2,0,0.4-1.4,3.2c-1,2.1-1.3,3-1.4,3.3V25
			c0.3,0.7,0.9,2.6,1.9,5.8c1.6,5,1.6,5.2,1.6,5.4c0,0.3-0.1,0.7-0.4,0.9C81.8,37.3,81.5,37.4,81.2,37.4z M81,36.4l0.2,0
			c0.1,0,0.1,0,0.2-0.1c0,0,0.1-0.1,0.1-0.1c0-0.1-0.2-0.8-1.2-3.9C80.5,33.5,80.8,34.9,81,36.4z M76.3,18.8c0,0-0.1,0-0.1,0.1
			c-0.1,0.1-0.1,0.1-0.1,0.2c0,0.1,0,0.3,0.1,0.6c0.1,0.3,0.1,0.7,0.2,1.1c0.1,0.4,0.1,1.5,0.1,3.3l0,4.6c0,0.7-0.1,1.8-0.2,3.3
			c-0.1,1.4-0.2,2.5-0.2,3.3c0,0.1,0,0.7,0.2,0.7c0,0,0.3-0.4,0.3-2.7l-0.2-4.4c0-0.2,0-0.5,0-0.8l0,0l0.1-2.8
			c0.1-3.2,0.1-4.9,0.1-4.9C76.7,19.3,76.5,18.8,76.3,18.8z M80.6,18.1c-0.1,0.1-0.4,0.6-1.1,2c-0.3,0.7-0.6,1.4-0.8,2
			c-0.3,0.7-0.5,1.3-0.7,2c-0.2,0.6-0.4,1-0.4,1.2l-0.1,0.2l0.4-0.7l0.1,0.3l0-0.5c0.1-0.3,0.3-1.1,1.5-3.6
			C80.5,18.8,80.7,18.3,80.6,18.1C80.7,18.2,80.7,18.2,80.6,18.1z"/>
	</g>
</g>
<g>
	<g>
		<path fill="#49403A" d="M75.9,27.6l0-4.6c0-1.7,0-2.8-0.1-3.2s-0.1-0.8-0.2-1.1s-0.1-0.5-0.1-0.7s0.1-0.3,0.2-0.5s0.3-0.2,0.5-0.2
			c0.6,0,0.9,0.6,0.9,1.9c0,0,0,1.7-0.1,4.9c0.1-0.1,0.2-0.5,0.4-1.2s0.5-1.3,0.8-2s0.5-1.3,0.8-2c0.7-1.6,1.2-2.4,1.4-2.4
			c0.2,0,0.3,0.1,0.5,0.2s0.2,0.3,0.2,0.4s-0.4,1.2-1.3,3s-1.4,3-1.5,3.5v0.4c0.2,0.6,0.9,2.6,1.9,5.8s1.6,5,1.6,5.2
			s-0.1,0.4-0.2,0.5s-0.3,0.2-0.5,0.2l-0.6-0.1c-0.4-2.3-0.8-4.3-1.2-6s-0.9-3.3-1.6-4.8c-0.4,0.9-0.7,1.4-0.7,1.5
			C77,27,77,27.4,77,27.7l0.2,4.5c0,2.2-0.3,3.2-0.8,3.2c-0.5,0-0.7-0.4-0.7-1.2s0.1-1.9,0.2-3.4S75.9,28.3,75.9,27.6z"/>
		<path fill="#49403A" d="M81.2,36.4L81.2,36.4l-1-0.2l-0.1-0.4c-0.4-2.3-0.8-4.3-1.2-5.9c-0.3-1.3-0.7-2.5-1.2-3.7
			c-0.1,0.3-0.2,0.4-0.2,0.4c0,0.4-0.1,0.7-0.1,1.1l0.2,4.4c0,1.9-0.2,3.8-1.3,3.8c-0.4,0-1.2-0.2-1.2-1.7c0-0.8,0.1-2,0.2-3.4
			c0.1-1.4,0.2-2.5,0.2-3.2l0-4.6c0-1.7,0-2.8-0.1-3.2c0-0.4-0.1-0.7-0.2-1c-0.1-0.3-0.1-0.6-0.1-0.8c0-0.3,0.1-0.6,0.3-0.8
			c0.2-0.3,0.5-0.4,0.9-0.4c0.9,0,1.4,0.8,1.4,2.4c0,0,0,0.7,0,2.1c0.1-0.1,0.1-0.3,0.2-0.4c0.3-0.7,0.5-1.3,0.8-2
			c1-2.2,1.4-2.7,1.9-2.7c0.3,0,0.6,0.1,0.8,0.3c0.2,0.2,0.4,0.5,0.4,0.8c0,0.2,0,0.4-1.4,3.2c-1,2.1-1.3,3-1.4,3.3V24
			c0.3,0.7,0.9,2.6,1.9,5.8c1.6,5,1.6,5.2,1.6,5.4c0,0.3-0.1,0.7-0.4,0.9C81.8,36.3,81.5,36.4,81.2,36.4z M81,35.4l0.2,0
			c0.1,0,0.1,0,0.2-0.1c0,0,0.1-0.1,0.1-0.1c0-0.1-0.2-0.8-1.2-3.9C80.5,32.5,80.8,33.9,81,35.4z M76.3,17.8c0,0-0.1,0-0.1,0.1
			c-0.1,0.1-0.1,0.1-0.1,0.2c0,0.1,0,0.3,0.1,0.6c0.1,0.3,0.1,0.7,0.2,1.1c0.1,0.4,0.1,1.5,0.1,3.3l0,4.6c0,0.7-0.1,1.8-0.2,3.3
			c-0.1,1.4-0.2,2.5-0.2,3.3c0,0.1,0,0.7,0.2,0.7c0,0,0.3-0.4,0.3-2.7l-0.2-4.4c0-0.2,0-0.5,0-0.8l0,0l0.1-2.8
			c0.1-3.2,0.1-4.9,0.1-4.9C76.7,18.3,76.5,17.8,76.3,17.8z M80.6,17.1c-0.1,0.1-0.4,0.6-1.1,2c-0.3,0.7-0.6,1.4-0.8,2
			c-0.3,0.7-0.5,1.3-0.7,2c-0.2,0.6-0.4,1-0.4,1.2l-0.1,0.2l0.4-0.7l0.1,0.3l0-0.5c0.1-0.3,0.3-1.1,1.5-3.6
			C80.5,17.8,80.7,17.3,80.6,17.1C80.7,17.2,80.7,17.2,80.6,17.1z"/>
	</g>
</g>
</svg>
