<?xml version="1.0" encoding="utf-8"?>
<!-- Generator: Adobe Illustrator 18.1.0, SVG Export Plug-In . SVG Version: 6.00 Build 0)  -->
<!DOCTYPE svg PUBLIC "-//W3C//DTD SVG 1.1//EN" "http://www.w3.org/Graphics/SVG/1.1/DTD/svg11.dtd">
<svg version="1.1" id="Layer_1" xmlns="http://www.w3.org/2000/svg" xmlns:xlink="http://www.w3.org/1999/xlink" x="0px" y="0px"
	 width="26px" height="7px" viewBox="0 0 26 7" enable-background="new 0 0 26 7" xml:space="preserve">
<g>
	<path fill="#684F3E" d="M3.1,0C1.2,0,0,1.4,0,3.1s1.2,3.1,3.1,3.1c2.1,0,3.1-1.4,3.1-3.1S5.3,0,3.1,0z"/>
	<path fill="#684F3E" d="M13,0c-1.9,0-3.1,1.4-3.1,3.1s1.2,3.1,3.1,3.1c2.1,0,3.1-1.4,3.1-3.1S15.2,0,13,0z"/>
	<path fill="#684F3E" d="M22.9,0c-1.9,0-3.1,1.4-3.1,3.1s1.2,3.1,3.1,3.1C25,6.2,26,4.8,26,3.1S25.1,0,22.9,0z"/>
</g>
</svg>
