<?xml version="1.0" encoding="utf-8"?>
<!-- Generator: Adobe Illustrator 18.1.0, SVG Export Plug-In . SVG Version: 6.00 Build 0)  -->
<!DOCTYPE svg PUBLIC "-//W3C//DTD SVG 1.1//EN" "http://www.w3.org/Graphics/SVG/1.1/DTD/svg11.dtd">
<svg version="1.1" id="Layer_1" xmlns="http://www.w3.org/2000/svg" xmlns:xlink="http://www.w3.org/1999/xlink" x="0px" y="0px"
	 width="350px" height="162px" viewBox="0 0 350 162" enable-background="new 0 0 350 162" xml:space="preserve">
<g>
	<path fill="#FFFFFF" d="M108.6,144.3c0.4,2.1,0.8,4.8,1.2,8.1c0.4,3.3,0.6,5.9,0.6,7.7c0,0.5-0.3,0.7-1,0.7s-1-0.2-1-0.6v-2.9
		c-0.3-0.1-0.8-0.3-1.5-0.4c-0.7-0.1-1.3-0.2-1.9-0.2c-0.2,0.3-0.4,0.9-0.6,1.9c-0.1,0.9-0.3,1.6-0.6,1.9c-0.9,0-1.5-0.1-1.6-0.4
		c0.4-0.5,1.3-3.6,2.7-9.3c0.5-2.2,0.8-3.6,0.9-3.9c0.5-1.9,1.1-2.9,1.7-2.9C108.1,144.1,108.4,144.2,108.6,144.3L108.6,144.3z
		 M108.5,156c0-0.3-0.1-1.1-0.3-2.4c-0.4-3.4-0.6-5.3-0.6-5.7c0-0.4,0-0.6,0-0.7c-0.1,0.1-0.4,1.1-0.8,3.1c-0.4,2-0.7,3.1-0.7,3.3
		c-0.1,0.2-0.1,0.4-0.3,0.7c-0.3,0.6-0.4,1.1-0.4,1.5c0.8,0.2,1.5,0.2,2,0.2C107.9,156.1,108.3,156.1,108.5,156z"/>
	<path fill="#FFFFFF" d="M119.4,160.4c0,0.5-0.2,0.7-0.7,0.7c-0.4,0-0.7-0.2-1.1-0.6v-0.1c0-0.6-0.3-1.4-0.7-2.4
		c-0.4-1-0.7-1.7-0.8-2.1c-0.1-0.4-0.3-1-0.5-2c-0.2-1-0.4-1.8-0.6-2.3v8.7c0,0.5-0.3,0.7-1,0.7c-0.2,0-0.4-0.1-0.6-0.2
		c-0.2-0.1-0.2-0.3-0.2-0.4v-0.2l0.2-13v-2.7c0-0.2,0-0.3,0.1-0.4c0.1-0.1,0.4-0.1,0.8-0.1s0.9,0.1,1.4,0.3c0.5,0.2,0.9,0.5,1.1,0.9
		c0.6,0.7,0.9,1.6,0.9,2.5c0,0.7-0.2,1.5-0.7,2.5c-0.1,0.1-0.2,0.3-0.3,0.6c-0.2,0.3-0.3,0.5-0.3,0.6c0,0.6,0.1,1.3,0.4,2.2
		c0.2,0.9,0.5,1.6,0.7,2.1s0.6,1.4,1.1,2.5c0.5,1.1,0.8,1.8,0.8,1.9V160.4z M114.9,145l-0.2,4.5c0,0.5,0,0.8,0,1
		c0.3-0.2,0.6-0.5,0.9-0.9l0.4-1.9c0-0.8-0.1-1.4-0.4-1.9C115.5,145.3,115.2,145,114.9,145z"/>
	<path fill="#FFFFFF" d="M124.9,152.7l-0.7,0c-0.2,0-0.4,0.1-0.5,0.2v6.8c1,0,1.5-0.1,1.5-0.1c1.1,0,1.6,0.2,1.6,0.6v0.1
		c-0.1,0.2-0.4,0.4-0.7,0.5c-0.3,0.1-0.6,0.2-0.8,0.2c-0.2,0-0.6,0-0.9,0h-0.9c-0.7,0-1.2-0.1-1.4-0.3c-0.1-0.1-0.1-0.2-0.1-0.4v-16
		l2.5-0.2c0.3,0,0.6,0.1,0.9,0.2c0.3,0.1,0.5,0.3,0.5,0.5c0,0.4-0.4,0.7-1.3,0.7l-0.8,0c-0.1,0-0.2,0-0.3,0l0.2,3.7
		c0,0.3,0,0.7-0.1,1.3c0,0.6-0.1,1-0.1,1.2c0.1,0,0.2,0,0.4-0.1c0.4-0.1,0.7-0.1,0.9-0.1s0.4,0.1,0.6,0.2c0.2,0.1,0.3,0.3,0.3,0.4
		c0,0.2-0.1,0.3-0.2,0.5C125.3,152.7,125.1,152.7,124.9,152.7z"/>
	<path fill="#FFFFFF" d="M136.7,148l-0.1,2.9c0,1.4,0.2,2.5,0.5,3.4v0c-0.1,0.5-0.2,1-0.2,1.7l0.2,4c0,0.7-0.3,1.1-0.8,1.1
		c-0.3,0-0.6-0.1-0.7-0.3c-0.2-0.2-0.2-0.5-0.2-0.8l0.2-3.5c0-0.8-0.1-1.9-0.2-3.5c-0.1-1.5-0.2-2.7-0.2-3.5l0-1.9
		c0-1.1-0.1-1.8-0.3-2.1l-1.6,0.1c-0.2,0-0.5-0.1-0.7-0.2c-0.2-0.1-0.3-0.3-0.3-0.4s0.2-0.3,0.7-0.5c0.5-0.1,1-0.2,1.7-0.3
		c1.2-0.1,2.2-0.2,3-0.2c0.2,0,0.5,0.1,0.7,0.2c0.2,0.1,0.3,0.3,0.3,0.4s-0.1,0.3-0.3,0.4c-0.2,0.1-0.4,0.2-0.6,0.2l-1,0
		c-0.1,0-0.2,0-0.3,0C136.7,146.1,136.7,147,136.7,148z"/>
	<path fill="#FFFFFF" d="M144.6,158.9l0,1.1v0.5c0,0.2-0.1,0.4-0.3,0.5c-0.2,0.1-0.4,0.2-0.6,0.2c-0.2,0-0.4-0.1-0.5-0.2
		c-0.1-0.1-0.2-0.2-0.2-0.4l0.1-4.3c0-0.4-0.1-1.1-0.3-1.9c-0.2-0.8-0.3-1.5-0.3-2s-0.1-1.1-0.4-1.9c-0.2-0.7-0.5-1.4-0.8-2
		c-0.8-1.5-1.1-2.9-1.1-4c0-0.2,0.3-0.4,0.9-0.4c0.1,0,0.3,0,0.4,0.1c0.2,0.1,0.2,0.2,0.2,0.3c0.2,1.7,0.7,3.5,1.5,5.4
		c0-0.1,0.1-0.4,0.1-0.9c0.1-0.5,0.1-1,0.2-1.5s0.2-1,0.3-1.6c0.3-1.2,0.6-1.8,1.2-1.8s0.8,0.1,0.8,0.2c0,0.8-0.2,2.1-0.7,3.7
		c-0.5,1.6-0.7,2.9-0.7,3.8l0.1,0.8v0.3L144.6,158.9z"/>
	<path fill="#FFFFFF" d="M151.4,159.6l0.6,0c0.8,0,1.2,0.1,1.2,0.4c0.1,0.2,0,0.4-0.1,0.5c-0.1,0.1-0.4,0.2-0.6,0.2h-3.7
		c-0.6,0-0.8-0.2-0.8-0.5c0-0.3,0.3-0.5,0.9-0.5l0.9,0c0.1,0,0.1-0.4,0.1-1.1c0-0.7-0.1-2.2-0.3-4.5c-0.2-2.3-0.3-4-0.3-5.1l0.1-2.3
		c0-0.5,0-0.9-0.1-1.2c-0.3,0.1-0.5,0.1-0.7,0.1c-0.5,0-0.7-0.2-0.7-0.5c0-0.2,0.1-0.3,0.4-0.5c0.3-0.1,0.7-0.2,1.1-0.3
		c0.8-0.1,1.4-0.2,1.8-0.2c0.4,0,0.7,0.1,0.9,0.2c0.2,0.1,0.3,0.3,0.3,0.4c0,0.2-0.1,0.3-0.2,0.4c-0.1,0.1-0.3,0.2-0.5,0.2l-0.5,0
		c-0.2,0-0.3,0-0.4,0.1c-0.1,0.1-0.1,0.2-0.1,0.4c0,1.4,0.1,3.6,0.4,6.5s0.4,5,0.4,6.5V159.6z"/>
	<path fill="#FFFFFF" d="M163.3,145.2l-0.1,8.2v6.8c0,0.4-0.2,0.6-0.6,0.8c-0.2,0.1-0.4,0.1-0.6,0.1s-0.4,0-0.5-0.1
		c-0.1-0.1-0.2-0.1-0.3-0.2c-0.1-0.1-0.1-0.2-0.2-0.3c0-0.1-0.1-0.2-0.1-0.3c-0.1-0.5-0.5-1.6-1.1-3.3c-1.2-3.2-2-5.7-2.3-7.3
		c0-0.1,0-0.1,0-0.2c0-0.1,0-0.2,0-0.2c0-0.2-0.1-0.3-0.2-0.4c0-0.3-0.1-0.7-0.3-1.2c-0.2-0.5-0.3-0.8-0.3-0.9v14h-1v-0.4
		c0-0.1,0-0.3,0-0.7c0-0.3-0.1-0.8-0.1-1.2c0-0.5-0.1-1.6-0.2-3.3c-0.1-1.7-0.2-2.8-0.2-3.2v-2.8l0.2-4.1c0-0.5,0.1-0.9,0.2-0.9
		c0.2-0.1,0.5-0.2,0.8-0.2c0.3,0,0.5,0,0.6,0.1c0.3,0.1,0.5,0.3,0.5,0.6c0,0.2,0,0.5,0.1,0.7c0.1,0.2,0.2,0.5,0.3,0.8
		c0.1,0.3,0.2,0.5,0.3,0.7c0.1,0.2,0.1,0.3,0.2,0.6c0,0.2,0.1,0.4,0.1,0.6c0.1,0.6,0.2,1,0.3,1.4c0.1,0.4,0.3,1,0.6,1.8
		c0.3,0.8,0.6,1.5,0.8,2.1c0.6,1.6,1,3,1.1,4.2c0.2,0.2,0.2,0.5,0.3,0.8l0.1-7.7v-6.6c0.1-0.4,0.4-0.6,1-0.6c0.5,0,0.8,0.3,0.8,0.9
		v0.1C163.4,144.7,163.3,145,163.3,145.2z"/>
	<path fill="#FFFFFF" d="M172.7,156.8l-1.1,0.1c-0.6,0-1-0.2-1-0.6c0-0.4,0.6-0.6,1.8-0.7c0.2,0,0.5,0,0.8,0s0.5,0.1,0.8,0.3
		c0.2,0.2,0.3,0.5,0.3,0.9c0,0.4,0.1,1,0.3,1.9c0.2,0.9,0.3,1.5,0.3,1.8c0,0.5-0.2,0.8-0.7,0.8s-0.8-0.2-1-0.5v0
		c-0.1,0-0.3,0.1-0.6,0.3c-0.6,0.2-1.1,0.4-1.6,0.4s-0.9-0.1-1.3-0.2c-0.4-0.1-0.8-0.3-1.1-0.5c-0.3-0.2-0.6-0.5-0.9-0.8
		c-0.3-0.3-0.5-0.7-0.6-1c-0.2-0.3-0.3-0.7-0.4-1.2c-0.1-0.4-0.2-0.8-0.3-1.2c-0.1-0.4-0.1-0.8-0.1-1.2c0-0.6-0.1-1.3-0.1-2.1l0-1.6
		c0-3.5,0.6-5.8,1.9-6.9c0.8-0.7,1.7-1,2.9-1c0.8,0,1.2,0.2,1.2,0.6c0,0.2-0.1,0.3-0.2,0.4c-0.1,0.1-0.3,0.1-0.5,0.1l-0.8-0.1
		c-0.7,0-1.3,0.3-1.7,1c-0.4,0.7-0.7,1.4-0.8,2.1c-0.1,0.7-0.2,1.2-0.3,1.6c-0.1,0.4-0.1,0.9-0.1,1.4c0,0.7-0.1,1.4-0.1,2.1l0,1.4
		c0,1.5,0.1,2.5,0.2,3.1c0.2,0.6,0.3,1,0.5,1.4c0.2,0.4,0.4,0.6,0.6,0.9c0.5,0.5,1.2,0.8,2.1,0.8s1.5-0.3,2.1-0.9
		C173.1,158,173,157.2,172.7,156.8z"/>
	<path fill="#FFFFFF" d="M185.2,148l-0.1,2.9c0,1.4,0.2,2.5,0.5,3.4v0c-0.1,0.5-0.2,1-0.2,1.7l0.2,4c0,0.7-0.3,1.1-0.8,1.1
		c-0.3,0-0.6-0.1-0.7-0.3c-0.2-0.2-0.2-0.5-0.2-0.8l0.2-3.5c0-0.8-0.1-1.9-0.2-3.5c-0.1-1.5-0.2-2.7-0.2-3.5l0-1.9
		c0-1.1-0.1-1.8-0.3-2.1l-1.6,0.1c-0.2,0-0.5-0.1-0.7-0.2c-0.2-0.1-0.3-0.3-0.3-0.4s0.2-0.3,0.7-0.5c0.5-0.1,1-0.2,1.7-0.3
		c1.2-0.1,2.2-0.2,3-0.2c0.2,0,0.5,0.1,0.7,0.2c0.2,0.1,0.3,0.3,0.3,0.4s-0.1,0.3-0.3,0.4c-0.2,0.1-0.4,0.2-0.6,0.2l-1,0
		c-0.1,0-0.2,0-0.3,0C185.1,146.1,185.2,147,185.2,148z"/>
	<path fill="#FFFFFF" d="M193.6,151.9l-0.3-7.3c0-0.1,0.1-0.2,0.2-0.4c0.2-0.1,0.3-0.2,0.6-0.2c0.2,0,0.4,0.1,0.6,0.4
		c0.2,0.3,0.2,0.7,0.2,1.3c0,1.6,0.1,4.1,0.3,7.3c0.2,3.3,0.3,5.7,0.3,7.3c0,0.2-0.1,0.4-0.2,0.5c-0.2,0.2-0.4,0.3-0.6,0.3
		c-0.5,0-0.7-0.2-0.7-0.7c0-2.8-0.1-5.4-0.2-7.8c-0.5-0.1-1-0.1-1.4-0.1c-0.4,0-0.8,0.1-1.2,0.2c0,0.8,0.1,2.1,0.3,3.7
		c0.2,1.7,0.2,2.9,0.2,3.8c0,0.1-0.1,0.3-0.2,0.4c-0.1,0.1-0.3,0.2-0.5,0.2c-0.3,0-0.6-0.1-0.7-0.3c-0.2-0.2-0.3-0.7-0.3-1.6
		c0-0.8-0.1-1.8-0.1-2.8c0-1,0-1.6,0-1.8c-0.4-3.8-0.5-7.1-0.5-9.8v-0.2c0-0.2,0.2-0.3,0.5-0.3c0.6,0,0.9,0.2,1,0.5
		c-0.1,0.5-0.1,1.1-0.1,1.7l0.2,4.6l0,0.8c0,0.2,0,0.4,0.1,0.6L193.6,151.9z"/>
	<path fill="#FFFFFF" d="M201.4,152.7l-0.7,0c-0.2,0-0.4,0.1-0.5,0.2v6.8c1,0,1.5-0.1,1.5-0.1c1.1,0,1.6,0.2,1.6,0.6v0.1
		c-0.1,0.2-0.4,0.4-0.7,0.5c-0.3,0.1-0.6,0.2-0.8,0.2c-0.2,0-0.6,0-0.9,0H200c-0.7,0-1.2-0.1-1.4-0.3c-0.1-0.1-0.1-0.2-0.1-0.4v-16
		l2.5-0.2c0.3,0,0.6,0.1,0.9,0.2c0.3,0.1,0.5,0.3,0.5,0.5c0,0.4-0.4,0.7-1.3,0.7l-0.8,0c-0.1,0-0.2,0-0.3,0l0.2,3.7
		c0,0.3,0,0.7-0.1,1.3s-0.1,1-0.1,1.2c0.1,0,0.2,0,0.4-0.1c0.4-0.1,0.7-0.1,0.9-0.1c0.2,0,0.4,0.1,0.6,0.2c0.2,0.1,0.3,0.3,0.3,0.4
		c0,0.2-0.1,0.3-0.2,0.5C201.9,152.7,201.7,152.7,201.4,152.7z"/>
	<path fill="#FFFFFF" d="M210,153.7l0-4.2c0-1.6,0-2.6-0.1-3c-0.1-0.4-0.1-0.7-0.2-1c-0.1-0.3-0.1-0.5-0.1-0.7
		c0-0.2,0.1-0.3,0.2-0.5c0.2-0.1,0.4-0.2,0.6-0.2c0.7,0,1.1,0.6,1.1,1.8c0,0,0,1.5-0.1,4.6c0.1-0.1,0.2-0.5,0.5-1.1
		c0.3-0.6,0.6-1.2,0.9-1.8c0.3-0.6,0.6-1.2,1-1.9c0.8-1.5,1.4-2.2,1.8-2.2c0.2,0,0.4,0.1,0.6,0.2c0.2,0.1,0.3,0.2,0.3,0.4
		s-0.5,1.1-1.6,2.8c-1.1,1.7-1.7,2.8-1.8,3.2v0.4c0.3,0.6,1.1,2.4,2.3,5.4c1.3,3,1.9,4.6,1.9,4.8c0,0.2-0.1,0.3-0.3,0.5
		s-0.4,0.2-0.6,0.2l-0.7-0.1c-0.5-2.1-1-4-1.5-5.5c-0.5-1.6-1.2-3-2-4.5c-0.5,0.8-0.8,1.3-0.9,1.4c-0.1,0.4-0.1,0.7-0.1,1.1l0.2,4.1
		c0,2-0.3,3-1,3c-0.6,0-0.9-0.4-0.9-1.1s0.1-1.8,0.2-3.1C210,155.4,210,154.4,210,153.7z"/>
	<path fill="#FFFFFF" d="M227.5,145.2l-0.1,8.2v6.8c0,0.4-0.2,0.6-0.6,0.8c-0.2,0.1-0.4,0.1-0.6,0.1s-0.4,0-0.5-0.1
		c-0.1-0.1-0.2-0.1-0.3-0.2c-0.1-0.1-0.1-0.2-0.1-0.3c0-0.1-0.1-0.2-0.1-0.3c-0.1-0.5-0.5-1.6-1.1-3.3c-1.2-3.2-2-5.7-2.3-7.3
		c0-0.1,0-0.1,0-0.2c0-0.1,0-0.2,0-0.2c0-0.2-0.1-0.3-0.2-0.4c0-0.3-0.1-0.7-0.3-1.2c-0.2-0.5-0.3-0.8-0.3-0.9v14h-1v-0.4
		c0-0.1,0-0.3,0-0.7c0-0.3-0.1-0.8-0.1-1.2c0-0.5-0.1-1.6-0.2-3.3c-0.1-1.7-0.2-2.8-0.2-3.2v-2.8l0.2-4.1c0-0.5,0.1-0.9,0.2-0.9
		c0.2-0.1,0.5-0.2,0.8-0.2c0.3,0,0.5,0,0.6,0.1c0.3,0.1,0.5,0.3,0.5,0.6c0,0.2,0,0.5,0.1,0.7c0.1,0.2,0.2,0.5,0.3,0.8
		c0.1,0.3,0.2,0.5,0.3,0.7c0.1,0.2,0.1,0.3,0.2,0.6c0,0.2,0.1,0.4,0.1,0.6c0.1,0.6,0.2,1,0.3,1.4c0.1,0.4,0.3,1,0.6,1.8
		c0.3,0.8,0.6,1.5,0.8,2.1c0.6,1.6,1,3,1.1,4.2c0.2,0.2,0.2,0.5,0.3,0.8l0.1-7.7v-6.6c0.1-0.4,0.4-0.6,1-0.6s0.8,0.3,0.8,0.9v0.1
		C227.6,144.7,227.5,145,227.5,145.2z"/>
	<path fill="#FFFFFF" d="M237.8,154.2l-0.3,2.8v0.1c-0.1,0.4-0.2,0.9-0.2,1.3c0,0.5-0.1,0.9-0.3,1.4c-0.2,0.4-0.5,0.8-1,1.2
		c-0.4,0.3-0.9,0.5-1.5,0.5s-1-0.1-1.4-0.4c-0.4-0.3-0.8-0.6-1.1-1.1c-0.3-0.4-0.5-0.9-0.8-1.5c-0.2-0.6-0.4-1.2-0.5-1.7
		c-0.1-0.6-0.2-1.2-0.3-1.8c-0.1-1-0.2-1.8-0.2-2.4s0-1.1,0-1.5c0-0.7,0.1-1.4,0.1-1.9c0-0.6,0.1-1,0.1-1.3c0-0.3,0-0.6,0-0.8
		s0-0.5,0.1-0.8c0-0.3,0.1-0.6,0.2-0.8c0.1-0.2,0.2-0.4,0.3-0.7c0.1-0.2,0.3-0.4,0.5-0.6c0.4-0.3,0.9-0.5,1.5-0.5c0.5,0,1,0,1.3,0.1
		c0.3,0.1,0.6,0.2,0.8,0.3c0.2,0.1,0.4,0.3,0.6,0.5c0.2,0.2,0.3,0.4,0.5,0.6c0.1,0.2,0.2,0.4,0.3,0.7c0.1,0.3,0.2,0.8,0.4,1.5
		C237.5,149.9,237.8,152.2,237.8,154.2z M235.2,146c-0.2-0.4-0.4-0.7-0.7-0.9c-0.3-0.2-0.6-0.3-0.8-0.3c-0.3,0-0.5,0.1-0.6,0.2
		c-0.2,0.1-0.3,0.3-0.4,0.5c-0.1,0.2-0.2,0.4-0.3,0.6s-0.2,0.5-0.2,0.8c-0.1,0.3-0.1,0.6-0.2,0.9c0,0.3-0.1,0.6-0.1,1
		c0,0.4-0.1,0.7-0.1,0.9s0,0.5,0,0.8c0,0.3,0,0.5,0,0.6v0.5c0,1.2,0.1,2.6,0.4,4.1c0.6,3,1.4,4.5,2.5,4.5c0.4,0,0.7-0.3,1-0.8
		c0.3-0.6,0.5-1.2,0.6-2.1c0.2-1.4,0.3-2.4,0.3-3.1c0-0.6,0-1.1,0-1.4c0-0.3,0-0.7,0-1.2c0-0.5-0.1-1-0.1-1.5
		c-0.1-0.5-0.1-1-0.2-1.5c-0.1-0.6-0.2-1.1-0.4-1.5C235.5,146.8,235.4,146.4,235.2,146z"/>
	<path fill="#FFFFFF" d="M244.1,148l-0.1,2.9c0,1.4,0.2,2.5,0.5,3.4v0c-0.1,0.5-0.2,1-0.2,1.7l0.2,4c0,0.7-0.3,1.1-0.8,1.1
		c-0.3,0-0.6-0.1-0.7-0.3c-0.2-0.2-0.2-0.5-0.2-0.8l0.2-3.5c0-0.8-0.1-1.9-0.2-3.5c-0.1-1.5-0.2-2.7-0.2-3.5l0-1.9
		c0-1.1-0.1-1.8-0.3-2.1l-1.6,0.1c-0.2,0-0.5-0.1-0.7-0.2c-0.2-0.1-0.3-0.3-0.3-0.4s0.2-0.3,0.7-0.5c0.5-0.1,1-0.2,1.7-0.3
		c1.2-0.1,2.2-0.2,3-0.2c0.2,0,0.5,0.1,0.7,0.2c0.2,0.1,0.3,0.3,0.3,0.4s-0.1,0.3-0.3,0.4c-0.2,0.1-0.4,0.2-0.6,0.2l-1,0
		c-0.1,0-0.2,0-0.3,0C244,146.1,244.1,147,244.1,148z"/>
</g>
<path fill="#FFFFFF" d="M1.6,56.6c-0.6,0-1.2-0.3-1.5-0.9c-0.4-0.8,0-1.8,0.8-2.2c0.3-0.1,0.6-0.3,0.9-0.5c0.4-0.2,0.8-0.5,1.3-0.7
	c0.6-0.3,1.2-0.5,1.8-0.8l0.5-0.2c0.3-0.1,0.6-0.3,0.9-0.4c0.4-0.2,0.9-0.5,1.3-0.7L8,50.1c0.6-0.2,1.2-0.5,1.8-0.7
	c0.3-0.1,0.6-0.3,0.9-0.4c0.4-0.2,0.9-0.4,1.3-0.5l0.5-0.2c0.6-0.2,1.2-0.4,1.8-0.6l0.7-0.2c0.5-0.2,1.1-0.4,1.6-0.5
	c0.4-0.1,0.9-0.2,1.4-0.3c0.3-0.1,0.7-0.1,1-0.2c0.6-0.2,1.2-0.2,1.6-0.2c0.3,0,0.6,0,0.8-0.1c0.2,0,0.4-0.2,0.7-0.4
	c0.4-0.2,0.9-0.6,1.5-0.7c0.5-0.1,1.1-0.2,1.5-0.2c0.3,0,0.6,0,0.9-0.1c0.2-0.1,0.5-0.2,0.8-0.3c0.4-0.2,0.9-0.4,1.5-0.6
	c1.1-0.3,1.9,0.3,2.4,0.5c0.1,0,0.1,0.1,0.2,0.1c0.3,0.1,0.7,0.1,1.1,0.1c0.2-0.1,0.8-0.2,2-0.9c0.2-0.1,0.5-0.3,0.7-0.6
	c0.5-0.5,1.1-1,2-1.2c0.5-0.1,0.9-0.2,1.4-0.3l1-0.2c0.4-0.1,0.9-0.1,1.3-0.2c0.4,0,0.7-0.1,1.1-0.2c0.6-0.1,1.1-0.1,1.5-0.1
	c0.3,0,0.7,0,0.9,0c0.4-0.1,0.7-0.1,1.1-0.2c0.4-0.1,0.9-0.2,1.3-0.2c0.4-0.1,0.9-0.1,1.4-0.1c0.4,0,0.7-0.1,1-0.1
	c0.3,0,0.6-0.1,0.9-0.2c0.4-0.1,0.9-0.3,1.4-0.4c0.5-0.1,1.1-0.1,1.5-0.1c0.3,0,0.6,0,0.9,0c0.2,0,0.5-0.1,0.8-0.3
	c0.5-0.2,1-0.4,1.6-0.5c0.6-0.1,1.1,0,1.6,0c0.3,0,0.6,0.1,0.9,0c0.1,0,0.4-0.2,0.6-0.3c0.5-0.2,1-0.5,1.7-0.6
	c0.6-0.1,1.1,0,1.6,0.1c0.3,0,0.6,0.1,0.8,0.1c0.3,0,0.6-0.1,0.9-0.2c0.4-0.1,0.9-0.3,1.5-0.3c0.4,0,0.7-0.1,1.1-0.2
	c0.4-0.1,0.9-0.2,1.3-0.2c0.5,0,0.9,0,1.4,0c0.3,0,0.7,0,1,0c0.4,0,0.9-0.1,1.3-0.1c0.4,0,0.7-0.1,1.1-0.1c0.6-0.1,1.1,0,1.5,0
	c0.3,0,0.6,0.1,0.9,0c0.3,0,0.6-0.1,0.9-0.2c0.4-0.1,0.9-0.3,1.5-0.3c0.6-0.1,1.1,0,1.6,0.1c0.2,0,0.4,0.1,0.5,0.1
	c0-0.1,0.1-0.1,0.1-0.2c0.3-0.6,0.9-1.9,2.5-2c0.7-0.1,1.5,0,2.6,0.3l2,0.5c0.4,0.1,0.7,0.2,1,0.3c0.2,0.1,0.4,0.2,0.5,0.2
	c0.3,0,0.8,0,1.2-0.1c0.4,0,0.7,0,1.1-0.1c0.4,0,0.8-0.1,1.3-0.1c0.4,0,0.7,0,1.1-0.1c0.2,0,0.5-0.1,0.8-0.2c0.5-0.2,1-0.3,1.6-0.4
	c0.4,0,0.9,0,1.3,0c0.3,0,0.7,0,1,0c0.6,0,1.1,0,1.5,0.1c0.3,0,0.6,0.1,0.9,0.1c0.3,0,0.7-0.1,1-0.1c0.4-0.1,0.9-0.1,1.3-0.2
	c0.4,0,0.8,0,1.3-0.1c0.4,0,0.7,0,1.1,0c0.4,0,0.8-0.1,1.1-0.1c0.4,0,0.8-0.1,1.2-0.1c0.2,0,0.5-0.1,0.9-0.2
	c0.4-0.1,0.9-0.3,1.5-0.3c0.6,0,1.1,0.1,1.6,0.1c0.3,0.1,0.6,0.1,0.8,0.1c0.4,0,0.8,0,1.2-0.1c0.4,0,0.7,0,1.1-0.1
	c0.1,0,0.4-0.1,0.7-0.2c0.4-0.2,1-0.4,1.6-0.5c0.6,0,1.2,0.1,1.7,0.2c0.3,0.1,0.6,0.1,0.7,0.1c0.4,0,0.8-0.1,1.2-0.1
	c0.4,0,0.8,0,1.2-0.1c0.4,0,0.7-0.1,1.1-0.2c0.4-0.1,0.8-0.2,1.3-0.2l2.3-0.2c0.4,0,0.8-0.1,1.2-0.2c0.4-0.1,0.7-0.1,1.1-0.2
	c1.5-0.2,2.4,0.2,3,0.5c0.6,0.3,0.8,0.4,1.3,0.3c0.2,0,0.6-0.2,1-0.3c0.3-0.1,0.6-0.2,0.9-0.3c0.4-0.1,0.8-0.3,1.2-0.4
	c0.3-0.1,0.6-0.2,0.9-0.4c0.3-0.1,0.6-0.3,0.8-0.4c0.4-0.2,0.8-0.4,1.2-0.6c0.9-0.3,1.7-0.5,2.4-0.7c0.6-0.1,1.1,0,1.5,0.2
	c0.1-0.1,0.3-0.1,0.4-0.2c0.4-0.2,0.9-0.5,1.5-0.7c0.6-0.1,1.2-0.1,1.7-0.1c0.2,0,0.6,0,0.7,0c0.2,0,0.4-0.2,0.7-0.3
	c0.4-0.2,0.9-0.5,1.4-0.6c0.5-0.1,1-0.2,1.5-0.2c0.3,0,0.6,0,0.8-0.1c0.4-0.1,0.8-0.2,1.2-0.3c0.3-0.1,0.7-0.2,1-0.3
	c0.4-0.1,0.8-0.2,1.3-0.3c0.3-0.1,0.7-0.1,1-0.2c0.2-0.1,0.5-0.2,0.7-0.4c0.4-0.2,0.8-0.5,1.4-0.6c0.4-0.1,0.9-0.2,1.4-0.3
	c0.3,0,0.6-0.1,0.9-0.2c0.4-0.1,0.7-0.2,1.1-0.4c0.4-0.1,0.8-0.3,1.1-0.4c0.3-0.1,0.6-0.2,1-0.4c0.4-0.2,0.8-0.3,1.2-0.5
	c0.5-0.2,1.1-0.2,1.5-0.3c0.3,0,0.6-0.1,0.8-0.1c0.4-0.1,0.7-0.3,1.1-0.4c0.4-0.1,0.7-0.3,1.1-0.4c0.7-0.3,1.5-0.5,2.2-0.8
	c0.1-0.1,0.3-0.1,0.4-0.1c-0.3-0.1-0.7-0.3-1-0.5l-0.5-0.3c-0.6-0.4-1.1-0.7-1.6-1.1c-0.2-0.2-0.5-0.3-0.7-0.5
	c-0.4-0.3-0.9-0.6-1.4-1c-0.5-0.6-0.9-1.2-1.1-1.7c-0.1-0.2-0.2-0.4-0.3-0.6c-0.4-0.7-0.6-1.3-0.8-1.9c-0.1-0.2-0.1-0.4-0.2-0.6
	c-0.1-0.1-0.2-0.3-0.4-0.5c-0.3-0.4-0.8-0.9-0.9-1.7c-0.2-0.8-0.2-1.5-0.2-2.1l0-0.5c-0.1-1.1,0.1-2,0.2-2.7c0.2-1,0.4-1.9,0.8-2.7
	c0.5-0.9,1.2-1.7,2-2.2c0.9-0.6,1.9-0.6,2.6-0.6c0.2,0,0.3,0,0.5,0c0.9-0.1,1.8,0,2.9,0.5c0.1,0.1,0.3,0.1,0.4,0.2
	c0.6,0.2,1.4,0.6,2.1,1.3c0.5,0.6,0.7,1.2,0.8,1.8c0.1,0.2,0.1,0.5,0.2,0.7c0,0,0,0.1,0,0.1c0.1-0.2,0.2-0.5,0.4-0.7
	c0.5-0.9,1.2-1.6,1.7-2.1c0.7-0.8,1.5-1.1,2.2-1.4c0.2-0.1,0.3-0.1,0.5-0.2c0.9-0.5,1.9-0.9,3-0.9c1.1,0,2.2,0.1,3.3,0.7
	c0.9,0.5,1.3,1.4,1.5,2.1c0.1,0.2,0.2,0.4,0.3,0.6c0.1,0.1,0.2,0.3,0.3,0.4c0.4,0.5,0.9,1.2,1.1,2.2l0.1,0.5
	c0.1,0.7,0.3,1.5,0.3,2.4c0,0.7-0.3,1.3-0.5,1.8c-0.1,0.3-0.2,0.5-0.3,0.8c-0.1,0.2-0.1,0.4-0.1,0.7c-0.1,0.6-0.2,1.2-0.5,1.9
	c-0.3,0.8-0.8,1.7-1.4,2.4c-0.4,0.5-0.9,0.9-1.4,1.2c-0.2,0.1-0.4,0.3-0.7,0.5c-0.6,0.6-1.3,1-2,1.5c-0.2,0.1-0.3,0.3-0.5,0.5
	c-0.4,0.4-0.8,0.8-1.4,1.1c-0.5,0.3-1.1,0.4-1.6,0.5c-0.2,0-0.4,0.1-0.5,0.1c0.1,0,0.3,0.1,0.4,0.1c0.4,0.1,0.7,0.3,1.1,0.4
	c0.3,0.1,0.7,0.3,1,0.5c0.3,0.2,0.7,0.3,1,0.5c0.6,0.2,1.3,0.5,2,0.7c0.6,0.2,1,0.5,1.4,0.7c0.3,0.2,0.5,0.3,0.7,0.4
	c0.3,0.1,0.7,0.2,1,0.4c0.4,0.1,0.8,0.3,1.2,0.4c0.4,0.1,0.7,0.2,1.1,0.3c0.4,0.1,0.7,0.2,1.1,0.3c0.3,0.1,0.6,0.2,1,0.2
	c0.4,0.1,0.8,0.2,1.3,0.3c0.3,0.1,0.6,0.1,0.9,0.1c0.4,0.1,0.9,0.1,1.4,0.3c0.3,0.1,0.7,0.2,1,0.2c0.4,0.1,0.8,0.2,1.2,0.3
	c0.7,0.2,1.2,0.6,1.6,0.9c0.2,0.1,0.4,0.3,0.5,0.3c0.1,0,0.4,0,0.7,0c0.5,0,1.1,0,1.7,0.1c0.6,0.1,1,0.4,1.4,0.6
	c0.3,0.2,0.5,0.3,0.7,0.3c0.1,0,0.4,0,0.7,0c0.5,0,1,0,1.6,0.1c0.6,0.1,1.1,0.4,1.4,0.7c0.2,0.1,0.4,0.3,0.5,0.3
	c0.1,0,0.3,0,0.5-0.1c0.5-0.1,1.1-0.2,1.7,0c0.5,0.1,1,0.3,1.4,0.5c0.2,0.1,0.5,0.2,0.7,0.3c0.3,0.1,0.6,0.1,1,0.2
	c0.4,0.1,0.8,0.2,1.2,0.2c0.2,0,0.8,0.1,1.5,0c0.3,0,0.5-0.1,0.8-0.2c0.4-0.1,0.8-0.2,1.2-0.3c0.3,0,0.6-0.2,0.8-0.3
	c0.5-0.2,1.1-0.4,1.7-0.3c1.6,0.3,2.2,1.4,2.5,2c0,0,0,0.1,0,0.1c0.1,0,0.4,0.1,0.9,0.1c0.5,0.1,1,0.2,1.4,0.4
	c0.3,0.1,0.6,0.2,0.8,0.2c0.3,0,0.7,0,1,0.1c0.4,0,0.8,0,1.3,0.1c0.4,0,0.8,0.1,1.2,0.2c0.3,0.1,0.7,0.1,1,0.2c0.2,0,0.5,0,0.8,0
	c0.4,0,0.9-0.1,1.5,0c0.6,0.1,1.1,0.3,1.6,0.5c0.2,0.1,0.5,0.2,0.7,0.2c0.3,0,0.7,0,1,0c0.4,0,0.8,0,1.3,0c0.4,0,0.8,0.1,1.2,0.2
	c0.3,0.1,0.7,0.1,1,0.1c0.2,0,0.5,0,0.8-0.1c0.4-0.1,0.9-0.1,1.5-0.1c0.3,0,0.6,0,0.9,0c0.5,0,0.9-0.1,1.4,0c0.3,0,0.7,0,1,0
	c0.4,0,0.8,0,1.2,0c0.7,0,1.2,0.3,1.6,0.5c0.2,0.1,0.5,0.2,0.6,0.2c0.4,0,0.8,0.1,1.2,0.1c0.3,0,0.7,0.1,1,0.1c0.4,0,0.7,0,1.1,0
	c0.4,0,0.8,0,1.2,0.1c0.7,0,1.4,0.3,2.2,0.7l0.3,0.1c0.3,0.1,0.6,0.2,0.9,0.3c0.4,0.1,0.9,0.2,1.3,0.4c0.5,0.2,1,0.3,1.4,0.3
	c0.4-0.6,1.1-1.4,2.7-1.3c0.4,0,0.7,0,1.1,0c0.4,0,0.8,0,1.3,0.1c0.4,0,0.7,0,1.1,0c0.4,0,0.9,0,1.3,0c0.5,0,0.9,0.1,1.4,0.2
	c0.3,0.1,0.6,0.1,0.9,0.2c0.3,0,0.6,0,0.9,0c0.5,0,1-0.1,1.4,0l2.3,0.2c0.3,0,0.6,0,0.9,0c0.4,0,0.9-0.1,1.5,0
	c0.4,0,0.8,0.1,1.3,0.1c0.4,0,0.7,0.1,1.1,0.1c0.3,0,0.7,0,1,0c0.5,0,0.9,0,1.4,0c0.6,0.1,1.2,0.3,1.6,0.4c0.3,0.1,0.5,0.2,0.7,0.2
	c0.2,0,0.5,0,0.8,0c0.5,0,1-0.1,1.5,0c0.6,0.1,1.2,0.3,1.6,0.5c0.2,0.1,0.5,0.2,0.7,0.2c0.1,0,0.4-0.1,0.6-0.1
	c0.5-0.1,1.1-0.3,1.8-0.2c0.6,0.1,1.1,0.3,1.5,0.4c0.3,0.1,0.6,0.2,0.8,0.2c0.3,0,0.7,0.1,1,0.1c0.4,0,0.9,0.1,1.3,0.1
	c0.6,0.1,1.1,0.2,1.5,0.4c0.3,0.1,0.6,0.2,0.8,0.2c0.1,0,0.4-0.1,0.6-0.1c0.5-0.1,1.1-0.3,1.8-0.2c0.7,0.1,1.2,0.4,1.6,0.6
	c0.2,0.1,0.5,0.3,0.6,0.3c0.1,0,0.5-0.1,0.8-0.2c0.5-0.1,1-0.3,1.5-0.3c1.2-0.2,2.4-0.1,3.2,0.1c1.3,0.2,1.9,1,2.3,1.4
	c0.2,0.3,0.3,0.3,0.4,0.3c0.4,0.1,0.9,0.2,1.3,0.2c0.3,0.1,0.7,0.1,1,0.2c0.1,0,0.4,0,0.7,0c0.5-0.1,1.1-0.1,1.7,0
	c0.4,0.1,0.8,0.2,1.3,0.3c0.3,0.1,0.7,0.2,1,0.2c0.4,0.1,0.9,0.2,1.3,0.3c0.3,0.1,0.6,0.2,1,0.3c0.6,0.1,1.1,0.4,1.5,0.6
	c0.3,0.1,0.5,0.3,0.7,0.3c0.1,0,0.4,0,0.7,0c0.5,0,1-0.1,1.7,0.1c0.4,0.1,0.8,0.2,1.3,0.3c0.3,0.1,0.7,0.2,1,0.3
	c0.4,0.1,0.8,0.2,1.3,0.4c0.3,0.1,0.6,0.2,1,0.3c0.5,0.1,1,0.3,1.4,0.5c0.3,0.1,0.5,0.3,0.8,0.3c0.3,0.1,0.6,0.1,0.9,0.2
	c0.5,0.1,0.9,0.1,1.4,0.3c0.4,0.1,0.8,0.3,1.2,0.4c0.3,0.1,0.6,0.2,1,0.3c0.3,0.1,0.6,0.1,0.9,0.2c0.5,0.1,0.9,0.2,1.3,0.3
	c0.5,0.2,1,0.4,1.4,0.6c0.3,0.2,0.5,0.3,0.7,0.4c0.2,0.1,0.5,0.1,0.8,0.1c0.5,0,1,0.1,1.5,0.3c0.3,0.1,0.6,0.1,0.8,0.2
	c0.4,0.1,0.9,0.1,1.5,0.3c0.5,0.2,0.9,0.4,1.3,0.6c0.3,0.1,0.5,0.3,0.8,0.4c0.3,0.1,0.6,0.2,0.9,0.2c0.5,0.1,0.9,0.2,1.4,0.4
	c0.8,0.3,1.3,1.3,0.9,2.1c-0.3,0.8-1.3,1.3-2.1,0.9c-0.3-0.1-0.6-0.2-0.9-0.2c-0.4-0.1-0.9-0.2-1.3-0.4c-0.4-0.2-0.8-0.4-1.2-0.6
	c-0.3-0.1-0.5-0.3-0.8-0.4c-0.2-0.1-0.5-0.1-0.9-0.2c-0.4-0.1-0.9-0.1-1.4-0.3c-0.2-0.1-0.5-0.1-0.8-0.1c-0.4,0-1-0.1-1.5-0.3
	c-0.5-0.2-1-0.4-1.3-0.6c-0.3-0.2-0.5-0.3-0.7-0.4c-0.3-0.1-0.6-0.2-1-0.2c-0.4-0.1-0.9-0.2-1.3-0.3c-0.4-0.1-0.7-0.2-1.1-0.4
	c-0.3-0.1-0.7-0.2-1-0.3c-0.3-0.1-0.6-0.1-1-0.2c-0.4-0.1-0.9-0.1-1.3-0.2c-0.5-0.1-0.9-0.3-1.3-0.5c-0.3-0.1-0.5-0.3-0.8-0.3
	c-0.4-0.1-0.8-0.2-1.2-0.4c-0.3-0.1-0.7-0.2-1-0.3c-0.4-0.1-0.7-0.2-1.1-0.3c-0.4-0.1-0.7-0.2-1.1-0.3c-0.1,0-0.4,0-0.7,0
	c-0.5,0-1,0.1-1.6-0.1c-0.6-0.1-1-0.4-1.5-0.6c-0.3-0.1-0.5-0.3-0.7-0.3c-0.4-0.1-0.8-0.2-1.2-0.3c-0.3-0.1-0.7-0.2-1-0.3
	c-0.4-0.1-0.7-0.2-1.1-0.2c-0.4-0.1-0.8-0.2-1.2-0.3c-0.1,0-0.4,0-0.7,0c-0.5,0.1-1,0.1-1.7,0c-0.3-0.1-0.7-0.1-1-0.2
	c-0.4-0.1-0.8-0.2-1.2-0.2c-1.3-0.2-1.9-1-2.3-1.4c-0.2-0.3-0.2-0.3-0.3-0.3c-0.6-0.1-1.4-0.2-2.3-0.1c-0.4,0.1-0.7,0.2-1.1,0.3
	c-0.7,0.2-1.4,0.4-2.2,0.3c-0.6-0.1-1.2-0.4-1.6-0.6c-0.2-0.1-0.5-0.3-0.6-0.3c-0.1,0-0.4,0.1-0.6,0.1c-0.5,0.1-1.1,0.3-1.8,0.2
	c-0.6-0.1-1-0.2-1.5-0.4c-0.3-0.1-0.6-0.2-0.8-0.2c-0.4,0-0.7-0.1-1.1-0.1c-0.4,0-0.8,0-1.3-0.1c-0.6-0.1-1.1-0.3-1.5-0.4
	c-0.3-0.1-0.6-0.2-0.8-0.2c-0.1,0-0.4,0.1-0.6,0.1c-0.5,0.1-1.1,0.3-1.8,0.2c-0.6-0.1-1.2-0.3-1.6-0.5c-0.3-0.1-0.5-0.2-0.7-0.2
	c-0.2,0-0.5,0-0.9,0c-0.4,0-1,0.1-1.5,0c-0.6-0.1-1.2-0.3-1.6-0.4c-0.3-0.1-0.5-0.2-0.7-0.2c-0.3,0-0.7,0-1,0c-0.5,0-0.9,0-1.3,0
	c-0.4,0-0.8-0.1-1.2-0.1c-0.4,0-0.7-0.1-1.1-0.1c-0.3,0-0.6,0-0.9,0c-0.4,0-0.9,0.1-1.4,0l-2.3-0.2c-0.3,0-0.6,0-1,0
	c-0.5,0-0.9,0.1-1.4,0c-0.5,0-0.9-0.1-1.4-0.2c-0.3-0.1-0.6-0.1-0.9-0.2c-0.4,0-0.7,0-1.1,0c-0.4,0-0.8,0-1.3,0c-0.4,0-0.7,0-1.1,0
	c-0.3,0-0.7,0-1,0c-0.4,0.6-1.1,1.4-2.6,1.3c-0.6,0-1.6-0.1-2.7-0.6c-0.3-0.1-0.6-0.2-0.9-0.3c-0.5-0.1-0.9-0.2-1.3-0.4l-0.3-0.1
	c-0.4-0.2-1-0.4-1.2-0.5c-0.3,0-0.7,0-1.1,0c-0.4,0-0.8,0-1.2-0.1c-0.4,0-0.8-0.1-1.3-0.1c-0.3,0-0.7-0.1-1-0.1
	c-0.7,0-1.2-0.3-1.7-0.5c-0.2-0.1-0.5-0.2-0.6-0.2c-0.3,0-0.7,0-1,0c-0.4,0-0.8,0-1.3,0c-0.3,0-0.6,0-0.9,0c-0.5,0-0.9,0.1-1.4,0
	c-0.2,0-0.5,0-0.8,0.1c-0.4,0.1-0.9,0.1-1.5,0.1c-0.4,0-0.9-0.1-1.3-0.2c-0.3-0.1-0.7-0.1-1-0.1c-0.3,0-0.7,0-1,0
	c-0.4,0-0.9,0-1.3,0c-0.6-0.1-1.2-0.3-1.6-0.5c-0.2-0.1-0.5-0.2-0.6-0.2c-0.2,0-0.5,0-0.8,0c-0.4,0-0.9,0.1-1.5,0
	c-0.4,0-0.9-0.1-1.3-0.2c-0.3-0.1-0.6-0.1-1-0.2c-0.3,0-0.7,0-1-0.1c-0.4,0-0.9,0-1.3-0.1c-0.6-0.1-1-0.2-1.5-0.4
	c-0.3-0.1-0.6-0.2-0.8-0.2c-1-0.1-2.3-0.3-3.1-1.4c-0.1-0.2-0.2-0.4-0.4-0.6c0,0,0-0.1,0-0.1c-0.4,0.2-0.9,0.4-1.5,0.5
	c-0.3,0-0.5,0.1-0.8,0.2c-0.4,0.1-0.8,0.2-1.2,0.3c-1.1,0.2-2.1,0.1-2.6,0c-0.4-0.1-0.9-0.2-1.3-0.3c-0.3-0.1-0.6-0.1-0.9-0.2
	c-0.6-0.1-1.1-0.4-1.5-0.5c-0.2-0.1-0.5-0.2-0.6-0.3c-0.1,0-0.3,0-0.5,0.1c-0.5,0.1-1.1,0.2-1.8,0c-0.6-0.1-1.1-0.5-1.5-0.7
	c-0.2-0.1-0.4-0.3-0.5-0.3c-0.2,0-0.5,0-0.7,0c-0.5,0-1,0-1.6-0.1c-0.6-0.2-1.1-0.4-1.5-0.6c-0.3-0.1-0.5-0.3-0.7-0.3
	c-0.1,0-0.4,0-0.7,0c-0.5,0-1,0-1.6-0.1c-0.7-0.2-1.2-0.6-1.6-0.9c-0.2-0.1-0.4-0.3-0.5-0.3c-0.3-0.1-0.7-0.2-1-0.2
	c-0.4-0.1-0.9-0.2-1.3-0.3c-0.3-0.1-0.6-0.1-0.9-0.2c-0.4-0.1-0.9-0.1-1.4-0.3c-0.3-0.1-0.7-0.2-1-0.2c-0.4-0.1-0.9-0.2-1.3-0.3
	c-0.3-0.1-0.7-0.2-1-0.3c-0.4-0.1-0.8-0.2-1.2-0.4c-0.4-0.1-0.9-0.3-1.3-0.5c-0.3-0.1-0.6-0.2-0.9-0.3c-0.6-0.2-1.1-0.5-1.4-0.8
	c-0.2-0.2-0.5-0.3-0.6-0.4c-0.8-0.3-1.5-0.6-2.2-0.8c-0.5-0.2-0.9-0.4-1.3-0.6c-0.3-0.1-0.5-0.3-0.8-0.4c-0.3-0.1-0.6-0.2-0.9-0.3
	c-0.4-0.2-0.9-0.3-1.3-0.5c-0.5-0.2-0.9-0.4-1.3-0.6c-0.3,0.1-0.7,0.3-1,0.4c-0.4,0.2-0.9,0.3-1.3,0.4c-0.3,0.1-0.6,0.2-0.9,0.3
	c-0.7,0.3-1.4,0.5-2.2,0.8c-0.3,0.1-0.6,0.2-0.9,0.3c-0.4,0.2-0.9,0.3-1.3,0.5c-0.5,0.2-1,0.2-1.5,0.3c-0.3,0-0.6,0.1-0.8,0.1
	c-0.3,0.1-0.6,0.2-0.9,0.3c-0.4,0.2-0.9,0.4-1.3,0.5c-0.3,0.1-0.6,0.2-0.9,0.3c-0.4,0.2-0.9,0.3-1.3,0.4c-0.4,0.1-0.9,0.2-1.4,0.3
	c-0.3,0-0.6,0.1-1,0.2c-0.2,0-0.4,0.2-0.7,0.3c-0.4,0.2-0.9,0.5-1.5,0.6c-0.4,0.1-0.8,0.2-1.3,0.3c-0.3,0.1-0.7,0.1-1,0.2
	c-0.3,0.1-0.6,0.2-1,0.3c-0.4,0.1-0.8,0.2-1.3,0.3c-0.5,0.1-1,0.2-1.5,0.2c-0.3,0-0.6,0-0.9,0.1c-0.2,0-0.4,0.2-0.7,0.3
	c-0.4,0.2-0.9,0.5-1.5,0.6c-0.6,0.1-1.2,0.1-1.7,0.1c-0.3,0-0.6,0-0.7,0c-0.1,0-0.4,0.2-0.6,0.3c-0.4,0.2-0.9,0.5-1.5,0.7
	c-0.7,0.2-1.2-0.1-1.6-0.2c-0.5,0.1-1.1,0.3-1.7,0.5c-0.3,0.1-0.5,0.2-0.8,0.4c-0.4,0.2-0.8,0.4-1.3,0.6c-0.3,0.1-0.5,0.2-0.8,0.3
	c-0.5,0.2-0.9,0.4-1.4,0.5c-0.3,0.1-0.5,0.2-0.8,0.3c-0.5,0.2-1.1,0.4-1.6,0.5c-1.5,0.2-2.4-0.2-3.1-0.5c-0.6-0.2-0.8-0.3-1.4-0.3
	c-0.3,0-0.7,0.1-1,0.1c-0.4,0.1-0.9,0.1-1.3,0.2l-2.4,0.2c-0.3,0-0.7,0.1-1,0.2c-0.4,0.1-0.9,0.2-1.3,0.2c-0.4,0-0.8,0.1-1.3,0.1
	c-0.4,0-0.7,0-1.1,0.1c-0.6,0.1-1.2-0.1-1.7-0.1c-0.3-0.1-0.6-0.1-0.8-0.1c-0.1,0-0.4,0.1-0.6,0.2c-0.5,0.2-1,0.4-1.7,0.5
	c-0.4,0-0.8,0.1-1.3,0.1c-0.4,0-0.7,0-1.1,0.1c-0.6,0-1.1-0.1-1.6-0.1c-0.3-0.1-0.6-0.1-0.8-0.1c-0.2,0-0.5,0.1-0.8,0.2
	c-0.4,0.1-0.9,0.3-1.5,0.3c-0.4,0-0.7,0.1-1.1,0.1c-0.4,0-0.8,0.1-1.2,0.1c-0.4,0-0.8,0-1.3,0.1c-0.4,0-0.7,0-1.1,0
	c-0.3,0-0.7,0.1-1,0.1c-0.4,0.1-0.9,0.1-1.3,0.2c-0.6,0-1.1,0-1.5-0.1c-0.3,0-0.6-0.1-0.9-0.1c-0.4,0-0.9,0-1.3,0c-0.3,0-0.7,0-1,0
	c-0.2,0-0.5,0.1-0.8,0.2c-0.5,0.2-1,0.3-1.6,0.4c-0.4,0-0.8,0-1.2,0.1c-0.4,0-0.8,0-1.2,0.1c-0.4,0-0.8,0-1.2,0.1
	c-0.4,0-0.7,0-1.1,0.1c-0.7,0-1.3-0.2-1.8-0.4c-0.2-0.1-0.4-0.2-0.7-0.2l-2-0.5c-0.6-0.1-1-0.2-1.3-0.2c0,0.1-0.1,0.1-0.1,0.2
	c-0.3,0.6-0.9,1.9-2.5,2c-0.6,0-1.1,0-1.6-0.1c-0.3-0.1-0.6-0.1-0.8-0.1c-0.2,0-0.6,0.1-0.9,0.2c-0.4,0.1-0.9,0.3-1.5,0.3
	c-0.5,0.1-1,0-1.5,0c-0.3,0-0.6-0.1-0.9,0c-0.4,0-0.8,0.1-1.2,0.1c-0.4,0-0.8,0.1-1.2,0.1c-0.5,0-0.9,0-1.4,0c-0.3,0-0.7,0-1,0
	c-0.4,0-0.7,0.1-1.1,0.2c-0.4,0.1-0.9,0.2-1.3,0.2c-0.3,0-0.6,0.1-0.9,0.2c-0.4,0.1-0.9,0.3-1.4,0.3c-0.6,0.1-1.1,0-1.6-0.1
	c-0.3,0-0.6-0.1-0.8-0.1c-0.1,0-0.4,0.2-0.6,0.3c-0.4,0.2-1,0.5-1.7,0.6c-0.6,0.1-1.1,0-1.5,0c-0.3,0-0.7-0.1-0.9,0
	c-0.2,0-0.5,0.1-0.8,0.3c-0.4,0.2-1,0.4-1.5,0.5c-0.5,0.1-1,0.1-1.5,0c-0.3,0-0.6,0-0.9,0c-0.3,0-0.6,0.2-0.9,0.2
	c-0.4,0.1-0.9,0.3-1.4,0.4c-0.4,0.1-0.9,0.1-1.3,0.1c-0.4,0-0.7,0.1-1.1,0.1c-0.4,0.1-0.8,0.1-1.2,0.2c-0.4,0.1-0.8,0.2-1.1,0.2
	c-0.5,0.1-1.1,0.1-1.5,0.1c-0.3,0-0.7,0-0.9,0c-0.4,0.1-0.8,0.1-1.2,0.2c-0.4,0-0.8,0.1-1.1,0.2l-1,0.2c-0.4,0.1-0.9,0.2-1.3,0.2
	c0,0-0.3,0.3-0.5,0.4c-0.4,0.3-0.8,0.7-1.2,0.9c-1.2,0.7-2.2,1.1-2.9,1.3c-0.9,0.2-1.8,0.1-2.8-0.1c-0.4-0.1-0.7-0.3-1-0.5
	c0,0-0.1,0-0.1-0.1c-0.2,0.1-0.4,0.2-0.6,0.3c-0.4,0.2-0.9,0.4-1.4,0.5c-0.5,0.1-1,0.2-1.5,0.2c-0.3,0-0.7,0-0.9,0.1
	c-0.2,0-0.4,0.2-0.7,0.4c-0.4,0.2-0.9,0.5-1.5,0.7c-0.6,0.2-1.1,0.2-1.6,0.2c-0.3,0-0.6,0-0.8,0.1c-0.4,0.1-0.8,0.2-1.3,0.3
	c-0.4,0.1-0.7,0.2-1.1,0.3c-0.5,0.2-1,0.3-1.6,0.5l-0.7,0.2c-0.6,0.2-1.2,0.4-1.7,0.6l-0.5,0.2c-0.4,0.1-0.7,0.3-1.1,0.4
	c-0.4,0.2-0.7,0.3-1.1,0.5c-0.6,0.2-1.2,0.5-1.8,0.7l-0.4,0.2c-0.3,0.1-0.6,0.3-0.9,0.5C7.4,54,7,54.2,6.6,54.4l-0.5,0.2
	c-0.6,0.2-1.1,0.5-1.7,0.7c-0.3,0.2-0.7,0.3-1,0.5c-0.4,0.2-0.7,0.4-1.1,0.6C2.1,56.5,1.9,56.6,1.6,56.6z M167.8,4
	c-0.1,0-0.3,0-0.3,0c-0.4,0.3-0.8,0.7-1.1,1.2c-0.2,0.4-0.3,1-0.4,1.6c-0.1,0.6-0.2,1.3-0.2,2c0,0.2,0,0.4,0,0.6c0,0.5,0,1,0.1,1.4
	c0,0,0.2,0.3,0.3,0.4c0.3,0.4,0.6,0.8,0.9,1.4c0.1,0.3,0.2,0.6,0.3,1c0.1,0.4,0.2,0.7,0.3,0.9c0.2,0.3,0.3,0.6,0.5,0.9
	c0.2,0.4,0.3,0.7,0.5,0.9c0.1,0.1,0.4,0.3,0.7,0.5c0.3,0.2,0.7,0.4,1,0.7c0.4,0.3,0.8,0.6,1.3,0.9l0.5,0.3c0.2,0.2,0.5,0.3,0.8,0.4
	c0.4,0.2,0.8,0.3,1.2,0.5c0.3,0.1,0.5,0.3,0.8,0.4c0.2,0.1,0.4,0.2,0.6,0.3c0.1-0.1,0.2-0.2,0.3-0.3c0.3-0.3,0.7-0.7,1.3-1
	c0.5-0.3,1.1-0.4,1.5-0.5c0.2-0.1,0.5-0.1,0.7-0.2c0.2-0.1,0.5-0.4,0.7-0.6c0.3-0.3,0.6-0.6,1-0.8c0.7-0.5,1.2-0.9,1.7-1.2
	c0.3-0.3,0.6-0.5,1-0.7c0.3-0.2,0.6-0.4,0.7-0.5c0.4-0.5,0.7-1.1,1-1.6c0.2-0.4,0.3-0.9,0.4-1.3c0.1-0.3,0.1-0.5,0.2-0.8
	c0.1-0.4,0.3-0.8,0.4-1.2c0.1-0.3,0.3-0.7,0.3-0.8c0-0.4-0.1-0.9-0.2-1.4c0-0.2-0.1-0.4-0.1-0.6c0-0.2-0.3-0.5-0.5-0.8
	c-0.2-0.3-0.4-0.5-0.5-0.8c-0.2-0.3-0.4-0.7-0.5-1c-0.1-0.2-0.2-0.5-0.3-0.6c-0.3-0.2-1.2-0.2-1.5-0.2c-0.3,0-0.9,0.3-1.4,0.5
	c-0.3,0.1-0.5,0.2-0.7,0.3c-0.4,0.2-0.8,0.4-1.1,0.6c-0.5,0.5-1,1-1.3,1.6c-0.3,0.5-0.6,1.3-0.9,2c0,0.1,0,0.4,0,0.7
	c0,0.4,0,1-0.1,1.6c-0.1,0.4-0.2,0.7-0.3,1.1c-0.1,0.4-0.3,0.8-0.3,1.1c-0.1,0.9-0.8,1.5-1.7,1.4c-0.9,0-1.5-0.7-1.6-1.6l0-0.6
	c0-0.5,0-1-0.1-1.5c0-0.3-0.2-0.6-0.3-0.9c-0.2-0.4-0.3-0.7-0.4-1.1c-0.2-0.6-0.3-1.3-0.6-1.9c-0.2-0.4-0.3-0.8-0.4-1.1
	c-0.1-0.2-0.2-0.6-0.2-0.7c-0.1-0.1-0.4-0.3-0.8-0.4c-0.3-0.1-0.5-0.2-0.7-0.3C169.8,4,169.5,4,168.9,4c-0.3,0-0.5,0-0.8,0
	C168,4,167.9,4,167.8,4z"/>
<g>
	<g>
		<g>
			<path fill="#FFFFFF" d="M76.4,33.5c0.6,0.3,1.4,0.5,2.1,0.9c0.7,0.4,1.4,0.8,1.9,1.3c0.8,1,2.4,0.1,1.7-1c-0.4-0.5-1-0.7-1.5-1.1
				c-0.5-0.4-0.7-1.1-1.3-1.4c-0.5-0.3-1.3-0.3-1.8-0.5C76.3,31.1,75.2,32.9,76.4,33.5C76.5,33.5,76.4,33.5,76.4,33.5z"/>
		</g>
		<g>
			<path fill="#FFFFFF" d="M77.4,31.3c-0.1-0.6,0.1-1.3,0-1.9c-0.1-0.6-0.3-1.3-0.6-1.9c-0.3-0.6-0.7-1.1-1.1-1.6
				c-0.4-0.5-0.6-1.3-1.1-1.7c-0.7-0.5-1.5-0.5-2.2-0.7c-0.8-0.2-1.5-0.4-2.3-0.4c-0.8,0-1.5,0.4-2.3,0.3c-0.8,0-1.4-0.5-2.2-0.8
				c-1.2-0.6-2.2,1.1-1,1.7c0.7,0.3,1.3,0.5,1.9,0.6c0.7,0.1,1.3,0.1,2,0.1c0.7,0,1.3,0.4,2,0.4c0.8,0,1.4,0.1,2,0.5
				c0.6,0.4,1.2,0.7,1.6,1.3c0.4,0.6,0.9,1.2,1.1,1.9c0.2,0.7,0.2,1.5,0.3,2.2C75.8,32.6,77.6,32.7,77.4,31.3
				C77.4,31.3,77.4,31.3,77.4,31.3z"/>
		</g>
		<g>
			<path fill="#FFFFFF" d="M63,23.9c0.2,0.6,0.9,1,1.2,1.6c0.3,0.6,0.2,1.4,0.5,1.9c0.3,0.6,0.8,1,1.1,1.6c0.2,0.6,0.2,1.2,0.4,1.8
				c0.2,0.6,0.8,0.9,1.1,1.4c0.3,0.5,0.7,0.9,1.2,1.3c0.6,0.5,1.2,0.7,1.8,1c0.7,0.3,1.3,0.7,1.9,0.7c0.7,0,1.3-0.4,2-0.6
				c0.6-0.2,1.2-0.4,1.9-0.7c0.6-0.3,1.1-0.7,1.7-1c0.6-0.3,0.5-0.7,0.2-1.1c-0.3-0.4-0.5-0.7-1.1-0.3c-0.6,0.4-1.2,0.8-1.9,1.2
				c-0.7,0.4-1.5,0.8-2.2,0.8c-0.7,0-1.4-0.4-2-0.7c-0.6-0.3-1.1-0.8-1.6-1.3c-0.4-0.5-0.9-1.1-1.2-1.7c-0.3-0.9-0.1-2-0.6-2.8
				c-0.4-0.6-1-1-1.4-1.6c-0.3-0.6-0.4-1.3-0.6-2c-0.2-0.6-0.8-0.6-1.3-0.5c-0.5,0.1-1.1,0.4-0.9,1C63.1,24,63,23.9,63,23.9z"/>
		</g>
		<g>
			<path fill="#FFFFFF" d="M70.1,28.9c0.6,0.5,1.3,1,2,1.4c0.7,0.4,1.5,0.7,2.2,1.1c0.7,0.4,1.4,0.8,2,1.3c1,0.8,2-0.9,1-1.7
				c-0.6-0.5-1.3-0.8-2-1.3c-0.7-0.4-1.3-1-2-1.4c-0.7-0.4-1.2-1.1-1.9-1.6c-1-0.8-2,1-1,1.8C70.4,28.7,70.1,28.9,70.1,28.9z"/>
		</g>
	</g>
</g>
<g>
	<g>
		<g>
			<path fill="#FFFFFF" d="M264.8,42.9c-0.7-0.4-1.6-0.5-2.2-1c-0.7-0.5-1-1.3-1.4-1.9c-0.3-0.5-1.2-0.5-1.6-0.2
				c-0.4,0.3-0.9,0.9-0.5,1.5c0.3,0.6,0.9,0.9,1.4,1.4c0.5,0.4,0.9,0.9,1.5,1.3c0.6,0.4,1.1,0.8,1.6,1.1c0.6,0.3,1.3-0.1,1.5-0.5
				c0.3-0.4,0.2-1.1-0.4-1.4C264.7,43,264.8,42.9,264.8,42.9z"/>
		</g>
		<g>
			<path fill="#FFFFFF" d="M265.9,44.3c0.7-0.1,1.4-0.3,2-0.2c0.7,0.1,1.4,0.2,2,0.4c0.6,0.2,1.3,0.6,1.8,0.9c0.6,0.4,1,1,1.4,1.5
				c0.4,0.5,0.8,1.1,1,1.8c0.2,0.7,0.5,1.3,0.6,2c0.2,0.7,0.1,1.4,0.4,2c0.3,0.6,0.7,1.1,1.2,1.6c0.5,0.5,0.9,0.4,1.2,0
				c0.4-0.4,0.4-0.8,0-1.3c-0.5-0.6-0.7-1.4-1-2.1c-0.3-0.7-0.3-1.5-0.4-2.3c-0.2-0.8-0.6-1.5-0.9-2.2c-0.3-0.7-0.6-1.4-1.3-2
				c-0.6-0.5-1.4-0.7-2.1-1c-0.7-0.3-1.3-0.9-2.1-1.1c-0.7-0.2-1.6-0.1-2.3-0.2c-0.8-0.1-1.6-0.2-2.3-0.1
				C264,42.4,264.6,44.5,265.9,44.3C265.9,44.3,265.9,44.3,265.9,44.3z"/>
		</g>
		<g>
			<path fill="#FFFFFF" d="M276.9,51.9c-0.6,0.1-1.1,0.3-1.6,0.5c-0.5,0.1-1.1,0-1.7,0.1c-0.7,0.2-1.3,0.6-1.9,0.5
				c-0.6-0.1-1.3-0.3-1.9-0.6c-0.6-0.3-1-0.9-1.6-1.2c-0.6-0.4-0.8-0.9-1.1-1.4c-0.3-0.5-0.8-0.9-1-1.5c-0.3-0.7-1-1.4-1.3-2.2
				c-0.4-0.8-0.5-1.7-0.4-2.5c0.1-1.3-1.8-1.3-1.8,0c0,0.6-0.2,1.2-0.1,1.8c0.2,0.6,0.3,1.2,0.6,1.7c0.3,0.5,0.7,0.9,0.9,1.5
				c0.4,0.8,0.7,1.5,1,2.1c0.4,0.7,0.9,1.2,1.6,1.8c0.5,0.4,1.1,0.6,1.7,1c0.6,0.3,1.1,0.6,1.7,0.9c0.6,0.3,1.2,0.5,1.8,0.6
				c0.7,0.1,1.3,0.2,1.9,0c0.6-0.1,1.2-0.4,1.9-0.6c0.6-0.2,1.2-0.5,1.9-0.6c1.3-0.2,0.8-1.9-0.5-1.7
				C276.9,52,276.9,51.9,276.9,51.9z"/>
		</g>
		<g>
			<path fill="#FFFFFF" d="M271.6,47.6c-0.5-0.4-0.9-1-1.4-1.4c-0.5-0.3-1.3-0.3-1.9-0.6c-0.6-0.3-0.9-0.9-1.5-1.3
				c-0.5-0.3-1.1-0.6-1.6-1c-1.1-0.7-2.2,1.2-1.1,1.9c0.5,0.4,1.1,0.6,1.7,1c0.5,0.3,1.1,0.7,1.6,1c0.6,0.3,1.2,0.5,1.7,0.9
				c0.5,0.3,0.9,0.9,1.5,1.3C271.7,50.2,272.7,48.4,271.6,47.6C271.6,47.7,271.6,47.6,271.6,47.6z"/>
		</g>
	</g>
</g>
<g>
	<g>
		<g>
			<path fill="#FFFFFF" d="M223.8,28.4c-0.3,0.6-0.4,1.5-1,2.2c-0.6,0.6-1.4,1-2.1,1.1c-0.6,0.1-0.9,0.4-0.9,1
				c0,0.5,0.3,0.8,0.9,0.8c0.8-0.1,1.5-0.1,2.2-0.5c0.6-0.4,1.3-0.9,1.8-1.4c0.5-0.6,0.6-1.4,1-2.1
				C226.1,28.3,224.4,27.2,223.8,28.4C223.7,28.4,223.8,28.4,223.8,28.4z"/>
		</g>
		<g>
			<path fill="#FFFFFF" d="M226,27.2c0.1-0.7,0.5-1.5,0.8-2.1c0.3-0.7,0.6-1.5,1.1-2c0.5-0.6,1.2-1,1.9-1.3c0.7-0.3,1.4-0.7,2.2-0.7
				c0.7,0,1.3,0.3,1.9,0.3c0.6,0,1.2-0.4,1.9-0.5c0.6-0.1,1.1-0.4,1.7-0.7c1.2-0.6,0.2-2.2-1-1.7c-0.6,0.3-1.1,0.4-1.7,0.5
				c-0.6,0.1-1.2,0-1.8,0c-0.6,0-1.2,0.2-1.8,0.3c-0.6,0.1-1.1,0.3-1.7,0.5c-0.5,0.2-1.2,0.3-1.7,0.6c-0.5,0.4-0.7,1.1-1.2,1.6
				c-0.4,0.5-0.9,0.9-1.2,1.5c-0.3,0.6-0.5,1.2-0.7,1.8c-0.2,0.6-0.2,1.2-0.2,1.9c-0.1,1.3,1.7,1.3,1.8,0
				C226.3,27.1,226,27.2,226,27.2z"/>
		</g>
		<g>
			<path fill="#FFFFFF" d="M235.5,19.4c-0.1,1.1-0.2,2-0.2,3c0,1-0.2,1.8-0.7,2.5c-0.5,0.7-1.2,1.3-1.9,1.9c-0.5,0.4-1,0.6-1.5,0.7
				c-0.5,0.1-1-0.1-1.6,0c-0.7,0.1-1.5,0.5-2.2,0.7c-0.8,0.2-1.5,0.5-2.3,0.2c-1.2-0.4-1.7,1.3-0.4,1.7c0.9,0.3,1.6,0.2,2.4,0.1
				c0.8-0.2,1.6-0.1,2.5-0.3c0.8-0.1,1.4-0.5,2.1-0.6c0.7-0.2,1.3-0.2,2-0.8c0.6-0.5,1.4-1.1,2-1.7c0.6-0.7,1-1.4,1.4-2.2
				c0.3-0.5,0.5-1,0.6-1.6c0-0.6-0.2-1.2-0.3-1.8c0-0.6,0.1-1.2,0.1-1.8C237.5,18.1,235.7,18.1,235.5,19.4
				C235.6,19.4,235.5,19.4,235.5,19.4z"/>
		</g>
		<g>
			<path fill="#FFFFFF" d="M230,23.2c-0.6,0.5-1.1,1.1-1.7,1.6c-0.6,0.5-0.8,1.4-1.4,1.9c-0.6,0.5-1.2,1-1.8,1.5
				c-1,0.9,0.5,2.3,1.4,1.4c0.6-0.5,1-1.3,1.5-1.8c0.6-0.5,1.3-0.9,1.9-1.4c0.6-0.5,0.9-1.3,1.5-1.8c1-0.9-0.4-2.2-1.4-1.4
				C230.1,23.5,230,23.2,230,23.2z"/>
		</g>
	</g>
</g>
<g>
	<g>
		<g>
			<path fill="#FFFFFF" d="M130.2,40.5c0.1-0.7,0.2-1.7,0.7-2.5c0.4-0.8,1.2-1.4,1.9-1.7c1.2-0.5,0.5-2.8-0.7-2.3
				c-0.8,0.3-1.5,0.8-2,1.4c-0.5,0.6-1,1.4-1.3,2.1c-0.4,0.8-0.6,1.6-0.7,2.4c-0.2,1.3,2.1,1.9,2.3,0.6
				C130.4,40.5,130.2,40.5,130.2,40.5z"/>
		</g>
		<g>
			<path fill="#FFFFFF" d="M128.2,40.4c0.1,0.6,0.1,1.3,0,1.9c-0.1,0.7,0.3,1.4,0.1,2.1c-0.2,0.6-0.7,1.2-1,1.8
				c-0.4,0.6-0.9,1-1.5,1.4c-0.5,0.4-1.1,0.9-1.7,1.1c-0.7,0.2-1.4,0.2-2,0.3c-0.7,0.2-1.3,0.3-1.9,0.6c-0.6,0.3-1.2,0.5-1.8,1
				c-0.5,0.5-0.2,1.1,0.1,1.4c0.4,0.3,1,0.6,1.5,0.2c0.6-0.5,1.2-1,1.9-1.2c0.7-0.3,1.5-0.4,2.2-0.5c0.7-0.2,1.5-0.3,2.2-0.6
				c0.7-0.3,1.3-0.8,1.8-1.4c0.5-0.6,0.8-1.3,1.1-2c0.3-0.7,0.8-1.3,1-2.1c0.2-0.7,0.4-1.5,0.4-2.3c0.1-0.8,0.1-1.6,0-2.3
				C130.4,38.5,128.1,39,128.2,40.4C128.3,40.4,128.2,40.4,128.2,40.4z"/>
		</g>
		<g>
			<path fill="#FFFFFF" d="M120.9,51.2c-0.1-0.6-0.4-1.1-0.5-1.6c-0.1-0.5,0-1.1-0.2-1.6c-0.2-0.6-0.2-1.2-0.1-1.7
				c0.1-0.6,0-1.2,0.2-1.8c0.3-0.5,0.7-1,1-1.5c0.5-0.7,1.1-0.9,1.6-1.3c0.5-0.3,0.9-0.9,1.6-1.2c0.7-0.3,1.4-0.8,2.2-1.2
				c0.8-0.4,1.6-0.6,2.5-0.5c1.3,0.1,1.3-1.8,0-1.9c-0.6,0-1.2,0-1.7,0.2c-0.6,0.2-1.2,0.2-1.7,0.5c-0.5,0.3-0.9,0.7-1.5,1
				c-0.8,0.4-1.4,0.7-2.1,1c-0.7,0.4-1.5,0.5-2.1,1.2c-0.4,0.5-0.9,1.1-1.3,1.8c-0.4,0.6-0.2,1.5-0.5,2.2c-0.3,0.7-0.6,1.3-0.6,2
				c0,0.8,0.1,1.7,0.4,2.5c0.3,0.8,0.8,1.6,0.9,2.5c0.2,1.3,1.9,0.8,1.7-0.5C120.7,51.1,120.9,51.2,120.9,51.2z"/>
		</g>
		<g>
			<path fill="#FFFFFF" d="M124.8,46.2c0.4-0.5,0.3-1.3,0.7-1.8c0.3-0.5,0.8-1,1.1-1.5c0.3-0.5,0.6-1.2,0.9-1.7
				c0.3-0.5,0.8-1,1.2-1.5c0.7-1.1-1.1-2.2-1.9-1.1c-0.4,0.5-0.3,1.3-0.7,1.8c-0.3,0.5-1,0.9-1.4,1.4c-0.3,0.5-0.4,1.2-0.8,1.8
				c-0.3,0.5-0.9,0.9-1.2,1.5C122,46.1,124,47.3,124.8,46.2C124.8,46.2,124.8,46.2,124.8,46.2z"/>
		</g>
	</g>
</g>
<g>
	<path fill="#FFFFFF" d="M211.5,95.9L212,86c0.2-3.8,0.2-6.1,0.1-7.1c-0.1-0.9-0.2-1.7-0.3-2.4c-0.1-0.7-0.2-1.2-0.2-1.6
		c0-0.4,0.2-0.7,0.5-1.1c0.3-0.3,0.7-0.5,1.1-0.5c1.3,0.1,1.9,1.5,1.8,4.3c0,0-0.2,3.6-0.7,10.7c0.1-0.3,0.5-1.1,1.1-2.5
		c0.6-1.4,1.2-2.8,1.8-4.2c0.6-1.4,1.3-2.9,2-4.3c1.6-3.4,2.7-5,3.3-5c0.4,0,0.7,0.2,1,0.4c0.3,0.3,0.4,0.6,0.4,1
		c0,0.4-1.1,2.5-3.1,6.4c-2.1,3.9-3.2,6.4-3.5,7.4l0,0.9c0.5,1.4,1.7,5.7,3.6,12.9c2,7.2,2.9,11,2.9,11.5c0,0.4-0.2,0.8-0.6,1.1
		c-0.4,0.3-0.7,0.4-1.2,0.4l-1.2-0.3c-0.6-5-1.3-9.4-2.1-13.1c-0.7-3.7-1.8-7.2-3.1-10.6c-1,1.8-1.6,2.9-1.7,3.3
		c-0.2,0.9-0.3,1.7-0.3,2.5l-0.1,9.7c-0.2,4.7-0.9,7-2.1,7c-1,0-1.5-0.9-1.4-2.7c0.1-1.8,0.3-4.2,0.6-7.3
		C211.2,99.8,211.5,97.5,211.5,95.9z"/>
	<path fill="#FFFFFF" d="M238.8,105.7l-0.3,1c0,0.4,0.1,1.5,0.3,3.1s0.3,2.7,0.3,3.3l0,0.1c0,0.8-0.3,1.3-0.9,1.4
		c-0.7,0-1.3-0.2-1.7-0.5c-0.4-0.3-0.6-0.9-0.5-1.8c0.1-1-0.1-2.9-0.4-6l-1.6-0.2l-1.7-0.1c-0.4-0.2-1.1-0.3-2-0.4
		c0,0,0,0.3-0.1,0.7c-0.1,0.4-0.1,0.7-0.2,1c0,0.3-0.1,0.6-0.2,1.1c-0.1,0.5-0.2,0.9-0.3,1.3c-0.1,0.3-0.2,0.7-0.3,1.2
		c-0.1,0.5-0.3,0.8-0.4,1.2c-0.1,0.3-0.3,0.6-0.5,0.9c-0.3,0.6-0.7,0.9-1.2,0.8c-0.4,0-0.8-0.2-1.2-0.5c-0.3-0.3-0.5-0.6-0.5-1
		c1.1-3.5,2.1-7.1,3-10.9c0.9-3.8,1.4-6.1,1.6-6.8c0.2-0.7,0.5-2.1,1.1-4.1c0.6-2,0.9-3.4,1.1-4.1c0.1-0.7,0.3-1.6,0.4-2.7
		c0.3-2.4,0.7-3.9,1.2-4.6l1.8,0.1c1.2,0.1,1.8,0.5,1.7,1.2c-0.4,6.7-0.1,13.4,0.8,20.1c0,0.4,0.1,0.9,0.3,1.7
		C238.7,103.6,238.8,104.8,238.8,105.7z M235.3,104.3c-0.1-0.5-0.1-1.3,0-2.5c0.1-1.1,0.1-2.5,0-4.1c-0.1-1.6-0.2-3.5-0.3-5.7
		c-0.1-2.2-0.2-3.7-0.3-4.7c-0.3,1-0.8,2.6-1.5,4.9c-1.5,4.7-2.3,8.4-2.5,11C231.3,103.7,232.8,104,235.3,104.3z"/>
	<path fill="#FFFFFF" d="M246.8,109.8l0.2-1.8c-0.1-0.4-0.1-4.4,0-11.8c0.1-7.4,0.2-12,0.3-13.6c-2-0.2-3.2-0.5-3.7-0.8
		c-0.5-0.3-0.7-0.7-0.6-1c0-0.3,0.2-0.6,0.6-0.8c0.4-0.2,0.8-0.3,1.1-0.2l7,1l0.8,0c1.1,0.1,1.6,0.5,1.5,1.4c0,0.4-0.2,0.8-0.6,1
		c-0.4,0.2-0.8,0.3-1.2,0.3l-2.4-0.5l-0.1,0.5c-0.2,3.3-0.3,8.2-0.2,14.8c0.1,6.6,0,11.6-0.2,14.9c0,0.4-0.2,0.8-0.5,1.1
		c-0.3,0.3-0.7,0.4-1.1,0.4l-1.2-0.1L246.8,109.8z"/>
	<path fill="#FFFFFF" d="M260,84.2l-1.3,13c0.6,0.2,1.5,0.4,2.7,0.5l2,0.2l0.1-1.1c0.1-1.6,0.2-4,0.3-7.2c0-3.2,0.1-5.6,0.3-7.2
		c0-0.4,0.2-0.7,0.5-0.9c0.3-0.2,0.6-0.3,0.8-0.3c0.2,0,0.4,0,0.6,0c0.2,0,0.3,0,0.4,0c0.1,0,0.2,0.1,0.4,0.1
		c0.2,0.1,0.3,0.5,0.3,1.2c-0.3,3.6-0.6,9.1-0.9,16.4c-0.3,7.3-0.6,12.8-0.9,16.4c0,0.3-0.2,0.5-0.5,0.7c-0.3,0.1-0.6,0.2-1,0.2
		c-0.4,0-0.8-0.2-1.1-0.4c-0.3-0.2-0.5-0.5-0.5-0.9c0.1-3.5,0.4-7.7,0.8-12.8l0-0.2l0.1-1.5l0-0.5l0-0.1c-0.3,0-0.7,0-1.2,0
		l-3.2-0.8l-0.6,5.7l0,0.2l-0.3,8.6c0,0.5-0.2,0.9-0.5,1.3c-0.3,0.4-0.7,0.5-1.1,0.5c-0.7-0.1-1.1-0.7-1.3-2s-0.1-3,0-5.2l0.8-7.9
		l0.3-3l0.4-3l0.6-11.8c0-0.4,0.2-0.8,0.5-1c0.3-0.3,0.7-0.4,1.1-0.4C259.7,81,260.2,82.1,260,84.2z"/>
	<path fill="#FFFFFF" d="M272.7,101.4c-0.3,0.9-0.5,1.8-0.6,2.6c-0.1,0.8-0.2,2.6-0.2,5.3c-0.1,2.7-0.1,4.4-0.2,5.2
		c-0.1,0.8-0.3,1.4-0.6,1.7c-0.3,0.4-0.7,0.5-1,0.5c-0.5-0.1-0.8-0.4-0.9-1.1c0.2-1.3,0.3-2.9,0.5-4.7c0.2-1.9,0.5-6,0.8-12.4
		c0.3-6.4,0.7-11.1,1-14.2c0.2-1.6,0.8-2.4,2-2.3c1.8,0.2,3.3,0.8,4.4,1.9c1.1,1.1,1.6,2.5,1.4,4.2c-0.2,2.4-0.6,4.2-1.1,5.5
		s-1.4,2.9-2.6,4.7c0.1,0.8,0.3,2.5,0.5,5.1c0.5,5.5,1.2,9.5,2.2,12c0.3,0.7,0.4,1.3,0.4,1.6c0,0.4-0.2,0.7-0.4,0.9
		s-0.5,0.3-0.9,0.3c-1.1-0.1-2-2.1-2.5-6c-0.2-1.7-0.4-3.4-0.6-5.1c-0.4-4.7-0.8-7.3-1-7.9C273.2,99.7,273.1,100.4,272.7,101.4z
		 M274.4,84l-0.3,0.7c-0.1,1.4-0.3,3.5-0.5,6.2c-0.2,2.7-0.4,4.6-0.5,5.9c0.9-0.3,1.6-1.4,2.3-3.1c0.7-1.7,1.1-3.1,1.2-4
		c0.1-0.9,0.1-1.6,0.1-2.1c0-0.5-0.1-1-0.2-1.5C276.3,84.9,275.6,84.2,274.4,84z"/>
	<path fill="#FFFFFF" d="M288.5,115.8c-0.2,1.7-0.5,2.7-1.1,3.1c-0.3,0.2-0.6,0.2-1.1,0.2c-0.5-0.1-0.9-0.5-1.1-1.3
		c0.5-0.7,1-3.6,1.6-8.7c0.1-1,0.2-2.3,0.3-4.1c0.1-1.8,0.1-2.9,0.2-3.6c-0.5-1.2-1.3-4-2.2-8.4s-1.3-7-1.2-8l0-0.3l1.3-0.7
		c1.1,0.2,2,3,2.9,8.5c0.4,2.4,0.5,3.6,0.5,3.6c0.2-0.4,0.6-1.6,1.3-3.8c1.7-5.5,3.1-8.2,4.2-8c0.3,0,0.6,0.2,0.8,0.4
		c0.2,0.2,0.3,0.5,0.3,0.8c-0.3,2.1-1.1,4.5-2.4,7.3c-1.4,2.7-2.2,5.2-2.4,7.4L288.5,115.8z"/>
	<path fill="#FFFFFF" d="M299.7,99.3l-1.6,13.4l-0.8,5.9c-0.1,0.5-0.2,0.8-0.5,1.1c-0.3,0.3-0.6,0.4-1,0.3c-1.1-0.2-1.5-1.3-1.3-3.4
		l2.4-18.2l1.7-9.6c0.3-2.3,1.1-3.4,2.4-3.2c0.8,0.1,1.2,0.8,1.4,2c0.2,2.3,0.5,5.6,1.1,9.9c0.6,4.3,0.9,7.6,1.1,9.8
		c0.2,1.1,0.4,2.7,0.6,4.9c0.2,2.1,0.4,3.8,0.5,4.8c1.2-7.5,2.5-16.5,4-27.1l0.1-1.4c0.1-0.5,0.2-0.8,0.4-1.1c0.2-0.3,0.5-0.4,1-0.3
		s0.8,0.2,1,0.4c0.5,0.5,0.7,1.1,0.6,1.8c-0.7,4.7-1.6,10.8-2.9,18.2c-1.3,7.4-2.4,12-3.2,13.7c-0.1,0-0.2,0-0.4,0.1
		c-0.2,0-0.4,0.1-0.5,0.1c-1,0.1-1.6,0-1.8-0.4s-0.3-0.8-0.4-1.3c0-0.5-0.1-1-0.2-1.5c-0.1-0.5-0.3-2.9-0.6-7.1
		c-1-11.2-1.6-17.7-1.9-19.6L299.7,99.3z"/>
</g>
<g>
	<path fill="#FFFFFF" d="M55,92.2l-0.1,3.7c0.2,1.8,0.8,5,1.7,9.6c1,4.6,1.7,7.2,2.2,7.8c0.9,1.1,2.1,1.5,3.8,1.3
		c1.6-0.2,2.8-0.8,3.5-1.9c0.6-0.1,1.1-0.2,1.6-0.4l0.1,0.7c0.1,1-0.1,1.9-0.6,2.7c-0.9,1.2-2.4,2-4.6,2.2c-1.2,0.1-2.4-0.2-3.6-0.8
		c-1.2-0.7-2.2-1.6-2.9-2.8c-0.7-1.2-1.5-4.4-2.4-9.5c-0.9-5.2-1.5-9.1-1.8-11.9c-0.3-2.8-0.4-4.8-0.3-6.1c-0.2-0.5-0.3-1.1-0.3-1.6
		c-0.2-2.1,0.4-3.9,1.9-5.3c1.5-1.4,3.4-2.3,5.7-2.5c0.8-0.1,1.7,0.1,2.5,0.4c0.8,0.4,1.3,1,1.4,1.7c0,0.4-0.1,0.7-0.3,0.9
		c-0.3,0.2-0.7,0.4-1.2,0.4c-0.5,0.1-0.9-0.1-1.2-0.5l0,0.1l-0.8,0.1l0-0.2c-2.7,0.3-4.2,1.6-4.7,3.9c-0.2,1.2-0.2,2.6,0,4.5
		L55,92.2z"/>
	<path fill="#FFFFFF" d="M73.5,84.4l0.9,13c0.6,0.1,1.5,0.1,2.8,0l2-0.2l-0.1-1.1c-0.1-1.6-0.5-4-1-7.1c-0.5-3.2-0.8-5.6-1-7.1
		c0-0.4,0.1-0.7,0.4-1c0.3-0.3,0.5-0.4,0.8-0.5s0.4,0,0.6-0.1c0.2,0,0.3-0.1,0.4-0.1c0.1,0,0.2,0,0.4,0.1c0.3,0.1,0.4,0.5,0.5,1.1
		c0.3,3.6,0.9,9.1,1.9,16.3c0.9,7.2,1.5,12.7,1.9,16.3c0,0.3-0.1,0.6-0.3,0.7s-0.6,0.3-1,0.3c-0.4,0-0.8,0-1.2-0.2
		c-0.4-0.2-0.6-0.4-0.6-0.8c-0.5-3.4-0.9-7.7-1.3-12.7l0-0.2l-0.2-1.5l-0.1-0.5l0-0.1c-0.3,0.1-0.7,0.2-1.2,0.2l-3.3-0.2l0.3,5.8
		l0,0.2l1.1,8.5c0,0.5,0,1-0.3,1.4c-0.2,0.4-0.6,0.6-1,0.6c-0.7,0.1-1.2-0.5-1.6-1.8c-0.4-1.2-0.6-3-0.8-5.1l-0.5-7.9l-0.2-3
		l-0.2-3.1l-1.3-11.7c0-0.4,0.1-0.8,0.3-1.1c0.3-0.3,0.6-0.5,1-0.6C72.7,81.4,73.4,82.4,73.5,84.4z"/>
	<path fill="#FFFFFF" d="M91.6,99.1c-0.2,1-0.2,1.9-0.2,2.7s0.3,2.6,0.7,5.2c0.4,2.7,0.6,4.4,0.7,5.2s0,1.4-0.3,1.8
		c-0.3,0.4-0.6,0.7-0.9,0.7c-0.5,0-0.9-0.3-1-1c-0.1-1.3-0.1-2.9-0.3-4.7c-0.1-1.9-0.5-6-1.3-12.3c-0.7-6.3-1.2-11.1-1.4-14.2
		c-0.1-1.6,0.4-2.5,1.6-2.6c1.8-0.1,3.4,0.3,4.7,1.1c1.3,0.9,2,2.2,2.1,3.9c0.2,2.4,0.1,4.2-0.2,5.6c-0.3,1.3-0.9,3-1.8,5.1
		c0.2,0.8,0.7,2.5,1.3,4.9c1.4,5.3,2.7,9.1,4.2,11.4c0.4,0.7,0.6,1.2,0.6,1.6c0,0.4-0.1,0.7-0.3,1c-0.2,0.3-0.5,0.4-0.8,0.5
		c-1.1,0.1-2.3-1.7-3.5-5.5c-0.5-1.6-1-3.3-1.4-4.9c-1.2-4.5-2-7.1-2.3-7.6C91.8,97.4,91.8,98.1,91.6,99.1z M90.3,81.7l-0.1,0.7
		c0.1,1.4,0.3,3.5,0.5,6.2c0.2,2.7,0.4,4.6,0.5,5.9C92,94,92.6,92.8,93,91c0.4-1.8,0.5-3.2,0.5-4.2c-0.1-0.9-0.1-1.6-0.2-2.1
		c-0.1-0.4-0.2-0.9-0.4-1.5C92.4,82.2,91.6,81.7,90.3,81.7z"/>
	<path fill="#FFFFFF" d="M111.8,112.8l-2,0.1l-2.3,0.2c-1,0.1-1.6-0.2-2-0.8c0-0.5,0-0.9,0.1-1.2c0.1-0.3,0.4-0.4,0.8-0.5l1.5-0.1
		l0.1-0.7l-0.9-11.1l-0.3-11.6c-0.1-2-0.3-3.8-0.5-5.5c-0.7,0-1.4,0.1-2,0.1c-0.6,0-1.1,0-1.4-0.2c-0.3-0.2-0.5-0.5-0.5-1.1
		c0-0.8,0.9-1.3,2.8-1.3l0.2,0c4.5-0.2,6.7,0.2,6.8,1.4c0,0.2-0.1,0.5-0.3,1l-2.7,0.1c0.2,1.3,0.3,2.8,0.4,4.5l0.2,10l1,11.1
		l0.1,1.6c0,0.3,0,0.8-0.1,1.4l2.2-0.1c1.4-0.1,2.2,0.3,2.2,1.2c0,0.4-0.1,0.7-0.3,1c-0.2,0.3-0.5,0.4-0.8,0.4L111.8,112.8z"/>
	<path fill="#FFFFFF" d="M119.6,110.8l2.8,0.3c0.7,0,1.2-0.3,1.7-0.9c0.5-0.6,0.8-1.3,1-2.2c0.4-1.7,0.6-3.2,0.5-4.4
		c0-1.3-0.3-2.5-0.8-3.8c-0.5-1.2-1-2.4-1.7-3.4c-0.7-1.1-1.3-2.1-2-3.2c-1.6-2.6-2.4-5.1-2.5-7.7c-0.1-1.6,0.2-3,0.6-4.2
		c0.9-2.3,2.2-3.4,3.8-3.5c0.6,0,1.2,0.1,1.8,0.5c0.6,0.4,0.9,0.8,0.9,1.2c0,0.8-0.4,1.2-1.2,1.2c-0.4,0-0.7-0.1-1.1-0.3
		c-1.1,0.1-1.8,1.4-2.1,3.8c-0.1,0.5-0.1,1.1-0.1,1.9c0,0.7,0.2,1.6,0.6,2.6c0.3,1,0.8,1.9,1.3,2.7c0.5,0.8,1,1.7,1.6,2.6
		c0.6,1,1.1,1.9,1.6,2.8c1.1,2.1,1.8,4.5,1.9,7.2c0.1,2.2-0.3,4.2-1.1,6.1c-0.4,1-1,1.8-1.9,2.4c-0.8,0.6-1.8,1-2.9,1l0,0.1
		c-0.6-0.1-1.2-0.3-1.8-0.6c-0.5-0.3-0.9-0.8-0.9-1.3L119.6,110.8z"/>
</g>
<path fill="#FFFFFF" d="M193.8,116.4c-1.4-0.3-2.3-0.9-2.7-1.9c-0.7-0.1-1.4-0.6-2.1-1.6c-0.7-1-1.5-1.5-2.4-1.4
	c-0.5-0.5-0.9-1-0.9-1.4c-0.1-0.4-0.1-0.8-0.1-1.2c0-0.5,0.3-1.2,0.9-2.3c0.6-1,0.8-1.9,0.7-2.7c0.6-1.4,0.9-2.8,0.9-4.1
	c0-1.7-0.5-3-1.4-3.9c0.2-0.7,0.3-1.3,0.5-2c0,0,0-0.1,0-0.1c-0.2-0.2-0.3-0.3-0.5-0.5c-0.4-0.1-0.9,0.1-1.3,0.1
	c-0.1,0.1-0.2,0.5-0.2,0.5h-0.6c-0.2,0-0.3-0.4-0.4-0.5c-0.9,0.1-1.7,0.2-2.5,0.6c-0.1,0.1-0.2,0-0.3,0.1c-0.4,0.3-0.9,0.5-1.3,0.9
	c0,0,0,0,0,0.1c0,0.3-0.1,0.5-0.3,0.7c0.4,0.8,0.6,1.8,0.6,2.9c-0.1,2.8-0.1,4.3,0,4.6c-0.5,0.5-0.9,0.7-1.3,0.7
	c-0.4,0-0.9-0.5-1.4-1.6c-0.5-1-1.1-1.6-1.8-1.6c-1-2.4-1.9-4.1-2.7-5c-0.9-0.4-1.5-1.4-1.9-2.9c-0.4-1.5-1-2.5-1.8-2.9
	c0-0.1-0.2-0.6-0.5-1.4c-0.2-0.5-0.1-1,0.1-1.3c0.3-0.3,1.2-1,2.7-2.3c1.1-0.9,2-1.7,2.5-2.3c0.9-0.2,1.7-1.1,2.3-2.5
	c0.6-1.4,1.3-2.3,2.1-2.7c0.4-0.4,0.6-1.1,0.5-2c-0.1-0.9,0-1.6,0.1-1.9c0.2-0.4,0.3-0.7,0.3-1.2c0-0.7-0.6-1.7-1.8-3.2
	c0.2-1.1-0.3-2.2-1.5-3.1c-1.3-0.9-1.9-1.8-1.9-2.6c-0.8-1-2.1-1.4-3.9-1c-0.7-0.7-1.4-1-2.2-1c-0.5,0-1.2,0.2-2.3,0.5
	c-1.1,0.4-1.8,0.5-2.4,0.5c-0.5,0-0.9-0.1-1.4-0.2c-1.3,0.2-2.3,1.2-2.8,2.9c-1.4,0.2-2.4,1.2-3,2.9c0.2,0.7,0.1,1.4-0.4,2.2
	c-0.5,1-0.8,1.7-0.8,2.2c0,0.2,0.1,0.6,0.3,1c0.2,0.5,0.3,0.8,0.3,0.9c0,0.2-0.1,0.7-0.4,1.4c-0.1,0.7-0.1,1.2,0,1.7
	c0.7,0.5,1.1,1.4,1.4,2.8c0.3,1.4,0.7,2.4,1.3,2.9c0.2,0.5,0.4,1.1,0.6,1.6c0.2,0.7,0.3,1.3,0.2,1.6c-0.8,0.3-1.6,1.1-2.4,2.4
	c-0.8,1.3-1.7,2.1-2.6,2.3c-0.1,0.7-0.6,1.5-1.5,2.4c-0.9,0.9-1.5,1.6-1.7,2.2c0,0.8-0.5,1.8-1.4,2.9c-1,1.2-1.4,2.2-1.3,3.1
	c0.1,0.3,0.2,0.6,0.2,1c0,0.4-0.1,1.1-0.4,2.1c-0.3,1-0.4,1.8-0.4,2.3c0.4,0.6,0.6,1.6,0.8,3c0.2,1.4,0.4,2.3,0.6,2.9
	c0.8,0.4,1.5,1.4,2.1,2.9c0.6,1.5,1.3,2.5,2,2.9c0.8,0,1.7,0.6,2.5,1.7c0.8,1.1,1.8,1.5,2.8,1.3c0.8-0.4,1.9-0.3,3.2,0.2
	c1.6,0.5,2.6,0.8,3,0.8c0.7,0,1.4-0.3,2-0.8c1.2,0.2,2.6,0,4.1-0.5c2.2-0.7,3.4-1,3.8-1.1c1.3,0,2.4-0.8,3.6-2.3
	c1.1-1.6,2.3-2.3,3.5-2.3c2.2,1.8,3.8,3.1,5,3.8c1.2,0.3,2.3,0.9,3.3,1.9c0.5,0.5,1.1,1.1,1.6,1.6c0.4-0.1,0.8-0.2,1.2-0.3
	C194.2,121.7,194.1,118.4,193.8,116.4z M185.7,98c0.4,0,0.7,0.2,0.8,0.6c0.1,0.4,0.1,0.9,0.1,1.4c-0.2,1.1-1.5,2-4,2.6
	c-0.2,0-0.8,0.2-0.9,0.2c0.2-0.6,0-1.7,0.7-1.9C183.7,99.4,185.1,98.7,185.7,98z M181.7,98.1c0.2-0.8,0.3-1.3,0.3-1.4
	c0-0.2-0.1-0.5-0.2-0.6c0.8-1.1,2-1.4,3.6-1c-1.5,2.5-2.7,4-3.7,4.3C181.5,99,181.5,98.6,181.7,98.1z M180.4,106
	c0.4-0.8,1.1-1.2,2.2-1.4c1-0.1,2-0.3,2.9-0.3c0.1,0.2,0.2,0.5,0.2,0.6c-0.1,0.5-0.3,0.9-0.6,1.2c-0.1,0.1-0.5,0.3-1.3,0.7
	c-0.1,0-0.6,0-1.4,0.1c-0.7,0.1-1.1,0.1-1.4,0C180.4,106.8,180.2,106.5,180.4,106z M178.2,104.8c0.7,0,1.2,2.5-0.2,3.4
	c-0.6,1.2-2.4,0.2-2.2-0.1C176.1,107.1,177.5,104.8,178.2,104.8z M175.6,102.4c0.2,0,1.1,0.5,1.2,1.4c0.1,0.8-1.3,2.8-2,3.6
	c-0.2,0.1-1-0.8-1.3-1.1c-0.1-0.4,0.2-1.3,0.6-2C174.7,103.3,175.3,102.4,175.6,102.4z M173,99c0.2-0.1,0.4,0,0.6,0.3
	c0.2,0.3,0.3,0.6,0.3,0.9c0.1,0.7-0.1,1.3-0.5,1.9c-0.4,0.6-0.7,1.2-1,1.8c-0.3,0.1-0.7-0.2-1.1-1c-0.1-0.7,0.1-1.4,0.5-2.1
	C172.5,99.8,172.9,99.2,173,99z M171,96.2c0.2,0,1,0.1,1,0.3c0,0.2,0.2,0.8,0.1,1.1c0.1,1.8-1.8,3.1-2.9,2.8c-1-0.3-1.2-1.6-0.2-2.7
	C169.6,96.9,170,96.2,171,96.2z M169.8,91.9c0.1,0.2,0.2,0.6,0.1,1c-0.1,0.5-0.2,1.2-0.2,1.3c-0.1,0.1-0.4,1.2-1.3,2.2
	c-0.4,0.6-1,0.3-1.5,0.4c-0.2-0.2-1-1.2-1-2.2c0.7-1.4,2.1-2.5,2.7-3.1C169,91.4,169.7,91.7,169.8,91.9z M164.3,84.2
	c0.5-0.2,0.8,0.3,0.8,1.4c0,0.6-0.1,3.3-2,3.8c-0.3,0.1-0.5,0.1-0.7-0.2c-0.2-0.2-0.7-1.2-0.7-1.5C161.8,86.2,162.9,85.5,164.3,84.2
	z M161.1,85.5c-0.7-0.1-1.1-1.2-1.1-1.8c0.1-0.6,0.5-0.8,1-1.4c0.3-0.4,1.2-1,1.9-1.6c0.4-0.1,1.1,0.5,0.9,1.6
	C163.5,83.4,161.8,85.5,161.1,85.5z M164.2,91c0.9-1.6,2-2.6,2.6-3.4c0.7,0.5,1.9,1.7,0.6,3c-0.3,0.6-1.3,1.4-2.2,2.3
	c-0.4,0-0.8,0.1-1.2-0.5C163.6,91.7,164.2,91,164.2,91z M168.1,85.6c-0.3,0-0.6-0.1-0.9-0.3c-0.5-0.7-0.5-1.1,0-1.3
	c0.9,0.2,1.5,0.7,1.8,1.3C168.7,85.6,168.4,85.6,168.1,85.6z M170.9,84c-0.7,0.1-1.3-0.2-2.1-0.5c-0.8-0.4-1.3-1.1-2.1-1.4
	c-0.1-0.2,0-0.4,0.3-0.6c0.2-0.1,0.4-0.8,0.5-0.9c0.8-0.2,1.9,0,2.8,0.5c1.4,0.7,2.7,1.3,2.8,1.3C173.2,82.6,171.5,83.6,170.9,84z
	 M174.2,81.3c-1.7-0.4-4.1-1.3-4.8-1.7c-0.1-0.4,1-1.2,2.2-1.5c1.4-0.1,3.1,0.6,4,1.2C175.6,79.9,175.3,81,174.2,81.3z M177.5,77.3
	c-0.6,0.7-2,0.5-4.2,0.1c-0.3,0.1-0.9,0-1-0.1c-0.1-0.2-0.3-0.7-0.1-0.9c0.1-0.2,0.6-1.2,0.7-1.3c0.4,0.1,1.2,0.4,2.1,0.1
	c0.9-0.3,1.5,0.2,1.8,0.2C177.6,75.4,177.8,76.3,177.5,77.3z M177.5,71c0.2,0.2,0.3,0.4,0.4,0.5c0.5,1.3,0.1,2.2-1.2,2.5
	c-1.6,0.1-2.6,0.1-2.8,0C173.3,71.9,175.4,71.9,177.5,71z M175.1,66.8c0.2,0,0.6,0.4,1.2,1.3c-0.1,1-1.1,2.4-2.6,3.3
	c-0.4,0-1-0.5-1.1-0.6C172.6,68.9,174,67.9,175.1,66.8z M170.4,65.2c0.1-0.8,0.8-1.1,1.4-1.4c0.9-0.1,1.4,0.4,1.5,1.4
	c0.1,0.5-0.1,1.1-0.5,1.6c-0.4,0.5-0.7,1-1,1.4c-0.4,0.2-1.2-0.2-1.4-0.8L170.4,65.2z M167.7,63.2c0.7,0,1.2,0.3,1.4,0.8
	c0.1,0.2,0.3,0.5,0.2,1c-0.1,0.5-0.2,1.3-0.2,1.6c-0.2,0.1-0.8,0.2-1,0.2c-1,0-1.4-1.2-1.8-3C166.8,63.4,167.2,63.2,167.7,63.2z
	 M171.1,70.2c0.4,1.5,0.7,2.4,0.9,2.6c-0.5,2.3-1.1,3.9-1.8,4.7c-0.7,0.2-1.5,0.7-2.5,1.5c-1,0.8-1.9,1.4-2.5,1.6
	c-0.6-0.7-1-1.6-1.3-2.9c-0.4-1.7-0.7-2.8-0.9-3.2c-0.7-1.4-0.5-2.8,0.4-4.1c0-0.4,0.5-1,1.5-1.9C167.8,68,169.8,68.5,171.1,70.2z
	 M161.8,64.4c0.4-0.1,0.8-0.3,1.2-0.4c0.6-0.1,1.1,0.2,1.5,0.7c0.4,0.5,1.1,1.5,1.5,2c-0.3,0.2-1,0.1-1.5,0.1
	c-0.4,0-1.5-0.8-3.4-1.5C161.2,64.9,161.4,64.6,161.8,64.4z M158.7,67.5c0.3-0.4,0.5-0.5,0.6-0.5c1.7-0.1,3.2,0.3,3.7,0.9
	c-0.2,1.5-2.5,0.8-4.6,0.5C158.3,68.2,158.4,67.9,158.7,67.5z M156.7,73c-0.1-0.1,0.1-0.6,0.2-0.8c0-0.3,0.1-0.4,0.1-0.5
	c0.4-2.1,1.6-1.4,2.8-1.7c0.3,0.1,0.6,0.1,1,0.2c0.4,0.1,0.5,0.3,0.5,0.6c0.2,0.6,0,1.3-1.4,1.5c-1.3,0.4-2,0.6-2.1,0.6
	C157.2,73.5,156.8,73.1,156.7,73z M157.2,75.1c0.8-1.1,2.4-1.8,4-1.8l0.7,1.3c0.5,1.1-0.6,1.5-1.4,1.9c-0.8,0.5-1.9,0.8-2.6,1.2
	C157.4,77.7,157,76.2,157.2,75.1z M159,81.6c-0.3,0.1-0.5-0.6-0.6-0.9c-0.1-0.2-0.3-0.8-0.3-1.1c0.2-0.7,1.2-0.9,1.9-1.2
	c1.1-0.5,2.2-1.2,2.3-1.4C164.7,79,160.6,80.4,159,81.6z M159.7,88.3c0.3,0.1,1.2,1.4,1.2,2.2c-1.1-0.1-2.6-0.7-2.7-0.7
	C158.2,89.5,158.8,88.7,159.7,88.3z M156.8,91.1c1-0.1,2.4,0.1,4.2,0.7c0.1,0.4,0,0.7-0.4,0.9c-0.4,0.2-0.4,1.2-0.7,1.4
	c-2.4,0-4.9-0.5-4.9-1.4C155,92.7,156,91.9,156.8,91.1z M152.8,96.2c0.7-1,1.8-1.5,3.2-1.4c0.8,0.4,1.4,0,1.9,0.1
	c0.8,0.4-0.1,2.5-1.3,2.8c-0.2-0.1-1.8,0.1-2.9,0.1C152.7,98.1,150.6,97.6,152.8,96.2z M150.6,100.3c0.5-1,2.1-1.3,4.7-1.1l0.1,0.2
	c0,0.1,0.3,0.5,0.3,0.5c-0.2,1-0.9,1.4-2.1,1.6c-1.7,0.2-3.3,0.9-3.5,1C149.7,102.2,150.1,101,150.6,100.3z M149.1,107.1
	c0.2-1.5,0.8-2.5,1.7-3.1c0.7-0.2,1.3-0.6,1.9-0.8c0.9-0.3,1.4,0,1.4,0.4c0,0.2,0,1-0.3,1.4c-1.6,1.4-3.2,2.7-4,3.2
	C149.3,108.2,149.1,107.3,149.1,107.1z M150.2,112.4c-0.2-0.2-0.3-0.5-0.3-0.8c-0.1-1.2,1-2.8,3.3-4.2c0.4-0.1,0.7,0,0.8,0.3
	c0.3,0.2,0.2,1.2,0.1,1.4c-1.2,1.7-2.1,3.1-2.7,3.9C151.1,113.1,150.4,112.6,150.2,112.4z M154.8,117.5c-0.1,0.1-0.7,0-0.8,0
	c-0.9-0.4-1.4-1.1-1.4-1.7c-0.1-1.4,0.2-2.5,0.9-3.2c0.5-0.6,0.9-0.9,1.2-0.9c0.2,0,1.1,0.6,1.2,1
	C155.8,112.8,155.3,114.5,154.8,117.5z M158.1,120.6c-0.6,0.1-1.2-0.4-1.9-1.4c-0.3-1.1-0.1-2.3,0.6-3.8c0.9,0.1,1.5,0.6,1.8,1.5
	c0.3,0.9,0.5,1.8,0.7,2.6C159.4,120,159,120.3,158.1,120.6z M155.4,109.9c0.3-0.6,0.4-1.3,0.2-2.2c-0.2-1.2-0.4-1.9-0.4-2
	c0-0.4,0.1-0.8,0.4-1.2c-0.1-0.3-0.2-0.6-0.2-0.9c0-0.5,0.3-1.3,1-2.2c0.7-0.9,1-1.8,0.9-2.5c1-0.4,1.9-1.3,2.7-2.8
	c0.7-1.5,1.7-2.4,2.7-2.7c1,0.3,1.7,1.2,2.1,2.8c0.4,1.6,1.1,2.6,2.1,2.9c-0.1,0.9,0.5,1.8,1.7,2.8c1.3,1,1.9,1.9,1.9,2.8
	c0.8,0.2,1.5,1,2.1,2.3c0.5,1.3,1.3,2.1,2.2,2.3c0.5,0.5,0.8,0.9,0.8,1.4c0,0.4-0.4,1-1.1,1.7c-0.8,0.7-1.2,1.2-1.3,1.5
	c-0.5,0.1-1.3,0.5-2.4,1.1c-1.1,0.6-2,0.9-2.7,0.9c-0.4,0-0.8-0.1-1.3-0.2c-0.4,0.2-0.9,0.4-1.4,0.4c-0.5,0-1.3-0.3-2.3-0.8
	c-1-0.5-1.8-0.8-2.3-0.8c-0.4,0-0.7,0.1-1,0.2C158.2,113.6,156.8,112,155.4,109.9z M165.4,121.1c-0.9,0.5-2.3,0.2-3.3-0.3
	c-0.5-0.2-0.9-0.7-1.1-1.4c-0.2-0.7-0.3-1.3-0.5-2c0-0.2,0-0.5,0.1-0.7c0.1-0.2,0.2-0.3,0.5-0.3c0.8-0.2,2.3,0.2,3.5,2
	c-0.1,0.2,0.3,0.7,0.6,1.1C165.6,120.1,165.5,120.9,165.4,121.1z M168.5,120.7c-0.5-0.2-1-0.6-1.4-1.1c-0.4-0.6-0.7-1.1-1-1.7
	c0.1-0.5,0.9-0.6,2.3-0.5c1.7,1.4,2.7,2.3,2.8,2.9C170.2,120.9,169.4,121,168.5,120.7z M176.1,118.6c-0.4,0.2-0.8,0.3-1.1,0.4
	c-0.7,0.1-1.4,0-2-0.5c-0.6-0.5-1.2-0.9-1.8-1.4c-0.2-0.8,0.1-1.2,1.1-1.4c0.1,0.1,0.9,0.3,2.4,0.8c1,0.3,1.7,0.7,2.1,1.2
	C176.7,118.2,176.5,118.5,176.1,118.6z M176.3,115c-0.3-0.1-0.6-0.3-0.9-0.5c-0.3-0.2-0.4-0.5-0.3-0.8c0.4-0.4,0.9-1.2,1.6-1.2
	c0.4,0,1.3,0.5,2.2,0.7c0.9,0.2,1.7,0.2,2,0c0.1,0.1,0.1,0.6,0.1,1.2C180,115.4,178.1,115.7,176.3,115z M177.2,111.2
	c-0.2-0.5,1.1-1.3,2.3-2.1c1.7-0.2,3.1-0.3,4.1-0.3c0.4,1.2,0,2-1.4,2.5C180.9,111.7,178.7,111.8,177.2,111.2z M184.3,115.4
	c-0.4,0.1-0.8,0.3-1,0.3c-0.4-0.6-0.7-1.2-0.6-1.9c0.7-0.9,1.9-2.2,2.3-2.3c0.2,0.3,0.6,0.6,0.6,0.9c0,0.2-0.7,1.3-0.9,1.9
	C184.5,114.8,184.3,115.1,184.3,115.4z M185.2,116.4c-0.1-0.5,0.5-1.6,0.7-2.3c0.2-0.7,0.7-1.2,1-1.2c0.3,0,1.1,1.3,1.4,2.1
	c-0.3,1.4-0.9,2.6-1.1,3.3C186.3,118,185,117.2,185.2,116.4z M188.1,118.8c-0.2-0.1,0.7-2.4,0.9-2.8s0.4-1.1,0.4-1.1
	s0.5,0.5,0.7,0.9c0.1,0.3-0.2,0.6-0.4,0.8c-0.2,0.2-0.8,2.5-0.9,2.7C188.5,119.5,188.3,118.9,188.1,118.8z M192.5,119.8
	c-0.3,0.7-0.5,1.2-0.6,1.4c-0.5,0.2-1.6-0.3-2.1-1.2c-0.2-1.4,0.6-2.7,1.3-3.5c0.9,0.9,1.4,1.1,1.4,1.1
	C192.7,118.1,192.8,119.1,192.5,119.8z"/>
<g>
	<g>
		<g>
			<path fill="#FFFFFF" d="M88.1,153.2c0.6-0.1,1.2-0.2,1.8-0.3c0.6,0,1.2,0.3,1.8,0.3c0.6,0,1.2-0.1,1.8-0.1c0.6,0,1.1,0.2,1.7,0.3
				c1,0.3,1.5-1.6,0.5-1.9c-0.6-0.2-1.3-0.1-2-0.1c-0.7,0-1.4-0.3-2-0.2c-0.7,0-1.3,0.5-2,0.5c-0.7,0-1.3,0-2,0.1
				c-1,0.2-0.7,1.4,0.4,1.3C88.1,153.1,88.1,153.2,88.1,153.2z"/>
		</g>
		<g>
			<path fill="#FFFFFF" d="M87.5,151.3c-0.5-0.6-0.9-1.4-1.6-1.9c-0.7-0.5-1.4-0.9-2.2-1.2c-0.7-0.3-1.6-0.1-2.4,0
				c-0.9,0.1-1.6,0.4-2.3,0.8c-0.7,0.5-1.4,0.9-2.1,1.3c-0.7,0.5-1.3,1.2-2.1,1.3c-1,0.2-0.6,1.7,0.4,1.5c0.8-0.1,1.3-0.6,1.9-1
				c0.6-0.4,1.1-0.8,1.7-1.3c0.6-0.5,1.3-0.8,1.9-0.9c0.7-0.2,1.5-0.2,2.1,0c0.7,0.2,1.1,0.8,1.7,1.2c0.5,0.4,1.1,0.8,1.6,1.4
				c0.7,0.8,2.1-0.7,1.5-1.4C87.8,151.1,87.5,151.3,87.5,151.3z"/>
		</g>
		<g>
			<path fill="#FFFFFF" d="M73.7,153.7c0.5,0.4,1.1,0.7,1.6,0.9c0.5,0.3,1.2,0.2,1.8,0.4c0.5,0.2,0.9,0.7,1.4,1.1
				c0.6,0.4,1.3,0.6,1.8,0.9c0.6,0.3,1.2,0.4,1.9,0.5c0.9,0.1,1.6,0.1,2.2-0.1c0.8-0.2,1.4-0.6,1.9-1.1c0.5-0.5,1.1-1,1.5-1.7
				c0.3-0.6,0.5-1.4,0.8-2.1c0.4-1-1.4-1.5-1.8-0.5c-0.3,0.9-0.5,1.7-0.9,2.4c-0.4,0.7-0.9,1.3-1.8,1.7c-0.6,0.2-1.2,0.3-1.8,0.2
				c-0.6-0.1-1-0.6-1.5-1c-0.5-0.3-1-0.6-1.5-0.9c-0.7-0.5-1.6-0.5-2.4-0.8c-0.8-0.3-1.5-0.6-2.2-1.2c-0.8-0.6-1.7,0.8-0.9,1.4
				C73.9,153.7,73.7,153.7,73.7,153.7z"/>
		</g>
		<g>
			<path fill="#FFFFFF" d="M81.1,153.4c0.7,0,1.4,0.1,2.1,0c0.7-0.1,1.4-0.5,2.1-0.5c0.7-0.1,1.4,0.2,2.1,0.2c1,0,1.1-1.7,0-1.7
				c-0.7,0-1.4-0.1-2.1-0.1c-0.7,0.1-1.4,0.3-2.1,0.4c-0.7,0.1-1.4-0.2-2.1-0.2c-1,0-1.1,2.1,0,2.1
				C81.1,153.6,81.1,153.4,81.1,153.4z"/>
		</g>
	</g>
</g>
<g>
	<g>
		<g>
			<path fill="#FFFFFF" d="M259.5,149.8c-0.5,0.3-1,0.8-1.7,0.9c-0.6,0.1-1.3,0.3-1.9,0.3c-0.5,0-1.2,0.1-1.8,0.1
				c-0.6,0-1.3-0.1-1.8-0.4c-0.9-0.4-1.7,0.7-0.7,1.2c0.7,0.3,1.4,0.3,2.1,0.3c0.8,0,1.5,0.2,2.2,0.1c0.8-0.1,1.6,0,2.4-0.2
				c0.8-0.1,1.5-0.6,2.1-1C261.3,150.8,260.5,149.4,259.5,149.8C259.5,149.9,259.5,149.8,259.5,149.8z"/>
		</g>
		<g>
			<path fill="#FFFFFF" d="M261.6,150.1c0.5-0.5,1.1-0.9,1.7-1.3c0.6-0.4,1.3-0.6,2-0.8c0.7-0.2,1.4-0.2,2.1-0.1
				c0.7,0.1,1.2,0.4,1.9,0.8c0.8,0.5,1.4,1,2.1,1.4c0.7,0.4,1.6,0.3,2.5,0.4c1,0.1,1-1.1,0-1.2c-0.7-0.1-1.3-0.4-1.8-0.7
				c-0.6-0.3-1.1-0.6-1.6-1c-0.5-0.3-0.9-1-1.5-1.3c-0.6-0.2-1.2,0-1.9,0c-0.8,0-1.5,0.2-2.3,0.4c-0.8,0.2-1.4,0.5-2.1,0.9
				c-0.7,0.4-1.3,0.9-1.8,1.5C260.1,149.9,261,151,261.6,150.1C261.7,150.1,261.6,150.1,261.6,150.1z"/>
		</g>
		<g>
			<path fill="#FFFFFF" d="M272.8,148.8c-0.5,0.7-1.1,1.3-1.5,2c-0.6,0.8-0.9,1.2-1.4,1.5c-0.5,0.3-1,0.7-2,0.8
				c-0.5,0.1-1.2-0.2-2-0.4c-0.6-0.1-1.2-0.5-1.8-0.7c-0.7-0.2-1.3-0.3-1.9-0.5c-0.7-0.3-1.5-0.5-1.8-0.9c-0.6-0.8-1.5,0.1-0.9,0.9
				c0.5,0.7,1.2,0.9,2,1.2c0.7,0.3,1.3,1,2.1,1.3c0.7,0.3,1.3,0.1,1.9,0.3c0.5,0.2,1.1,0.4,1.8,0.3c0.6-0.1,1.4-0.1,2.1-0.2
				c0.7-0.1,1.4-0.3,2-0.6c0.7-0.4,1.3-1,1.7-1.7c0.4-0.7,0.7-1.3,1.2-2c0.7-0.8-0.6-2.1-1.3-1.3
				C272.9,148.9,272.8,148.8,272.8,148.8z"/>
		</g>
		<g>
			<path fill="#FFFFFF" d="M267,149.4c-0.7,0.1-1.3,0.5-2,0.6c-0.7,0.1-1.4,0.2-2.1,0.3c-0.7,0.1-1.4-0.2-2.1-0.1
				c-1,0.1-1,1.8,0,1.7c0.7-0.1,1.4-0.2,2-0.3c0.7-0.1,1.4,0.1,2.1,0c0.7-0.1,1.3-0.5,2-0.5C268,150.9,268,149.3,267,149.4
				C267,149.4,267,149.4,267,149.4z"/>
		</g>
	</g>
</g>
<g>
	<g>
		<g>
			<path fill="#FFFFFF" d="M26.7,52.5c0.4-0.5,0.8-0.9,1.3-1.4c0.4-0.4,1.1-0.7,1.5-1.1c0.4-0.4,0.7-1.1,1.1-1.5
				c0.5-0.4,1-0.8,1.6-1c1.2-0.6,0.2-2.2-1-1.7C30.5,46,30,46.5,29.5,47c-0.5,0.4-1,0.9-1.4,1.3c-0.5,0.5-0.8,1.1-1.2,1.6
				c-0.5,0.5-0.9,0.9-1.3,1.4c-0.8,1,0.7,2.5,1.5,1.4C27.1,52.6,26.7,52.5,26.7,52.5z"/>
		</g>
		<g>
			<path fill="#FFFFFF" d="M25.1,50.7c-0.8-0.1-1.6,0.4-2.3,0.4c-0.8,0.1-1.6-0.1-2.3,0.2c-0.7,0.3-1.3,0.8-1.9,1.3
				c-0.4,0.4-0.9,0.7-1.2,1.2c-0.3,0.5-0.5,1.1-0.6,1.6c-0.2,0.7-0.1,1.4-0.2,2.1c-0.1,0.7-0.2,1.5-0.6,2c-0.8,1,0.4,2.3,1.2,1.3
				c0.4-0.6,0.8-1,1-1.6c0.2-0.6,0.5-1.2,0.6-1.8c0.1-0.6-0.1-1.3,0.1-1.9c0.3-0.9,0.9-1.5,1.5-2c0.7-0.4,1.5-0.4,2.4-0.5
				c0.8-0.1,1.6-0.3,2.4-0.2c1.3,0.2,1.2-1.6-0.1-1.7C24.9,51,25.1,50.7,25.1,50.7z"/>
		</g>
		<g>
			<path fill="#FFFFFF" d="M16.2,62.4c0.9-0.1,1.6-0.7,2.4-0.9c0.8-0.3,1.7-0.2,2.5-0.3c0.8-0.1,1.5-0.6,2.3-0.8
				c0.7-0.2,1.5-0.2,2.2-0.8c0.5-0.4,1.1-0.9,1.4-1.5c0.4-0.6,0.5-1.3,0.7-2c0.2-0.9,0-1.6-0.2-2.4c-0.3-0.8-0.5-1.6-0.8-2.3
				c-0.4-1.2-2.2-0.8-1.8,0.5c0.2,0.6,0.6,1.1,0.8,1.7c0.2,0.6-0.1,1.3-0.2,1.9c-0.1,0.8-0.1,1.7-0.7,2.2c-0.6,0.5-1.5,0.7-2.3,0.8
				c-1,0.2-2,0.2-2.9,0.5c-0.6,0.2-1.2,0.2-1.7,0.5c-0.5,0.2-1,0.4-1.7,0.4c-1.3,0.1-1.3,2.4,0,2.3C16.3,62.3,16.2,62.4,16.2,62.4z"
				/>
		</g>
		<g>
			<path fill="#FFFFFF" d="M21.7,57c0.5-0.5,1.2-0.7,1.7-1.2c0.5-0.5,0.6-1.4,1.1-1.9c0.5-0.5,1.1-0.9,1.6-1.4
				c1-0.8-0.4-2.3-1.4-1.4c-0.5,0.5-0.8,1.1-1.3,1.7c-0.5,0.5-0.9,1.1-1.4,1.6c-0.5,0.5-1.2,0.7-1.8,1.2
				C19.3,56.4,20.8,57.9,21.7,57C21.8,57,21.7,57,21.7,57z"/>
		</g>
	</g>
</g>
<g>
	<g>
		<g>
			<path fill="#FFFFFF" d="M316.9,38.7c-0.4,0.4-1.2,0.4-1.8,0.7c-0.6,0.3-1.1,0.5-1.7,0.8c-0.5,0.2-1,0.7-1.5,0.9
				c-0.6,0.2-1.3,0.4-1.8,0.3c-1.3-0.2-1.8,1.8-0.6,2.1c0.7,0.1,1.5-0.3,2.3-0.4c0.8-0.2,1.4-0.6,2.1-0.8c0.7-0.3,1.6-0.3,2.3-0.6
				c0.7-0.4,1.2-1.1,1.7-1.7c0.5-0.5,0.4-0.8,0.1-1.1c-0.4-0.4-0.9-0.6-1.4-0.2C316.7,38.6,316.9,38.7,316.9,38.7z"/>
		</g>
		<g>
			<path fill="#FFFFFF" d="M319.2,38.5c0.3-0.6,0.7-1.2,1.1-1.7c0.4-0.5,1.1-0.8,1.6-1.1c0.6-0.3,1.2-0.5,1.8-0.6
				c0.7-0.1,1.3-0.4,2-0.2c0.9,0.2,1.7,0.5,2.5,0.6c0.8,0.2,1.5,0.2,2.5,0.1c1.3-0.2,0.8-1.9-0.5-1.7c-0.8,0.1-1.6,0-2.4-0.3
				c-0.7-0.2-1.4-0.6-2.2-0.8c-0.5-0.1-1.1,0-1.6,0c-0.5,0-1.1-0.2-1.7-0.1c-0.7,0.2-1.5,0.6-2.1,1.1c-0.6,0.4-1.1,1.1-1.6,1.7
				c-0.5,0.6-0.8,1.3-1.1,2c-0.5,1.2,1.3,2.3,1.8,1.1C319.5,38.6,319.2,38.5,319.2,38.5z"/>
		</g>
		<g>
			<path fill="#FFFFFF" d="M329.2,34.1c-0.4,0.8-0.6,1.6-0.8,2.4c-0.3,0.8-0.9,1.1-1.2,1.5c-0.3,0.4-0.7,0.7-1.5,1
				c-0.8,0.3-1.4,0.6-2,0.6c-0.6,0-1.3-0.1-2.1-0.2c-0.6-0.1-1.2-0.3-1.8-0.3c-0.6,0-1.3,0.1-1.8-0.3c-1.1-0.8-2,0.9-1,1.7
				c0.7,0.5,1.5,0.9,2.3,1c0.8,0.1,1.6-0.3,2.5-0.2c0.7,0.1,1.3,0.3,1.9,0.3c0.6,0,1.2,0,1.9-0.3c0.6-0.2,1.4-0.3,2-0.7
				c0.7-0.3,1.3-0.7,1.8-1.2c0.6-0.6,0.6-1.5,0.8-2.3c0.2-0.8,0.2-1.6,0.6-2.4c0.5-1.2-0.9-2.1-1.4-0.9
				C329.4,34.2,329.2,34.1,329.2,34.1z"/>
		</g>
		<g>
			<path fill="#FFFFFF" d="M323.7,35.9c-0.6,0.3-1.3,0.6-1.9,0.9c-0.6,0.3-1.2,0.8-1.8,1.1c-0.6,0.3-1.2,0.8-1.8,1
				c-1.2,0.5-0.8,2.3,0.5,1.8c0.6-0.3,1.2-0.7,1.8-1c0.6-0.3,1.3-0.6,1.9-0.9c0.6-0.3,1.3-0.6,1.9-0.9c1.2-0.5,0.8-2.2-0.5-1.7
				C323.8,36.3,323.7,35.9,323.7,35.9z"/>
		</g>
	</g>
</g>
</svg>
